G75*
%MOIN*%
%OFA0B0*%
%FSLAX25Y25*%
%IPPOS*%
%LPD*%
%AMOC8*
5,1,8,0,0,1.08239X$1,22.5*
%
%ADD10R,0.06693X0.03346*%
%ADD11R,0.09843X0.12598*%
D10*
X0060807Y0056717D03*
X0048996Y0064591D03*
X0060807Y0072465D03*
X0048996Y0080339D03*
X0060807Y0088213D03*
X0048996Y0096087D03*
X0060807Y0103961D03*
X0108096Y0096087D03*
X0119907Y0088213D03*
X0108096Y0080339D03*
X0119907Y0072465D03*
X0150996Y0080339D03*
X0162807Y0088213D03*
X0150996Y0096087D03*
X0162807Y0103961D03*
X0119907Y0103961D03*
X0162807Y0072465D03*
X0150996Y0064591D03*
X0162807Y0056717D03*
X0210096Y0080339D03*
X0221907Y0088213D03*
X0210096Y0096087D03*
X0221907Y0103961D03*
X0252996Y0096087D03*
X0264807Y0088213D03*
X0252996Y0080339D03*
X0264807Y0072465D03*
X0252996Y0064591D03*
X0264807Y0056717D03*
X0221907Y0072465D03*
X0264807Y0103961D03*
X0312096Y0096087D03*
X0323907Y0088213D03*
X0312096Y0080339D03*
X0323907Y0072465D03*
X0354996Y0080339D03*
X0366807Y0088213D03*
X0354996Y0096087D03*
X0366807Y0103961D03*
X0323907Y0103961D03*
X0366807Y0072465D03*
X0354996Y0064591D03*
X0366807Y0056717D03*
X0414096Y0080339D03*
X0425907Y0088213D03*
X0414096Y0096087D03*
X0425907Y0103961D03*
X0456996Y0096087D03*
X0468807Y0088213D03*
X0456996Y0080339D03*
X0468807Y0072465D03*
X0456996Y0064591D03*
X0468807Y0056717D03*
X0425907Y0072465D03*
X0468807Y0103961D03*
X0516096Y0096087D03*
X0527907Y0088213D03*
X0516096Y0080339D03*
X0527907Y0072465D03*
X0558996Y0080339D03*
X0570807Y0088213D03*
X0558996Y0096087D03*
X0570807Y0103961D03*
X0527907Y0103961D03*
X0570807Y0072465D03*
X0558996Y0064591D03*
X0570807Y0056717D03*
X0618096Y0080339D03*
X0629907Y0088213D03*
X0618096Y0096087D03*
X0629907Y0103961D03*
X0629907Y0072465D03*
X0570807Y0178717D03*
X0558996Y0186591D03*
X0570807Y0194465D03*
X0558996Y0202339D03*
X0570807Y0210213D03*
X0558996Y0218087D03*
X0570807Y0225961D03*
X0527907Y0225961D03*
X0516096Y0218087D03*
X0527907Y0210213D03*
X0516096Y0202339D03*
X0527907Y0194465D03*
X0468807Y0194465D03*
X0456996Y0202339D03*
X0468807Y0210213D03*
X0456996Y0218087D03*
X0468807Y0225961D03*
X0425907Y0225961D03*
X0414096Y0218087D03*
X0425907Y0210213D03*
X0414096Y0202339D03*
X0425907Y0194465D03*
X0456996Y0186591D03*
X0468807Y0178717D03*
X0366807Y0178717D03*
X0354996Y0186591D03*
X0366807Y0194465D03*
X0354996Y0202339D03*
X0366807Y0210213D03*
X0354996Y0218087D03*
X0366807Y0225961D03*
X0323907Y0225961D03*
X0312096Y0218087D03*
X0323907Y0210213D03*
X0312096Y0202339D03*
X0323907Y0194465D03*
X0264807Y0194465D03*
X0252996Y0202339D03*
X0264807Y0210213D03*
X0252996Y0218087D03*
X0264807Y0225961D03*
X0221907Y0225961D03*
X0210096Y0218087D03*
X0221907Y0210213D03*
X0210096Y0202339D03*
X0221907Y0194465D03*
X0252996Y0186591D03*
X0264807Y0178717D03*
X0162807Y0178717D03*
X0150996Y0186591D03*
X0162807Y0194465D03*
X0150996Y0202339D03*
X0162807Y0210213D03*
X0150996Y0218087D03*
X0162807Y0225961D03*
X0119907Y0225961D03*
X0108096Y0218087D03*
X0119907Y0210213D03*
X0108096Y0202339D03*
X0119907Y0194465D03*
X0060807Y0194465D03*
X0048996Y0202339D03*
X0060807Y0210213D03*
X0048996Y0218087D03*
X0060807Y0225961D03*
X0048996Y0186591D03*
X0060807Y0178717D03*
X0060807Y0300717D03*
X0048996Y0308591D03*
X0060807Y0316465D03*
X0048996Y0324339D03*
X0060807Y0332213D03*
X0048996Y0340087D03*
X0060807Y0347961D03*
X0108096Y0340087D03*
X0119907Y0332213D03*
X0108096Y0324339D03*
X0119907Y0316465D03*
X0150996Y0324339D03*
X0162807Y0332213D03*
X0150996Y0340087D03*
X0162807Y0347961D03*
X0119907Y0347961D03*
X0162807Y0316465D03*
X0150996Y0308591D03*
X0162807Y0300717D03*
X0210096Y0324339D03*
X0221907Y0332213D03*
X0210096Y0340087D03*
X0221907Y0347961D03*
X0252996Y0340087D03*
X0264807Y0332213D03*
X0252996Y0324339D03*
X0264807Y0316465D03*
X0252996Y0308591D03*
X0264807Y0300717D03*
X0221907Y0316465D03*
X0264807Y0347961D03*
X0312096Y0340087D03*
X0323907Y0332213D03*
X0312096Y0324339D03*
X0323907Y0316465D03*
X0354996Y0324339D03*
X0366807Y0332213D03*
X0354996Y0340087D03*
X0366807Y0347961D03*
X0323907Y0347961D03*
X0366807Y0316465D03*
X0354996Y0308591D03*
X0366807Y0300717D03*
X0414096Y0324339D03*
X0425907Y0332213D03*
X0414096Y0340087D03*
X0425907Y0347961D03*
X0456996Y0340087D03*
X0468807Y0332213D03*
X0456996Y0324339D03*
X0468807Y0316465D03*
X0456996Y0308591D03*
X0468807Y0300717D03*
X0425907Y0316465D03*
X0468807Y0347961D03*
X0516096Y0340087D03*
X0527907Y0332213D03*
X0516096Y0324339D03*
X0527907Y0316465D03*
X0558996Y0324339D03*
X0570807Y0332213D03*
X0558996Y0340087D03*
X0570807Y0347961D03*
X0527907Y0347961D03*
X0570807Y0316465D03*
X0558996Y0308591D03*
X0570807Y0300717D03*
X0618096Y0324339D03*
X0629907Y0332213D03*
X0618096Y0340087D03*
X0629907Y0347961D03*
X0629907Y0316465D03*
X0629907Y0225961D03*
X0618096Y0218087D03*
X0629907Y0210213D03*
X0618096Y0202339D03*
X0629907Y0194465D03*
D11*
X0595481Y0231502D03*
X0595481Y0262998D03*
X0493481Y0262998D03*
X0493481Y0231502D03*
X0391481Y0231502D03*
X0391481Y0262998D03*
X0289481Y0262998D03*
X0289481Y0231502D03*
X0187481Y0231502D03*
X0187481Y0262998D03*
X0085481Y0262998D03*
X0085481Y0231502D03*
X0085481Y0140998D03*
X0085481Y0109502D03*
X0187481Y0109502D03*
X0187481Y0140998D03*
X0289481Y0140998D03*
X0289481Y0109502D03*
X0391481Y0109502D03*
X0391481Y0140998D03*
X0493481Y0140998D03*
X0493481Y0109502D03*
X0595481Y0109502D03*
X0595481Y0140998D03*
X0595481Y0353502D03*
X0595481Y0384998D03*
X0493481Y0384998D03*
X0493481Y0353502D03*
X0391481Y0353502D03*
X0391481Y0384998D03*
X0289481Y0384998D03*
X0289481Y0353502D03*
X0187481Y0353502D03*
X0187481Y0384998D03*
X0085481Y0384998D03*
X0085481Y0353502D03*
M02*
