G75*
%MOIN*%
%OFA0B0*%
%FSLAX25Y25*%
%IPPOS*%
%LPD*%
%AMOC8*
5,1,8,0,0,1.08239X$1,22.5*
%
%ADD10C,0.01500*%
%ADD11C,0.01100*%
D10*
X0033481Y0001750D02*
X0033481Y0444750D01*
X0007481Y0393750D02*
X0696481Y0393750D01*
X0645481Y0444750D02*
X0645481Y0001750D01*
X0696481Y0027750D02*
X0007481Y0027750D01*
X0135481Y0001750D02*
X0135481Y0444750D01*
X0237481Y0444750D02*
X0237481Y0001750D01*
X0339481Y0001750D02*
X0339481Y0444750D01*
X0441481Y0444750D02*
X0441481Y0001750D01*
X0543481Y0001750D02*
X0543481Y0444750D01*
X0696481Y0271750D02*
X0007481Y0271750D01*
X0007481Y0149750D02*
X0696481Y0149750D01*
D11*
X0709272Y0150733D02*
X0710583Y0146800D01*
X0711894Y0150733D01*
X0714566Y0149094D02*
X0718499Y0149094D01*
X0721867Y0149094D02*
X0723506Y0148439D01*
X0723558Y0148416D01*
X0723609Y0148389D01*
X0723658Y0148359D01*
X0723705Y0148326D01*
X0723750Y0148290D01*
X0723792Y0148250D01*
X0723831Y0148208D01*
X0723867Y0148164D01*
X0723900Y0148117D01*
X0723930Y0148067D01*
X0723957Y0148016D01*
X0723980Y0147964D01*
X0723999Y0147910D01*
X0724015Y0147854D01*
X0724027Y0147798D01*
X0724035Y0147741D01*
X0724039Y0147684D01*
X0724040Y0147626D01*
X0724036Y0147569D01*
X0724029Y0147512D01*
X0724017Y0147455D01*
X0724002Y0147400D01*
X0723984Y0147345D01*
X0723961Y0147292D01*
X0723935Y0147241D01*
X0723906Y0147192D01*
X0723873Y0147144D01*
X0723837Y0147099D01*
X0723799Y0147057D01*
X0723757Y0147017D01*
X0723713Y0146980D01*
X0723666Y0146946D01*
X0723618Y0146915D01*
X0723567Y0146888D01*
X0723515Y0146864D01*
X0723461Y0146844D01*
X0723406Y0146828D01*
X0723350Y0146815D01*
X0723293Y0146806D01*
X0723235Y0146801D01*
X0723178Y0146800D01*
X0723669Y0150405D02*
X0723562Y0150451D01*
X0723453Y0150494D01*
X0723343Y0150534D01*
X0723231Y0150570D01*
X0723119Y0150602D01*
X0723005Y0150631D01*
X0722891Y0150657D01*
X0722776Y0150678D01*
X0722661Y0150697D01*
X0722544Y0150711D01*
X0722428Y0150722D01*
X0722311Y0150729D01*
X0722194Y0150733D01*
X0722194Y0150734D02*
X0722137Y0150733D01*
X0722079Y0150728D01*
X0722022Y0150719D01*
X0721966Y0150706D01*
X0721911Y0150690D01*
X0721857Y0150670D01*
X0721805Y0150646D01*
X0721754Y0150619D01*
X0721706Y0150588D01*
X0721659Y0150554D01*
X0721615Y0150517D01*
X0721573Y0150477D01*
X0721535Y0150435D01*
X0721499Y0150390D01*
X0721466Y0150342D01*
X0721437Y0150293D01*
X0721411Y0150242D01*
X0721388Y0150189D01*
X0721370Y0150134D01*
X0721355Y0150079D01*
X0721343Y0150022D01*
X0721336Y0149965D01*
X0721332Y0149908D01*
X0721333Y0149850D01*
X0721337Y0149793D01*
X0721345Y0149736D01*
X0721357Y0149680D01*
X0721373Y0149624D01*
X0721392Y0149570D01*
X0721415Y0149518D01*
X0721442Y0149467D01*
X0721472Y0149417D01*
X0721505Y0149370D01*
X0721541Y0149326D01*
X0721580Y0149284D01*
X0721622Y0149244D01*
X0721667Y0149208D01*
X0721714Y0149175D01*
X0721763Y0149145D01*
X0721814Y0149118D01*
X0721866Y0149095D01*
X0721375Y0147128D02*
X0721509Y0147082D01*
X0721644Y0147039D01*
X0721780Y0147000D01*
X0721917Y0146964D01*
X0722054Y0146932D01*
X0722193Y0146903D01*
X0722332Y0146877D01*
X0722472Y0146856D01*
X0722613Y0146837D01*
X0722753Y0146823D01*
X0722895Y0146812D01*
X0723036Y0146804D01*
X0723178Y0146801D01*
X0726719Y0147783D02*
X0726719Y0149750D01*
X0726721Y0149812D01*
X0726727Y0149873D01*
X0726736Y0149934D01*
X0726750Y0149994D01*
X0726767Y0150054D01*
X0726788Y0150112D01*
X0726813Y0150169D01*
X0726841Y0150224D01*
X0726872Y0150277D01*
X0726907Y0150328D01*
X0726945Y0150377D01*
X0726985Y0150423D01*
X0727029Y0150467D01*
X0727075Y0150507D01*
X0727124Y0150545D01*
X0727175Y0150580D01*
X0727228Y0150611D01*
X0727283Y0150639D01*
X0727340Y0150664D01*
X0727398Y0150685D01*
X0727458Y0150702D01*
X0727518Y0150716D01*
X0727579Y0150725D01*
X0727640Y0150731D01*
X0727702Y0150733D01*
X0729014Y0150733D01*
X0731427Y0149422D02*
X0731427Y0148111D01*
X0731429Y0148040D01*
X0731435Y0147969D01*
X0731444Y0147899D01*
X0731458Y0147829D01*
X0731475Y0147760D01*
X0731496Y0147692D01*
X0731520Y0147626D01*
X0731548Y0147561D01*
X0731580Y0147497D01*
X0731615Y0147435D01*
X0731653Y0147375D01*
X0731694Y0147318D01*
X0731739Y0147262D01*
X0731786Y0147209D01*
X0731836Y0147159D01*
X0731889Y0147112D01*
X0731945Y0147067D01*
X0732002Y0147026D01*
X0732062Y0146988D01*
X0732124Y0146953D01*
X0732188Y0146921D01*
X0732253Y0146893D01*
X0732319Y0146869D01*
X0732387Y0146848D01*
X0732456Y0146831D01*
X0732526Y0146817D01*
X0732596Y0146808D01*
X0732667Y0146802D01*
X0732738Y0146800D01*
X0732809Y0146802D01*
X0732880Y0146808D01*
X0732950Y0146817D01*
X0733020Y0146831D01*
X0733089Y0146848D01*
X0733157Y0146869D01*
X0733223Y0146893D01*
X0733288Y0146921D01*
X0733352Y0146953D01*
X0733414Y0146988D01*
X0733474Y0147026D01*
X0733531Y0147067D01*
X0733587Y0147112D01*
X0733640Y0147159D01*
X0733690Y0147209D01*
X0733737Y0147262D01*
X0733782Y0147318D01*
X0733823Y0147375D01*
X0733861Y0147435D01*
X0733896Y0147497D01*
X0733928Y0147561D01*
X0733956Y0147626D01*
X0733980Y0147692D01*
X0734001Y0147760D01*
X0734018Y0147829D01*
X0734032Y0147899D01*
X0734041Y0147969D01*
X0734047Y0148040D01*
X0734049Y0148111D01*
X0734049Y0149422D01*
X0734047Y0149493D01*
X0734041Y0149564D01*
X0734032Y0149634D01*
X0734018Y0149704D01*
X0734001Y0149773D01*
X0733980Y0149841D01*
X0733956Y0149907D01*
X0733928Y0149972D01*
X0733896Y0150036D01*
X0733861Y0150098D01*
X0733823Y0150158D01*
X0733782Y0150215D01*
X0733737Y0150271D01*
X0733690Y0150324D01*
X0733640Y0150374D01*
X0733587Y0150421D01*
X0733531Y0150466D01*
X0733474Y0150507D01*
X0733414Y0150545D01*
X0733352Y0150580D01*
X0733288Y0150612D01*
X0733223Y0150640D01*
X0733157Y0150664D01*
X0733089Y0150685D01*
X0733020Y0150702D01*
X0732950Y0150716D01*
X0732880Y0150725D01*
X0732809Y0150731D01*
X0732738Y0150733D01*
X0732667Y0150731D01*
X0732596Y0150725D01*
X0732526Y0150716D01*
X0732456Y0150702D01*
X0732387Y0150685D01*
X0732319Y0150664D01*
X0732253Y0150640D01*
X0732188Y0150612D01*
X0732124Y0150580D01*
X0732062Y0150545D01*
X0732002Y0150507D01*
X0731945Y0150466D01*
X0731889Y0150421D01*
X0731836Y0150374D01*
X0731786Y0150324D01*
X0731739Y0150271D01*
X0731694Y0150215D01*
X0731653Y0150158D01*
X0731615Y0150098D01*
X0731580Y0150036D01*
X0731548Y0149972D01*
X0731520Y0149907D01*
X0731496Y0149841D01*
X0731475Y0149773D01*
X0731458Y0149704D01*
X0731444Y0149634D01*
X0731435Y0149564D01*
X0731429Y0149493D01*
X0731427Y0149422D01*
X0729014Y0146800D02*
X0727702Y0146800D01*
X0727640Y0146802D01*
X0727579Y0146808D01*
X0727518Y0146817D01*
X0727458Y0146831D01*
X0727398Y0146848D01*
X0727340Y0146869D01*
X0727283Y0146894D01*
X0727228Y0146922D01*
X0727175Y0146953D01*
X0727124Y0146988D01*
X0727075Y0147026D01*
X0727029Y0147066D01*
X0726985Y0147110D01*
X0726945Y0147156D01*
X0726907Y0147205D01*
X0726872Y0147256D01*
X0726841Y0147309D01*
X0726813Y0147364D01*
X0726788Y0147421D01*
X0726767Y0147479D01*
X0726750Y0147539D01*
X0726736Y0147599D01*
X0726727Y0147660D01*
X0726721Y0147721D01*
X0726719Y0147783D01*
X0737016Y0146800D02*
X0737016Y0150733D01*
X0738982Y0150733D01*
X0738982Y0150078D01*
X0741068Y0149422D02*
X0741068Y0147783D01*
X0741070Y0147721D01*
X0741076Y0147660D01*
X0741085Y0147599D01*
X0741099Y0147539D01*
X0741116Y0147479D01*
X0741137Y0147421D01*
X0741162Y0147364D01*
X0741190Y0147309D01*
X0741221Y0147256D01*
X0741256Y0147205D01*
X0741294Y0147156D01*
X0741334Y0147110D01*
X0741378Y0147066D01*
X0741424Y0147026D01*
X0741473Y0146988D01*
X0741524Y0146953D01*
X0741577Y0146922D01*
X0741632Y0146894D01*
X0741689Y0146869D01*
X0741747Y0146848D01*
X0741807Y0146831D01*
X0741867Y0146817D01*
X0741928Y0146808D01*
X0741989Y0146802D01*
X0742051Y0146800D01*
X0743690Y0146800D01*
X0743690Y0148767D02*
X0741068Y0148767D01*
X0741068Y0149422D02*
X0741070Y0149493D01*
X0741076Y0149564D01*
X0741085Y0149634D01*
X0741099Y0149704D01*
X0741116Y0149773D01*
X0741137Y0149841D01*
X0741161Y0149907D01*
X0741189Y0149972D01*
X0741221Y0150036D01*
X0741256Y0150098D01*
X0741294Y0150158D01*
X0741335Y0150215D01*
X0741380Y0150271D01*
X0741427Y0150324D01*
X0741477Y0150374D01*
X0741530Y0150421D01*
X0741586Y0150466D01*
X0741643Y0150507D01*
X0741703Y0150545D01*
X0741765Y0150580D01*
X0741829Y0150612D01*
X0741894Y0150640D01*
X0741960Y0150664D01*
X0742028Y0150685D01*
X0742097Y0150702D01*
X0742167Y0150716D01*
X0742237Y0150725D01*
X0742308Y0150731D01*
X0742379Y0150733D01*
X0742450Y0150731D01*
X0742521Y0150725D01*
X0742591Y0150716D01*
X0742661Y0150702D01*
X0742730Y0150685D01*
X0742798Y0150664D01*
X0742864Y0150640D01*
X0742929Y0150612D01*
X0742993Y0150580D01*
X0743055Y0150545D01*
X0743115Y0150507D01*
X0743172Y0150466D01*
X0743228Y0150421D01*
X0743281Y0150374D01*
X0743331Y0150324D01*
X0743378Y0150271D01*
X0743423Y0150215D01*
X0743464Y0150158D01*
X0743502Y0150098D01*
X0743537Y0150036D01*
X0743569Y0149972D01*
X0743597Y0149907D01*
X0743621Y0149841D01*
X0743642Y0149773D01*
X0743659Y0149704D01*
X0743673Y0149634D01*
X0743682Y0149564D01*
X0743688Y0149493D01*
X0743690Y0149422D01*
X0743690Y0148767D01*
X0743690Y0268800D02*
X0742051Y0268800D01*
X0741989Y0268802D01*
X0741928Y0268808D01*
X0741867Y0268817D01*
X0741807Y0268831D01*
X0741747Y0268848D01*
X0741689Y0268869D01*
X0741632Y0268894D01*
X0741577Y0268922D01*
X0741524Y0268953D01*
X0741473Y0268988D01*
X0741424Y0269026D01*
X0741378Y0269066D01*
X0741334Y0269110D01*
X0741294Y0269156D01*
X0741256Y0269205D01*
X0741221Y0269256D01*
X0741190Y0269309D01*
X0741162Y0269364D01*
X0741137Y0269421D01*
X0741116Y0269479D01*
X0741099Y0269539D01*
X0741085Y0269599D01*
X0741076Y0269660D01*
X0741070Y0269721D01*
X0741068Y0269783D01*
X0741068Y0271422D01*
X0741068Y0270767D02*
X0743690Y0270767D01*
X0743690Y0271422D01*
X0743688Y0271493D01*
X0743682Y0271564D01*
X0743673Y0271634D01*
X0743659Y0271704D01*
X0743642Y0271773D01*
X0743621Y0271841D01*
X0743597Y0271907D01*
X0743569Y0271972D01*
X0743537Y0272036D01*
X0743502Y0272098D01*
X0743464Y0272158D01*
X0743423Y0272215D01*
X0743378Y0272271D01*
X0743331Y0272324D01*
X0743281Y0272374D01*
X0743228Y0272421D01*
X0743172Y0272466D01*
X0743115Y0272507D01*
X0743055Y0272545D01*
X0742993Y0272580D01*
X0742929Y0272612D01*
X0742864Y0272640D01*
X0742798Y0272664D01*
X0742730Y0272685D01*
X0742661Y0272702D01*
X0742591Y0272716D01*
X0742521Y0272725D01*
X0742450Y0272731D01*
X0742379Y0272733D01*
X0742308Y0272731D01*
X0742237Y0272725D01*
X0742167Y0272716D01*
X0742097Y0272702D01*
X0742028Y0272685D01*
X0741960Y0272664D01*
X0741894Y0272640D01*
X0741829Y0272612D01*
X0741765Y0272580D01*
X0741703Y0272545D01*
X0741643Y0272507D01*
X0741586Y0272466D01*
X0741530Y0272421D01*
X0741477Y0272374D01*
X0741427Y0272324D01*
X0741380Y0272271D01*
X0741335Y0272215D01*
X0741294Y0272158D01*
X0741256Y0272098D01*
X0741221Y0272036D01*
X0741189Y0271972D01*
X0741161Y0271907D01*
X0741137Y0271841D01*
X0741116Y0271773D01*
X0741099Y0271704D01*
X0741085Y0271634D01*
X0741076Y0271564D01*
X0741070Y0271493D01*
X0741068Y0271422D01*
X0738982Y0272078D02*
X0738982Y0272733D01*
X0737016Y0272733D01*
X0737016Y0268800D01*
X0734049Y0270111D02*
X0734049Y0271422D01*
X0734047Y0271493D01*
X0734041Y0271564D01*
X0734032Y0271634D01*
X0734018Y0271704D01*
X0734001Y0271773D01*
X0733980Y0271841D01*
X0733956Y0271907D01*
X0733928Y0271972D01*
X0733896Y0272036D01*
X0733861Y0272098D01*
X0733823Y0272158D01*
X0733782Y0272215D01*
X0733737Y0272271D01*
X0733690Y0272324D01*
X0733640Y0272374D01*
X0733587Y0272421D01*
X0733531Y0272466D01*
X0733474Y0272507D01*
X0733414Y0272545D01*
X0733352Y0272580D01*
X0733288Y0272612D01*
X0733223Y0272640D01*
X0733157Y0272664D01*
X0733089Y0272685D01*
X0733020Y0272702D01*
X0732950Y0272716D01*
X0732880Y0272725D01*
X0732809Y0272731D01*
X0732738Y0272733D01*
X0732667Y0272731D01*
X0732596Y0272725D01*
X0732526Y0272716D01*
X0732456Y0272702D01*
X0732387Y0272685D01*
X0732319Y0272664D01*
X0732253Y0272640D01*
X0732188Y0272612D01*
X0732124Y0272580D01*
X0732062Y0272545D01*
X0732002Y0272507D01*
X0731945Y0272466D01*
X0731889Y0272421D01*
X0731836Y0272374D01*
X0731786Y0272324D01*
X0731739Y0272271D01*
X0731694Y0272215D01*
X0731653Y0272158D01*
X0731615Y0272098D01*
X0731580Y0272036D01*
X0731548Y0271972D01*
X0731520Y0271907D01*
X0731496Y0271841D01*
X0731475Y0271773D01*
X0731458Y0271704D01*
X0731444Y0271634D01*
X0731435Y0271564D01*
X0731429Y0271493D01*
X0731427Y0271422D01*
X0731427Y0270111D01*
X0731429Y0270040D01*
X0731435Y0269969D01*
X0731444Y0269899D01*
X0731458Y0269829D01*
X0731475Y0269760D01*
X0731496Y0269692D01*
X0731520Y0269626D01*
X0731548Y0269561D01*
X0731580Y0269497D01*
X0731615Y0269435D01*
X0731653Y0269375D01*
X0731694Y0269318D01*
X0731739Y0269262D01*
X0731786Y0269209D01*
X0731836Y0269159D01*
X0731889Y0269112D01*
X0731945Y0269067D01*
X0732002Y0269026D01*
X0732062Y0268988D01*
X0732124Y0268953D01*
X0732188Y0268921D01*
X0732253Y0268893D01*
X0732319Y0268869D01*
X0732387Y0268848D01*
X0732456Y0268831D01*
X0732526Y0268817D01*
X0732596Y0268808D01*
X0732667Y0268802D01*
X0732738Y0268800D01*
X0732809Y0268802D01*
X0732880Y0268808D01*
X0732950Y0268817D01*
X0733020Y0268831D01*
X0733089Y0268848D01*
X0733157Y0268869D01*
X0733223Y0268893D01*
X0733288Y0268921D01*
X0733352Y0268953D01*
X0733414Y0268988D01*
X0733474Y0269026D01*
X0733531Y0269067D01*
X0733587Y0269112D01*
X0733640Y0269159D01*
X0733690Y0269209D01*
X0733737Y0269262D01*
X0733782Y0269318D01*
X0733823Y0269375D01*
X0733861Y0269435D01*
X0733896Y0269497D01*
X0733928Y0269561D01*
X0733956Y0269626D01*
X0733980Y0269692D01*
X0734001Y0269760D01*
X0734018Y0269829D01*
X0734032Y0269899D01*
X0734041Y0269969D01*
X0734047Y0270040D01*
X0734049Y0270111D01*
X0729014Y0268800D02*
X0727702Y0268800D01*
X0727640Y0268802D01*
X0727579Y0268808D01*
X0727518Y0268817D01*
X0727458Y0268831D01*
X0727398Y0268848D01*
X0727340Y0268869D01*
X0727283Y0268894D01*
X0727228Y0268922D01*
X0727175Y0268953D01*
X0727124Y0268988D01*
X0727075Y0269026D01*
X0727029Y0269066D01*
X0726985Y0269110D01*
X0726945Y0269156D01*
X0726907Y0269205D01*
X0726872Y0269256D01*
X0726841Y0269309D01*
X0726813Y0269364D01*
X0726788Y0269421D01*
X0726767Y0269479D01*
X0726750Y0269539D01*
X0726736Y0269599D01*
X0726727Y0269660D01*
X0726721Y0269721D01*
X0726719Y0269783D01*
X0726719Y0271750D01*
X0726721Y0271812D01*
X0726727Y0271873D01*
X0726736Y0271934D01*
X0726750Y0271994D01*
X0726767Y0272054D01*
X0726788Y0272112D01*
X0726813Y0272169D01*
X0726841Y0272224D01*
X0726872Y0272277D01*
X0726907Y0272328D01*
X0726945Y0272377D01*
X0726985Y0272423D01*
X0727029Y0272467D01*
X0727075Y0272507D01*
X0727124Y0272545D01*
X0727175Y0272580D01*
X0727228Y0272611D01*
X0727283Y0272639D01*
X0727340Y0272664D01*
X0727398Y0272685D01*
X0727458Y0272702D01*
X0727518Y0272716D01*
X0727579Y0272725D01*
X0727640Y0272731D01*
X0727702Y0272733D01*
X0729014Y0272733D01*
X0723506Y0270439D02*
X0721867Y0271094D01*
X0721866Y0271095D02*
X0721814Y0271118D01*
X0721763Y0271145D01*
X0721714Y0271175D01*
X0721667Y0271208D01*
X0721622Y0271244D01*
X0721580Y0271284D01*
X0721541Y0271326D01*
X0721505Y0271370D01*
X0721472Y0271417D01*
X0721442Y0271467D01*
X0721415Y0271518D01*
X0721392Y0271570D01*
X0721373Y0271624D01*
X0721357Y0271680D01*
X0721345Y0271736D01*
X0721337Y0271793D01*
X0721333Y0271850D01*
X0721332Y0271908D01*
X0721336Y0271965D01*
X0721343Y0272022D01*
X0721355Y0272079D01*
X0721370Y0272134D01*
X0721388Y0272189D01*
X0721411Y0272242D01*
X0721437Y0272293D01*
X0721466Y0272342D01*
X0721499Y0272390D01*
X0721535Y0272435D01*
X0721573Y0272477D01*
X0721615Y0272517D01*
X0721659Y0272554D01*
X0721706Y0272588D01*
X0721754Y0272619D01*
X0721805Y0272646D01*
X0721857Y0272670D01*
X0721911Y0272690D01*
X0721966Y0272706D01*
X0722022Y0272719D01*
X0722079Y0272728D01*
X0722137Y0272733D01*
X0722194Y0272734D01*
X0721375Y0269128D02*
X0721509Y0269082D01*
X0721644Y0269039D01*
X0721780Y0269000D01*
X0721917Y0268964D01*
X0722054Y0268932D01*
X0722193Y0268903D01*
X0722332Y0268877D01*
X0722472Y0268856D01*
X0722613Y0268837D01*
X0722753Y0268823D01*
X0722895Y0268812D01*
X0723036Y0268804D01*
X0723178Y0268801D01*
X0723178Y0268800D02*
X0723235Y0268801D01*
X0723293Y0268806D01*
X0723350Y0268815D01*
X0723406Y0268828D01*
X0723461Y0268844D01*
X0723515Y0268864D01*
X0723567Y0268888D01*
X0723618Y0268915D01*
X0723666Y0268946D01*
X0723713Y0268980D01*
X0723757Y0269017D01*
X0723799Y0269057D01*
X0723837Y0269099D01*
X0723873Y0269144D01*
X0723906Y0269192D01*
X0723935Y0269241D01*
X0723961Y0269292D01*
X0723984Y0269345D01*
X0724002Y0269400D01*
X0724017Y0269455D01*
X0724029Y0269512D01*
X0724036Y0269569D01*
X0724040Y0269626D01*
X0724039Y0269684D01*
X0724035Y0269741D01*
X0724027Y0269798D01*
X0724015Y0269854D01*
X0723999Y0269910D01*
X0723980Y0269964D01*
X0723957Y0270016D01*
X0723930Y0270067D01*
X0723900Y0270117D01*
X0723867Y0270164D01*
X0723831Y0270208D01*
X0723792Y0270250D01*
X0723750Y0270290D01*
X0723705Y0270326D01*
X0723658Y0270359D01*
X0723609Y0270389D01*
X0723558Y0270416D01*
X0723506Y0270439D01*
X0723669Y0272405D02*
X0723562Y0272451D01*
X0723453Y0272494D01*
X0723343Y0272534D01*
X0723231Y0272570D01*
X0723119Y0272602D01*
X0723005Y0272631D01*
X0722891Y0272657D01*
X0722776Y0272678D01*
X0722661Y0272697D01*
X0722544Y0272711D01*
X0722428Y0272722D01*
X0722311Y0272729D01*
X0722194Y0272733D01*
X0718499Y0271094D02*
X0714566Y0271094D01*
X0711894Y0272733D02*
X0710583Y0268800D01*
X0709272Y0272733D01*
X0710583Y0390800D02*
X0711894Y0394733D01*
X0709272Y0394733D02*
X0710583Y0390800D01*
X0714566Y0393094D02*
X0718499Y0393094D01*
X0721867Y0393094D02*
X0723506Y0392439D01*
X0723558Y0392416D01*
X0723609Y0392389D01*
X0723658Y0392359D01*
X0723705Y0392326D01*
X0723750Y0392290D01*
X0723792Y0392250D01*
X0723831Y0392208D01*
X0723867Y0392164D01*
X0723900Y0392117D01*
X0723930Y0392067D01*
X0723957Y0392016D01*
X0723980Y0391964D01*
X0723999Y0391910D01*
X0724015Y0391854D01*
X0724027Y0391798D01*
X0724035Y0391741D01*
X0724039Y0391684D01*
X0724040Y0391626D01*
X0724036Y0391569D01*
X0724029Y0391512D01*
X0724017Y0391455D01*
X0724002Y0391400D01*
X0723984Y0391345D01*
X0723961Y0391292D01*
X0723935Y0391241D01*
X0723906Y0391192D01*
X0723873Y0391144D01*
X0723837Y0391099D01*
X0723799Y0391057D01*
X0723757Y0391017D01*
X0723713Y0390980D01*
X0723666Y0390946D01*
X0723618Y0390915D01*
X0723567Y0390888D01*
X0723515Y0390864D01*
X0723461Y0390844D01*
X0723406Y0390828D01*
X0723350Y0390815D01*
X0723293Y0390806D01*
X0723235Y0390801D01*
X0723178Y0390800D01*
X0723669Y0394405D02*
X0723562Y0394451D01*
X0723453Y0394494D01*
X0723343Y0394534D01*
X0723231Y0394570D01*
X0723119Y0394602D01*
X0723005Y0394631D01*
X0722891Y0394657D01*
X0722776Y0394678D01*
X0722661Y0394697D01*
X0722544Y0394711D01*
X0722428Y0394722D01*
X0722311Y0394729D01*
X0722194Y0394733D01*
X0722194Y0394734D02*
X0722137Y0394733D01*
X0722079Y0394728D01*
X0722022Y0394719D01*
X0721966Y0394706D01*
X0721911Y0394690D01*
X0721857Y0394670D01*
X0721805Y0394646D01*
X0721754Y0394619D01*
X0721706Y0394588D01*
X0721659Y0394554D01*
X0721615Y0394517D01*
X0721573Y0394477D01*
X0721535Y0394435D01*
X0721499Y0394390D01*
X0721466Y0394342D01*
X0721437Y0394293D01*
X0721411Y0394242D01*
X0721388Y0394189D01*
X0721370Y0394134D01*
X0721355Y0394079D01*
X0721343Y0394022D01*
X0721336Y0393965D01*
X0721332Y0393908D01*
X0721333Y0393850D01*
X0721337Y0393793D01*
X0721345Y0393736D01*
X0721357Y0393680D01*
X0721373Y0393624D01*
X0721392Y0393570D01*
X0721415Y0393518D01*
X0721442Y0393467D01*
X0721472Y0393417D01*
X0721505Y0393370D01*
X0721541Y0393326D01*
X0721580Y0393284D01*
X0721622Y0393244D01*
X0721667Y0393208D01*
X0721714Y0393175D01*
X0721763Y0393145D01*
X0721814Y0393118D01*
X0721866Y0393095D01*
X0721375Y0391128D02*
X0721509Y0391082D01*
X0721644Y0391039D01*
X0721780Y0391000D01*
X0721917Y0390964D01*
X0722054Y0390932D01*
X0722193Y0390903D01*
X0722332Y0390877D01*
X0722472Y0390856D01*
X0722613Y0390837D01*
X0722753Y0390823D01*
X0722895Y0390812D01*
X0723036Y0390804D01*
X0723178Y0390801D01*
X0726719Y0391783D02*
X0726719Y0393750D01*
X0726721Y0393812D01*
X0726727Y0393873D01*
X0726736Y0393934D01*
X0726750Y0393994D01*
X0726767Y0394054D01*
X0726788Y0394112D01*
X0726813Y0394169D01*
X0726841Y0394224D01*
X0726872Y0394277D01*
X0726907Y0394328D01*
X0726945Y0394377D01*
X0726985Y0394423D01*
X0727029Y0394467D01*
X0727075Y0394507D01*
X0727124Y0394545D01*
X0727175Y0394580D01*
X0727228Y0394611D01*
X0727283Y0394639D01*
X0727340Y0394664D01*
X0727398Y0394685D01*
X0727458Y0394702D01*
X0727518Y0394716D01*
X0727579Y0394725D01*
X0727640Y0394731D01*
X0727702Y0394733D01*
X0729014Y0394733D01*
X0731427Y0393422D02*
X0731427Y0392111D01*
X0731429Y0392040D01*
X0731435Y0391969D01*
X0731444Y0391899D01*
X0731458Y0391829D01*
X0731475Y0391760D01*
X0731496Y0391692D01*
X0731520Y0391626D01*
X0731548Y0391561D01*
X0731580Y0391497D01*
X0731615Y0391435D01*
X0731653Y0391375D01*
X0731694Y0391318D01*
X0731739Y0391262D01*
X0731786Y0391209D01*
X0731836Y0391159D01*
X0731889Y0391112D01*
X0731945Y0391067D01*
X0732002Y0391026D01*
X0732062Y0390988D01*
X0732124Y0390953D01*
X0732188Y0390921D01*
X0732253Y0390893D01*
X0732319Y0390869D01*
X0732387Y0390848D01*
X0732456Y0390831D01*
X0732526Y0390817D01*
X0732596Y0390808D01*
X0732667Y0390802D01*
X0732738Y0390800D01*
X0732809Y0390802D01*
X0732880Y0390808D01*
X0732950Y0390817D01*
X0733020Y0390831D01*
X0733089Y0390848D01*
X0733157Y0390869D01*
X0733223Y0390893D01*
X0733288Y0390921D01*
X0733352Y0390953D01*
X0733414Y0390988D01*
X0733474Y0391026D01*
X0733531Y0391067D01*
X0733587Y0391112D01*
X0733640Y0391159D01*
X0733690Y0391209D01*
X0733737Y0391262D01*
X0733782Y0391318D01*
X0733823Y0391375D01*
X0733861Y0391435D01*
X0733896Y0391497D01*
X0733928Y0391561D01*
X0733956Y0391626D01*
X0733980Y0391692D01*
X0734001Y0391760D01*
X0734018Y0391829D01*
X0734032Y0391899D01*
X0734041Y0391969D01*
X0734047Y0392040D01*
X0734049Y0392111D01*
X0734049Y0393422D01*
X0734047Y0393493D01*
X0734041Y0393564D01*
X0734032Y0393634D01*
X0734018Y0393704D01*
X0734001Y0393773D01*
X0733980Y0393841D01*
X0733956Y0393907D01*
X0733928Y0393972D01*
X0733896Y0394036D01*
X0733861Y0394098D01*
X0733823Y0394158D01*
X0733782Y0394215D01*
X0733737Y0394271D01*
X0733690Y0394324D01*
X0733640Y0394374D01*
X0733587Y0394421D01*
X0733531Y0394466D01*
X0733474Y0394507D01*
X0733414Y0394545D01*
X0733352Y0394580D01*
X0733288Y0394612D01*
X0733223Y0394640D01*
X0733157Y0394664D01*
X0733089Y0394685D01*
X0733020Y0394702D01*
X0732950Y0394716D01*
X0732880Y0394725D01*
X0732809Y0394731D01*
X0732738Y0394733D01*
X0732667Y0394731D01*
X0732596Y0394725D01*
X0732526Y0394716D01*
X0732456Y0394702D01*
X0732387Y0394685D01*
X0732319Y0394664D01*
X0732253Y0394640D01*
X0732188Y0394612D01*
X0732124Y0394580D01*
X0732062Y0394545D01*
X0732002Y0394507D01*
X0731945Y0394466D01*
X0731889Y0394421D01*
X0731836Y0394374D01*
X0731786Y0394324D01*
X0731739Y0394271D01*
X0731694Y0394215D01*
X0731653Y0394158D01*
X0731615Y0394098D01*
X0731580Y0394036D01*
X0731548Y0393972D01*
X0731520Y0393907D01*
X0731496Y0393841D01*
X0731475Y0393773D01*
X0731458Y0393704D01*
X0731444Y0393634D01*
X0731435Y0393564D01*
X0731429Y0393493D01*
X0731427Y0393422D01*
X0729014Y0390800D02*
X0727702Y0390800D01*
X0727640Y0390802D01*
X0727579Y0390808D01*
X0727518Y0390817D01*
X0727458Y0390831D01*
X0727398Y0390848D01*
X0727340Y0390869D01*
X0727283Y0390894D01*
X0727228Y0390922D01*
X0727175Y0390953D01*
X0727124Y0390988D01*
X0727075Y0391026D01*
X0727029Y0391066D01*
X0726985Y0391110D01*
X0726945Y0391156D01*
X0726907Y0391205D01*
X0726872Y0391256D01*
X0726841Y0391309D01*
X0726813Y0391364D01*
X0726788Y0391421D01*
X0726767Y0391479D01*
X0726750Y0391539D01*
X0726736Y0391599D01*
X0726727Y0391660D01*
X0726721Y0391721D01*
X0726719Y0391783D01*
X0737016Y0390800D02*
X0737016Y0394733D01*
X0738982Y0394733D01*
X0738982Y0394078D01*
X0741068Y0393422D02*
X0741068Y0391783D01*
X0741070Y0391721D01*
X0741076Y0391660D01*
X0741085Y0391599D01*
X0741099Y0391539D01*
X0741116Y0391479D01*
X0741137Y0391421D01*
X0741162Y0391364D01*
X0741190Y0391309D01*
X0741221Y0391256D01*
X0741256Y0391205D01*
X0741294Y0391156D01*
X0741334Y0391110D01*
X0741378Y0391066D01*
X0741424Y0391026D01*
X0741473Y0390988D01*
X0741524Y0390953D01*
X0741577Y0390922D01*
X0741632Y0390894D01*
X0741689Y0390869D01*
X0741747Y0390848D01*
X0741807Y0390831D01*
X0741867Y0390817D01*
X0741928Y0390808D01*
X0741989Y0390802D01*
X0742051Y0390800D01*
X0743690Y0390800D01*
X0743690Y0392767D02*
X0741068Y0392767D01*
X0741068Y0393422D02*
X0741070Y0393493D01*
X0741076Y0393564D01*
X0741085Y0393634D01*
X0741099Y0393704D01*
X0741116Y0393773D01*
X0741137Y0393841D01*
X0741161Y0393907D01*
X0741189Y0393972D01*
X0741221Y0394036D01*
X0741256Y0394098D01*
X0741294Y0394158D01*
X0741335Y0394215D01*
X0741380Y0394271D01*
X0741427Y0394324D01*
X0741477Y0394374D01*
X0741530Y0394421D01*
X0741586Y0394466D01*
X0741643Y0394507D01*
X0741703Y0394545D01*
X0741765Y0394580D01*
X0741829Y0394612D01*
X0741894Y0394640D01*
X0741960Y0394664D01*
X0742028Y0394685D01*
X0742097Y0394702D01*
X0742167Y0394716D01*
X0742237Y0394725D01*
X0742308Y0394731D01*
X0742379Y0394733D01*
X0742450Y0394731D01*
X0742521Y0394725D01*
X0742591Y0394716D01*
X0742661Y0394702D01*
X0742730Y0394685D01*
X0742798Y0394664D01*
X0742864Y0394640D01*
X0742929Y0394612D01*
X0742993Y0394580D01*
X0743055Y0394545D01*
X0743115Y0394507D01*
X0743172Y0394466D01*
X0743228Y0394421D01*
X0743281Y0394374D01*
X0743331Y0394324D01*
X0743378Y0394271D01*
X0743423Y0394215D01*
X0743464Y0394158D01*
X0743502Y0394098D01*
X0743537Y0394036D01*
X0743569Y0393972D01*
X0743597Y0393907D01*
X0743621Y0393841D01*
X0743642Y0393773D01*
X0743659Y0393704D01*
X0743673Y0393634D01*
X0743682Y0393564D01*
X0743688Y0393493D01*
X0743690Y0393422D01*
X0743690Y0392767D01*
X0662690Y0450800D02*
X0661051Y0450800D01*
X0660989Y0450802D01*
X0660928Y0450808D01*
X0660867Y0450817D01*
X0660807Y0450831D01*
X0660747Y0450848D01*
X0660689Y0450869D01*
X0660632Y0450894D01*
X0660577Y0450922D01*
X0660524Y0450953D01*
X0660473Y0450988D01*
X0660424Y0451026D01*
X0660378Y0451066D01*
X0660334Y0451110D01*
X0660294Y0451156D01*
X0660256Y0451205D01*
X0660221Y0451256D01*
X0660190Y0451309D01*
X0660162Y0451364D01*
X0660137Y0451421D01*
X0660116Y0451479D01*
X0660099Y0451539D01*
X0660085Y0451599D01*
X0660076Y0451660D01*
X0660070Y0451721D01*
X0660068Y0451783D01*
X0660068Y0453422D01*
X0660068Y0452767D02*
X0662690Y0452767D01*
X0662690Y0453422D01*
X0662688Y0453493D01*
X0662682Y0453564D01*
X0662673Y0453634D01*
X0662659Y0453704D01*
X0662642Y0453773D01*
X0662621Y0453841D01*
X0662597Y0453907D01*
X0662569Y0453972D01*
X0662537Y0454036D01*
X0662502Y0454098D01*
X0662464Y0454158D01*
X0662423Y0454215D01*
X0662378Y0454271D01*
X0662331Y0454324D01*
X0662281Y0454374D01*
X0662228Y0454421D01*
X0662172Y0454466D01*
X0662115Y0454507D01*
X0662055Y0454545D01*
X0661993Y0454580D01*
X0661929Y0454612D01*
X0661864Y0454640D01*
X0661798Y0454664D01*
X0661730Y0454685D01*
X0661661Y0454702D01*
X0661591Y0454716D01*
X0661521Y0454725D01*
X0661450Y0454731D01*
X0661379Y0454733D01*
X0661308Y0454731D01*
X0661237Y0454725D01*
X0661167Y0454716D01*
X0661097Y0454702D01*
X0661028Y0454685D01*
X0660960Y0454664D01*
X0660894Y0454640D01*
X0660829Y0454612D01*
X0660765Y0454580D01*
X0660703Y0454545D01*
X0660643Y0454507D01*
X0660586Y0454466D01*
X0660530Y0454421D01*
X0660477Y0454374D01*
X0660427Y0454324D01*
X0660380Y0454271D01*
X0660335Y0454215D01*
X0660294Y0454158D01*
X0660256Y0454098D01*
X0660221Y0454036D01*
X0660189Y0453972D01*
X0660161Y0453907D01*
X0660137Y0453841D01*
X0660116Y0453773D01*
X0660099Y0453704D01*
X0660085Y0453634D01*
X0660076Y0453564D01*
X0660070Y0453493D01*
X0660068Y0453422D01*
X0657982Y0454078D02*
X0657982Y0454733D01*
X0656016Y0454733D01*
X0656016Y0450800D01*
X0653049Y0452111D02*
X0653049Y0453422D01*
X0653047Y0453493D01*
X0653041Y0453564D01*
X0653032Y0453634D01*
X0653018Y0453704D01*
X0653001Y0453773D01*
X0652980Y0453841D01*
X0652956Y0453907D01*
X0652928Y0453972D01*
X0652896Y0454036D01*
X0652861Y0454098D01*
X0652823Y0454158D01*
X0652782Y0454215D01*
X0652737Y0454271D01*
X0652690Y0454324D01*
X0652640Y0454374D01*
X0652587Y0454421D01*
X0652531Y0454466D01*
X0652474Y0454507D01*
X0652414Y0454545D01*
X0652352Y0454580D01*
X0652288Y0454612D01*
X0652223Y0454640D01*
X0652157Y0454664D01*
X0652089Y0454685D01*
X0652020Y0454702D01*
X0651950Y0454716D01*
X0651880Y0454725D01*
X0651809Y0454731D01*
X0651738Y0454733D01*
X0651667Y0454731D01*
X0651596Y0454725D01*
X0651526Y0454716D01*
X0651456Y0454702D01*
X0651387Y0454685D01*
X0651319Y0454664D01*
X0651253Y0454640D01*
X0651188Y0454612D01*
X0651124Y0454580D01*
X0651062Y0454545D01*
X0651002Y0454507D01*
X0650945Y0454466D01*
X0650889Y0454421D01*
X0650836Y0454374D01*
X0650786Y0454324D01*
X0650739Y0454271D01*
X0650694Y0454215D01*
X0650653Y0454158D01*
X0650615Y0454098D01*
X0650580Y0454036D01*
X0650548Y0453972D01*
X0650520Y0453907D01*
X0650496Y0453841D01*
X0650475Y0453773D01*
X0650458Y0453704D01*
X0650444Y0453634D01*
X0650435Y0453564D01*
X0650429Y0453493D01*
X0650427Y0453422D01*
X0650427Y0452111D01*
X0650429Y0452040D01*
X0650435Y0451969D01*
X0650444Y0451899D01*
X0650458Y0451829D01*
X0650475Y0451760D01*
X0650496Y0451692D01*
X0650520Y0451626D01*
X0650548Y0451561D01*
X0650580Y0451497D01*
X0650615Y0451435D01*
X0650653Y0451375D01*
X0650694Y0451318D01*
X0650739Y0451262D01*
X0650786Y0451209D01*
X0650836Y0451159D01*
X0650889Y0451112D01*
X0650945Y0451067D01*
X0651002Y0451026D01*
X0651062Y0450988D01*
X0651124Y0450953D01*
X0651188Y0450921D01*
X0651253Y0450893D01*
X0651319Y0450869D01*
X0651387Y0450848D01*
X0651456Y0450831D01*
X0651526Y0450817D01*
X0651596Y0450808D01*
X0651667Y0450802D01*
X0651738Y0450800D01*
X0651809Y0450802D01*
X0651880Y0450808D01*
X0651950Y0450817D01*
X0652020Y0450831D01*
X0652089Y0450848D01*
X0652157Y0450869D01*
X0652223Y0450893D01*
X0652288Y0450921D01*
X0652352Y0450953D01*
X0652414Y0450988D01*
X0652474Y0451026D01*
X0652531Y0451067D01*
X0652587Y0451112D01*
X0652640Y0451159D01*
X0652690Y0451209D01*
X0652737Y0451262D01*
X0652782Y0451318D01*
X0652823Y0451375D01*
X0652861Y0451435D01*
X0652896Y0451497D01*
X0652928Y0451561D01*
X0652956Y0451626D01*
X0652980Y0451692D01*
X0653001Y0451760D01*
X0653018Y0451829D01*
X0653032Y0451899D01*
X0653041Y0451969D01*
X0653047Y0452040D01*
X0653049Y0452111D01*
X0648014Y0450800D02*
X0646702Y0450800D01*
X0646640Y0450802D01*
X0646579Y0450808D01*
X0646518Y0450817D01*
X0646458Y0450831D01*
X0646398Y0450848D01*
X0646340Y0450869D01*
X0646283Y0450894D01*
X0646228Y0450922D01*
X0646175Y0450953D01*
X0646124Y0450988D01*
X0646075Y0451026D01*
X0646029Y0451066D01*
X0645985Y0451110D01*
X0645945Y0451156D01*
X0645907Y0451205D01*
X0645872Y0451256D01*
X0645841Y0451309D01*
X0645813Y0451364D01*
X0645788Y0451421D01*
X0645767Y0451479D01*
X0645750Y0451539D01*
X0645736Y0451599D01*
X0645727Y0451660D01*
X0645721Y0451721D01*
X0645719Y0451783D01*
X0645719Y0453750D01*
X0645721Y0453812D01*
X0645727Y0453873D01*
X0645736Y0453934D01*
X0645750Y0453994D01*
X0645767Y0454054D01*
X0645788Y0454112D01*
X0645813Y0454169D01*
X0645841Y0454224D01*
X0645872Y0454277D01*
X0645907Y0454328D01*
X0645945Y0454377D01*
X0645985Y0454423D01*
X0646029Y0454467D01*
X0646075Y0454507D01*
X0646124Y0454545D01*
X0646175Y0454580D01*
X0646228Y0454611D01*
X0646283Y0454639D01*
X0646340Y0454664D01*
X0646398Y0454685D01*
X0646458Y0454702D01*
X0646518Y0454716D01*
X0646579Y0454725D01*
X0646640Y0454731D01*
X0646702Y0454733D01*
X0648014Y0454733D01*
X0642506Y0452439D02*
X0640867Y0453094D01*
X0640866Y0453095D02*
X0640814Y0453118D01*
X0640763Y0453145D01*
X0640714Y0453175D01*
X0640667Y0453208D01*
X0640622Y0453244D01*
X0640580Y0453284D01*
X0640541Y0453326D01*
X0640505Y0453370D01*
X0640472Y0453417D01*
X0640442Y0453467D01*
X0640415Y0453518D01*
X0640392Y0453570D01*
X0640373Y0453624D01*
X0640357Y0453680D01*
X0640345Y0453736D01*
X0640337Y0453793D01*
X0640333Y0453850D01*
X0640332Y0453908D01*
X0640336Y0453965D01*
X0640343Y0454022D01*
X0640355Y0454079D01*
X0640370Y0454134D01*
X0640388Y0454189D01*
X0640411Y0454242D01*
X0640437Y0454293D01*
X0640466Y0454342D01*
X0640499Y0454390D01*
X0640535Y0454435D01*
X0640573Y0454477D01*
X0640615Y0454517D01*
X0640659Y0454554D01*
X0640706Y0454588D01*
X0640754Y0454619D01*
X0640805Y0454646D01*
X0640857Y0454670D01*
X0640911Y0454690D01*
X0640966Y0454706D01*
X0641022Y0454719D01*
X0641079Y0454728D01*
X0641137Y0454733D01*
X0641194Y0454734D01*
X0640375Y0451128D02*
X0640509Y0451082D01*
X0640644Y0451039D01*
X0640780Y0451000D01*
X0640917Y0450964D01*
X0641054Y0450932D01*
X0641193Y0450903D01*
X0641332Y0450877D01*
X0641472Y0450856D01*
X0641613Y0450837D01*
X0641753Y0450823D01*
X0641895Y0450812D01*
X0642036Y0450804D01*
X0642178Y0450801D01*
X0642178Y0450800D02*
X0642235Y0450801D01*
X0642293Y0450806D01*
X0642350Y0450815D01*
X0642406Y0450828D01*
X0642461Y0450844D01*
X0642515Y0450864D01*
X0642567Y0450888D01*
X0642618Y0450915D01*
X0642666Y0450946D01*
X0642713Y0450980D01*
X0642757Y0451017D01*
X0642799Y0451057D01*
X0642837Y0451099D01*
X0642873Y0451144D01*
X0642906Y0451192D01*
X0642935Y0451241D01*
X0642961Y0451292D01*
X0642984Y0451345D01*
X0643002Y0451400D01*
X0643017Y0451455D01*
X0643029Y0451512D01*
X0643036Y0451569D01*
X0643040Y0451626D01*
X0643039Y0451684D01*
X0643035Y0451741D01*
X0643027Y0451798D01*
X0643015Y0451854D01*
X0642999Y0451910D01*
X0642980Y0451964D01*
X0642957Y0452016D01*
X0642930Y0452067D01*
X0642900Y0452117D01*
X0642867Y0452164D01*
X0642831Y0452208D01*
X0642792Y0452250D01*
X0642750Y0452290D01*
X0642705Y0452326D01*
X0642658Y0452359D01*
X0642609Y0452389D01*
X0642558Y0452416D01*
X0642506Y0452439D01*
X0642669Y0454405D02*
X0642562Y0454451D01*
X0642453Y0454494D01*
X0642343Y0454534D01*
X0642231Y0454570D01*
X0642119Y0454602D01*
X0642005Y0454631D01*
X0641891Y0454657D01*
X0641776Y0454678D01*
X0641661Y0454697D01*
X0641544Y0454711D01*
X0641428Y0454722D01*
X0641311Y0454729D01*
X0641194Y0454733D01*
X0637499Y0453094D02*
X0633566Y0453094D01*
X0630894Y0454733D02*
X0629583Y0450800D01*
X0628272Y0454733D01*
X0560690Y0453422D02*
X0560690Y0452767D01*
X0558068Y0452767D01*
X0558068Y0453422D02*
X0558068Y0451783D01*
X0558070Y0451721D01*
X0558076Y0451660D01*
X0558085Y0451599D01*
X0558099Y0451539D01*
X0558116Y0451479D01*
X0558137Y0451421D01*
X0558162Y0451364D01*
X0558190Y0451309D01*
X0558221Y0451256D01*
X0558256Y0451205D01*
X0558294Y0451156D01*
X0558334Y0451110D01*
X0558378Y0451066D01*
X0558424Y0451026D01*
X0558473Y0450988D01*
X0558524Y0450953D01*
X0558577Y0450922D01*
X0558632Y0450894D01*
X0558689Y0450869D01*
X0558747Y0450848D01*
X0558807Y0450831D01*
X0558867Y0450817D01*
X0558928Y0450808D01*
X0558989Y0450802D01*
X0559051Y0450800D01*
X0560690Y0450800D01*
X0560690Y0453422D02*
X0560688Y0453493D01*
X0560682Y0453564D01*
X0560673Y0453634D01*
X0560659Y0453704D01*
X0560642Y0453773D01*
X0560621Y0453841D01*
X0560597Y0453907D01*
X0560569Y0453972D01*
X0560537Y0454036D01*
X0560502Y0454098D01*
X0560464Y0454158D01*
X0560423Y0454215D01*
X0560378Y0454271D01*
X0560331Y0454324D01*
X0560281Y0454374D01*
X0560228Y0454421D01*
X0560172Y0454466D01*
X0560115Y0454507D01*
X0560055Y0454545D01*
X0559993Y0454580D01*
X0559929Y0454612D01*
X0559864Y0454640D01*
X0559798Y0454664D01*
X0559730Y0454685D01*
X0559661Y0454702D01*
X0559591Y0454716D01*
X0559521Y0454725D01*
X0559450Y0454731D01*
X0559379Y0454733D01*
X0559308Y0454731D01*
X0559237Y0454725D01*
X0559167Y0454716D01*
X0559097Y0454702D01*
X0559028Y0454685D01*
X0558960Y0454664D01*
X0558894Y0454640D01*
X0558829Y0454612D01*
X0558765Y0454580D01*
X0558703Y0454545D01*
X0558643Y0454507D01*
X0558586Y0454466D01*
X0558530Y0454421D01*
X0558477Y0454374D01*
X0558427Y0454324D01*
X0558380Y0454271D01*
X0558335Y0454215D01*
X0558294Y0454158D01*
X0558256Y0454098D01*
X0558221Y0454036D01*
X0558189Y0453972D01*
X0558161Y0453907D01*
X0558137Y0453841D01*
X0558116Y0453773D01*
X0558099Y0453704D01*
X0558085Y0453634D01*
X0558076Y0453564D01*
X0558070Y0453493D01*
X0558068Y0453422D01*
X0555982Y0454078D02*
X0555982Y0454733D01*
X0554016Y0454733D01*
X0554016Y0450800D01*
X0551049Y0452111D02*
X0551049Y0453422D01*
X0551047Y0453493D01*
X0551041Y0453564D01*
X0551032Y0453634D01*
X0551018Y0453704D01*
X0551001Y0453773D01*
X0550980Y0453841D01*
X0550956Y0453907D01*
X0550928Y0453972D01*
X0550896Y0454036D01*
X0550861Y0454098D01*
X0550823Y0454158D01*
X0550782Y0454215D01*
X0550737Y0454271D01*
X0550690Y0454324D01*
X0550640Y0454374D01*
X0550587Y0454421D01*
X0550531Y0454466D01*
X0550474Y0454507D01*
X0550414Y0454545D01*
X0550352Y0454580D01*
X0550288Y0454612D01*
X0550223Y0454640D01*
X0550157Y0454664D01*
X0550089Y0454685D01*
X0550020Y0454702D01*
X0549950Y0454716D01*
X0549880Y0454725D01*
X0549809Y0454731D01*
X0549738Y0454733D01*
X0549667Y0454731D01*
X0549596Y0454725D01*
X0549526Y0454716D01*
X0549456Y0454702D01*
X0549387Y0454685D01*
X0549319Y0454664D01*
X0549253Y0454640D01*
X0549188Y0454612D01*
X0549124Y0454580D01*
X0549062Y0454545D01*
X0549002Y0454507D01*
X0548945Y0454466D01*
X0548889Y0454421D01*
X0548836Y0454374D01*
X0548786Y0454324D01*
X0548739Y0454271D01*
X0548694Y0454215D01*
X0548653Y0454158D01*
X0548615Y0454098D01*
X0548580Y0454036D01*
X0548548Y0453972D01*
X0548520Y0453907D01*
X0548496Y0453841D01*
X0548475Y0453773D01*
X0548458Y0453704D01*
X0548444Y0453634D01*
X0548435Y0453564D01*
X0548429Y0453493D01*
X0548427Y0453422D01*
X0548427Y0452111D01*
X0548429Y0452040D01*
X0548435Y0451969D01*
X0548444Y0451899D01*
X0548458Y0451829D01*
X0548475Y0451760D01*
X0548496Y0451692D01*
X0548520Y0451626D01*
X0548548Y0451561D01*
X0548580Y0451497D01*
X0548615Y0451435D01*
X0548653Y0451375D01*
X0548694Y0451318D01*
X0548739Y0451262D01*
X0548786Y0451209D01*
X0548836Y0451159D01*
X0548889Y0451112D01*
X0548945Y0451067D01*
X0549002Y0451026D01*
X0549062Y0450988D01*
X0549124Y0450953D01*
X0549188Y0450921D01*
X0549253Y0450893D01*
X0549319Y0450869D01*
X0549387Y0450848D01*
X0549456Y0450831D01*
X0549526Y0450817D01*
X0549596Y0450808D01*
X0549667Y0450802D01*
X0549738Y0450800D01*
X0549809Y0450802D01*
X0549880Y0450808D01*
X0549950Y0450817D01*
X0550020Y0450831D01*
X0550089Y0450848D01*
X0550157Y0450869D01*
X0550223Y0450893D01*
X0550288Y0450921D01*
X0550352Y0450953D01*
X0550414Y0450988D01*
X0550474Y0451026D01*
X0550531Y0451067D01*
X0550587Y0451112D01*
X0550640Y0451159D01*
X0550690Y0451209D01*
X0550737Y0451262D01*
X0550782Y0451318D01*
X0550823Y0451375D01*
X0550861Y0451435D01*
X0550896Y0451497D01*
X0550928Y0451561D01*
X0550956Y0451626D01*
X0550980Y0451692D01*
X0551001Y0451760D01*
X0551018Y0451829D01*
X0551032Y0451899D01*
X0551041Y0451969D01*
X0551047Y0452040D01*
X0551049Y0452111D01*
X0546014Y0450800D02*
X0544702Y0450800D01*
X0544640Y0450802D01*
X0544579Y0450808D01*
X0544518Y0450817D01*
X0544458Y0450831D01*
X0544398Y0450848D01*
X0544340Y0450869D01*
X0544283Y0450894D01*
X0544228Y0450922D01*
X0544175Y0450953D01*
X0544124Y0450988D01*
X0544075Y0451026D01*
X0544029Y0451066D01*
X0543985Y0451110D01*
X0543945Y0451156D01*
X0543907Y0451205D01*
X0543872Y0451256D01*
X0543841Y0451309D01*
X0543813Y0451364D01*
X0543788Y0451421D01*
X0543767Y0451479D01*
X0543750Y0451539D01*
X0543736Y0451599D01*
X0543727Y0451660D01*
X0543721Y0451721D01*
X0543719Y0451783D01*
X0543719Y0453750D01*
X0543721Y0453812D01*
X0543727Y0453873D01*
X0543736Y0453934D01*
X0543750Y0453994D01*
X0543767Y0454054D01*
X0543788Y0454112D01*
X0543813Y0454169D01*
X0543841Y0454224D01*
X0543872Y0454277D01*
X0543907Y0454328D01*
X0543945Y0454377D01*
X0543985Y0454423D01*
X0544029Y0454467D01*
X0544075Y0454507D01*
X0544124Y0454545D01*
X0544175Y0454580D01*
X0544228Y0454611D01*
X0544283Y0454639D01*
X0544340Y0454664D01*
X0544398Y0454685D01*
X0544458Y0454702D01*
X0544518Y0454716D01*
X0544579Y0454725D01*
X0544640Y0454731D01*
X0544702Y0454733D01*
X0546014Y0454733D01*
X0540506Y0452439D02*
X0538867Y0453094D01*
X0538866Y0453095D02*
X0538814Y0453118D01*
X0538763Y0453145D01*
X0538714Y0453175D01*
X0538667Y0453208D01*
X0538622Y0453244D01*
X0538580Y0453284D01*
X0538541Y0453326D01*
X0538505Y0453370D01*
X0538472Y0453417D01*
X0538442Y0453467D01*
X0538415Y0453518D01*
X0538392Y0453570D01*
X0538373Y0453624D01*
X0538357Y0453680D01*
X0538345Y0453736D01*
X0538337Y0453793D01*
X0538333Y0453850D01*
X0538332Y0453908D01*
X0538336Y0453965D01*
X0538343Y0454022D01*
X0538355Y0454079D01*
X0538370Y0454134D01*
X0538388Y0454189D01*
X0538411Y0454242D01*
X0538437Y0454293D01*
X0538466Y0454342D01*
X0538499Y0454390D01*
X0538535Y0454435D01*
X0538573Y0454477D01*
X0538615Y0454517D01*
X0538659Y0454554D01*
X0538706Y0454588D01*
X0538754Y0454619D01*
X0538805Y0454646D01*
X0538857Y0454670D01*
X0538911Y0454690D01*
X0538966Y0454706D01*
X0539022Y0454719D01*
X0539079Y0454728D01*
X0539137Y0454733D01*
X0539194Y0454734D01*
X0538375Y0451128D02*
X0538509Y0451082D01*
X0538644Y0451039D01*
X0538780Y0451000D01*
X0538917Y0450964D01*
X0539054Y0450932D01*
X0539193Y0450903D01*
X0539332Y0450877D01*
X0539472Y0450856D01*
X0539613Y0450837D01*
X0539753Y0450823D01*
X0539895Y0450812D01*
X0540036Y0450804D01*
X0540178Y0450801D01*
X0540178Y0450800D02*
X0540235Y0450801D01*
X0540293Y0450806D01*
X0540350Y0450815D01*
X0540406Y0450828D01*
X0540461Y0450844D01*
X0540515Y0450864D01*
X0540567Y0450888D01*
X0540618Y0450915D01*
X0540666Y0450946D01*
X0540713Y0450980D01*
X0540757Y0451017D01*
X0540799Y0451057D01*
X0540837Y0451099D01*
X0540873Y0451144D01*
X0540906Y0451192D01*
X0540935Y0451241D01*
X0540961Y0451292D01*
X0540984Y0451345D01*
X0541002Y0451400D01*
X0541017Y0451455D01*
X0541029Y0451512D01*
X0541036Y0451569D01*
X0541040Y0451626D01*
X0541039Y0451684D01*
X0541035Y0451741D01*
X0541027Y0451798D01*
X0541015Y0451854D01*
X0540999Y0451910D01*
X0540980Y0451964D01*
X0540957Y0452016D01*
X0540930Y0452067D01*
X0540900Y0452117D01*
X0540867Y0452164D01*
X0540831Y0452208D01*
X0540792Y0452250D01*
X0540750Y0452290D01*
X0540705Y0452326D01*
X0540658Y0452359D01*
X0540609Y0452389D01*
X0540558Y0452416D01*
X0540506Y0452439D01*
X0540669Y0454405D02*
X0540562Y0454451D01*
X0540453Y0454494D01*
X0540343Y0454534D01*
X0540231Y0454570D01*
X0540119Y0454602D01*
X0540005Y0454631D01*
X0539891Y0454657D01*
X0539776Y0454678D01*
X0539661Y0454697D01*
X0539544Y0454711D01*
X0539428Y0454722D01*
X0539311Y0454729D01*
X0539194Y0454733D01*
X0535499Y0453094D02*
X0531566Y0453094D01*
X0528894Y0454733D02*
X0527583Y0450800D01*
X0526272Y0454733D01*
X0458690Y0453422D02*
X0458690Y0452767D01*
X0456068Y0452767D01*
X0456068Y0453422D02*
X0456068Y0451783D01*
X0456070Y0451721D01*
X0456076Y0451660D01*
X0456085Y0451599D01*
X0456099Y0451539D01*
X0456116Y0451479D01*
X0456137Y0451421D01*
X0456162Y0451364D01*
X0456190Y0451309D01*
X0456221Y0451256D01*
X0456256Y0451205D01*
X0456294Y0451156D01*
X0456334Y0451110D01*
X0456378Y0451066D01*
X0456424Y0451026D01*
X0456473Y0450988D01*
X0456524Y0450953D01*
X0456577Y0450922D01*
X0456632Y0450894D01*
X0456689Y0450869D01*
X0456747Y0450848D01*
X0456807Y0450831D01*
X0456867Y0450817D01*
X0456928Y0450808D01*
X0456989Y0450802D01*
X0457051Y0450800D01*
X0458690Y0450800D01*
X0458690Y0453422D02*
X0458688Y0453493D01*
X0458682Y0453564D01*
X0458673Y0453634D01*
X0458659Y0453704D01*
X0458642Y0453773D01*
X0458621Y0453841D01*
X0458597Y0453907D01*
X0458569Y0453972D01*
X0458537Y0454036D01*
X0458502Y0454098D01*
X0458464Y0454158D01*
X0458423Y0454215D01*
X0458378Y0454271D01*
X0458331Y0454324D01*
X0458281Y0454374D01*
X0458228Y0454421D01*
X0458172Y0454466D01*
X0458115Y0454507D01*
X0458055Y0454545D01*
X0457993Y0454580D01*
X0457929Y0454612D01*
X0457864Y0454640D01*
X0457798Y0454664D01*
X0457730Y0454685D01*
X0457661Y0454702D01*
X0457591Y0454716D01*
X0457521Y0454725D01*
X0457450Y0454731D01*
X0457379Y0454733D01*
X0457308Y0454731D01*
X0457237Y0454725D01*
X0457167Y0454716D01*
X0457097Y0454702D01*
X0457028Y0454685D01*
X0456960Y0454664D01*
X0456894Y0454640D01*
X0456829Y0454612D01*
X0456765Y0454580D01*
X0456703Y0454545D01*
X0456643Y0454507D01*
X0456586Y0454466D01*
X0456530Y0454421D01*
X0456477Y0454374D01*
X0456427Y0454324D01*
X0456380Y0454271D01*
X0456335Y0454215D01*
X0456294Y0454158D01*
X0456256Y0454098D01*
X0456221Y0454036D01*
X0456189Y0453972D01*
X0456161Y0453907D01*
X0456137Y0453841D01*
X0456116Y0453773D01*
X0456099Y0453704D01*
X0456085Y0453634D01*
X0456076Y0453564D01*
X0456070Y0453493D01*
X0456068Y0453422D01*
X0453982Y0454078D02*
X0453982Y0454733D01*
X0452016Y0454733D01*
X0452016Y0450800D01*
X0449049Y0452111D02*
X0449049Y0453422D01*
X0449047Y0453493D01*
X0449041Y0453564D01*
X0449032Y0453634D01*
X0449018Y0453704D01*
X0449001Y0453773D01*
X0448980Y0453841D01*
X0448956Y0453907D01*
X0448928Y0453972D01*
X0448896Y0454036D01*
X0448861Y0454098D01*
X0448823Y0454158D01*
X0448782Y0454215D01*
X0448737Y0454271D01*
X0448690Y0454324D01*
X0448640Y0454374D01*
X0448587Y0454421D01*
X0448531Y0454466D01*
X0448474Y0454507D01*
X0448414Y0454545D01*
X0448352Y0454580D01*
X0448288Y0454612D01*
X0448223Y0454640D01*
X0448157Y0454664D01*
X0448089Y0454685D01*
X0448020Y0454702D01*
X0447950Y0454716D01*
X0447880Y0454725D01*
X0447809Y0454731D01*
X0447738Y0454733D01*
X0447667Y0454731D01*
X0447596Y0454725D01*
X0447526Y0454716D01*
X0447456Y0454702D01*
X0447387Y0454685D01*
X0447319Y0454664D01*
X0447253Y0454640D01*
X0447188Y0454612D01*
X0447124Y0454580D01*
X0447062Y0454545D01*
X0447002Y0454507D01*
X0446945Y0454466D01*
X0446889Y0454421D01*
X0446836Y0454374D01*
X0446786Y0454324D01*
X0446739Y0454271D01*
X0446694Y0454215D01*
X0446653Y0454158D01*
X0446615Y0454098D01*
X0446580Y0454036D01*
X0446548Y0453972D01*
X0446520Y0453907D01*
X0446496Y0453841D01*
X0446475Y0453773D01*
X0446458Y0453704D01*
X0446444Y0453634D01*
X0446435Y0453564D01*
X0446429Y0453493D01*
X0446427Y0453422D01*
X0446427Y0452111D01*
X0446429Y0452040D01*
X0446435Y0451969D01*
X0446444Y0451899D01*
X0446458Y0451829D01*
X0446475Y0451760D01*
X0446496Y0451692D01*
X0446520Y0451626D01*
X0446548Y0451561D01*
X0446580Y0451497D01*
X0446615Y0451435D01*
X0446653Y0451375D01*
X0446694Y0451318D01*
X0446739Y0451262D01*
X0446786Y0451209D01*
X0446836Y0451159D01*
X0446889Y0451112D01*
X0446945Y0451067D01*
X0447002Y0451026D01*
X0447062Y0450988D01*
X0447124Y0450953D01*
X0447188Y0450921D01*
X0447253Y0450893D01*
X0447319Y0450869D01*
X0447387Y0450848D01*
X0447456Y0450831D01*
X0447526Y0450817D01*
X0447596Y0450808D01*
X0447667Y0450802D01*
X0447738Y0450800D01*
X0447809Y0450802D01*
X0447880Y0450808D01*
X0447950Y0450817D01*
X0448020Y0450831D01*
X0448089Y0450848D01*
X0448157Y0450869D01*
X0448223Y0450893D01*
X0448288Y0450921D01*
X0448352Y0450953D01*
X0448414Y0450988D01*
X0448474Y0451026D01*
X0448531Y0451067D01*
X0448587Y0451112D01*
X0448640Y0451159D01*
X0448690Y0451209D01*
X0448737Y0451262D01*
X0448782Y0451318D01*
X0448823Y0451375D01*
X0448861Y0451435D01*
X0448896Y0451497D01*
X0448928Y0451561D01*
X0448956Y0451626D01*
X0448980Y0451692D01*
X0449001Y0451760D01*
X0449018Y0451829D01*
X0449032Y0451899D01*
X0449041Y0451969D01*
X0449047Y0452040D01*
X0449049Y0452111D01*
X0444014Y0450800D02*
X0442702Y0450800D01*
X0442640Y0450802D01*
X0442579Y0450808D01*
X0442518Y0450817D01*
X0442458Y0450831D01*
X0442398Y0450848D01*
X0442340Y0450869D01*
X0442283Y0450894D01*
X0442228Y0450922D01*
X0442175Y0450953D01*
X0442124Y0450988D01*
X0442075Y0451026D01*
X0442029Y0451066D01*
X0441985Y0451110D01*
X0441945Y0451156D01*
X0441907Y0451205D01*
X0441872Y0451256D01*
X0441841Y0451309D01*
X0441813Y0451364D01*
X0441788Y0451421D01*
X0441767Y0451479D01*
X0441750Y0451539D01*
X0441736Y0451599D01*
X0441727Y0451660D01*
X0441721Y0451721D01*
X0441719Y0451783D01*
X0441719Y0453750D01*
X0441721Y0453812D01*
X0441727Y0453873D01*
X0441736Y0453934D01*
X0441750Y0453994D01*
X0441767Y0454054D01*
X0441788Y0454112D01*
X0441813Y0454169D01*
X0441841Y0454224D01*
X0441872Y0454277D01*
X0441907Y0454328D01*
X0441945Y0454377D01*
X0441985Y0454423D01*
X0442029Y0454467D01*
X0442075Y0454507D01*
X0442124Y0454545D01*
X0442175Y0454580D01*
X0442228Y0454611D01*
X0442283Y0454639D01*
X0442340Y0454664D01*
X0442398Y0454685D01*
X0442458Y0454702D01*
X0442518Y0454716D01*
X0442579Y0454725D01*
X0442640Y0454731D01*
X0442702Y0454733D01*
X0444014Y0454733D01*
X0438506Y0452439D02*
X0436867Y0453094D01*
X0436866Y0453095D02*
X0436814Y0453118D01*
X0436763Y0453145D01*
X0436714Y0453175D01*
X0436667Y0453208D01*
X0436622Y0453244D01*
X0436580Y0453284D01*
X0436541Y0453326D01*
X0436505Y0453370D01*
X0436472Y0453417D01*
X0436442Y0453467D01*
X0436415Y0453518D01*
X0436392Y0453570D01*
X0436373Y0453624D01*
X0436357Y0453680D01*
X0436345Y0453736D01*
X0436337Y0453793D01*
X0436333Y0453850D01*
X0436332Y0453908D01*
X0436336Y0453965D01*
X0436343Y0454022D01*
X0436355Y0454079D01*
X0436370Y0454134D01*
X0436388Y0454189D01*
X0436411Y0454242D01*
X0436437Y0454293D01*
X0436466Y0454342D01*
X0436499Y0454390D01*
X0436535Y0454435D01*
X0436573Y0454477D01*
X0436615Y0454517D01*
X0436659Y0454554D01*
X0436706Y0454588D01*
X0436754Y0454619D01*
X0436805Y0454646D01*
X0436857Y0454670D01*
X0436911Y0454690D01*
X0436966Y0454706D01*
X0437022Y0454719D01*
X0437079Y0454728D01*
X0437137Y0454733D01*
X0437194Y0454734D01*
X0436375Y0451128D02*
X0436509Y0451082D01*
X0436644Y0451039D01*
X0436780Y0451000D01*
X0436917Y0450964D01*
X0437054Y0450932D01*
X0437193Y0450903D01*
X0437332Y0450877D01*
X0437472Y0450856D01*
X0437613Y0450837D01*
X0437753Y0450823D01*
X0437895Y0450812D01*
X0438036Y0450804D01*
X0438178Y0450801D01*
X0438178Y0450800D02*
X0438235Y0450801D01*
X0438293Y0450806D01*
X0438350Y0450815D01*
X0438406Y0450828D01*
X0438461Y0450844D01*
X0438515Y0450864D01*
X0438567Y0450888D01*
X0438618Y0450915D01*
X0438666Y0450946D01*
X0438713Y0450980D01*
X0438757Y0451017D01*
X0438799Y0451057D01*
X0438837Y0451099D01*
X0438873Y0451144D01*
X0438906Y0451192D01*
X0438935Y0451241D01*
X0438961Y0451292D01*
X0438984Y0451345D01*
X0439002Y0451400D01*
X0439017Y0451455D01*
X0439029Y0451512D01*
X0439036Y0451569D01*
X0439040Y0451626D01*
X0439039Y0451684D01*
X0439035Y0451741D01*
X0439027Y0451798D01*
X0439015Y0451854D01*
X0438999Y0451910D01*
X0438980Y0451964D01*
X0438957Y0452016D01*
X0438930Y0452067D01*
X0438900Y0452117D01*
X0438867Y0452164D01*
X0438831Y0452208D01*
X0438792Y0452250D01*
X0438750Y0452290D01*
X0438705Y0452326D01*
X0438658Y0452359D01*
X0438609Y0452389D01*
X0438558Y0452416D01*
X0438506Y0452439D01*
X0438669Y0454405D02*
X0438562Y0454451D01*
X0438453Y0454494D01*
X0438343Y0454534D01*
X0438231Y0454570D01*
X0438119Y0454602D01*
X0438005Y0454631D01*
X0437891Y0454657D01*
X0437776Y0454678D01*
X0437661Y0454697D01*
X0437544Y0454711D01*
X0437428Y0454722D01*
X0437311Y0454729D01*
X0437194Y0454733D01*
X0433499Y0453094D02*
X0429566Y0453094D01*
X0426894Y0454733D02*
X0425583Y0450800D01*
X0424272Y0454733D01*
X0356690Y0453422D02*
X0356690Y0452767D01*
X0354068Y0452767D01*
X0354068Y0453422D02*
X0354068Y0451783D01*
X0354070Y0451721D01*
X0354076Y0451660D01*
X0354085Y0451599D01*
X0354099Y0451539D01*
X0354116Y0451479D01*
X0354137Y0451421D01*
X0354162Y0451364D01*
X0354190Y0451309D01*
X0354221Y0451256D01*
X0354256Y0451205D01*
X0354294Y0451156D01*
X0354334Y0451110D01*
X0354378Y0451066D01*
X0354424Y0451026D01*
X0354473Y0450988D01*
X0354524Y0450953D01*
X0354577Y0450922D01*
X0354632Y0450894D01*
X0354689Y0450869D01*
X0354747Y0450848D01*
X0354807Y0450831D01*
X0354867Y0450817D01*
X0354928Y0450808D01*
X0354989Y0450802D01*
X0355051Y0450800D01*
X0356690Y0450800D01*
X0356690Y0453422D02*
X0356688Y0453493D01*
X0356682Y0453564D01*
X0356673Y0453634D01*
X0356659Y0453704D01*
X0356642Y0453773D01*
X0356621Y0453841D01*
X0356597Y0453907D01*
X0356569Y0453972D01*
X0356537Y0454036D01*
X0356502Y0454098D01*
X0356464Y0454158D01*
X0356423Y0454215D01*
X0356378Y0454271D01*
X0356331Y0454324D01*
X0356281Y0454374D01*
X0356228Y0454421D01*
X0356172Y0454466D01*
X0356115Y0454507D01*
X0356055Y0454545D01*
X0355993Y0454580D01*
X0355929Y0454612D01*
X0355864Y0454640D01*
X0355798Y0454664D01*
X0355730Y0454685D01*
X0355661Y0454702D01*
X0355591Y0454716D01*
X0355521Y0454725D01*
X0355450Y0454731D01*
X0355379Y0454733D01*
X0355308Y0454731D01*
X0355237Y0454725D01*
X0355167Y0454716D01*
X0355097Y0454702D01*
X0355028Y0454685D01*
X0354960Y0454664D01*
X0354894Y0454640D01*
X0354829Y0454612D01*
X0354765Y0454580D01*
X0354703Y0454545D01*
X0354643Y0454507D01*
X0354586Y0454466D01*
X0354530Y0454421D01*
X0354477Y0454374D01*
X0354427Y0454324D01*
X0354380Y0454271D01*
X0354335Y0454215D01*
X0354294Y0454158D01*
X0354256Y0454098D01*
X0354221Y0454036D01*
X0354189Y0453972D01*
X0354161Y0453907D01*
X0354137Y0453841D01*
X0354116Y0453773D01*
X0354099Y0453704D01*
X0354085Y0453634D01*
X0354076Y0453564D01*
X0354070Y0453493D01*
X0354068Y0453422D01*
X0351982Y0454078D02*
X0351982Y0454733D01*
X0350016Y0454733D01*
X0350016Y0450800D01*
X0347049Y0452111D02*
X0347049Y0453422D01*
X0347047Y0453493D01*
X0347041Y0453564D01*
X0347032Y0453634D01*
X0347018Y0453704D01*
X0347001Y0453773D01*
X0346980Y0453841D01*
X0346956Y0453907D01*
X0346928Y0453972D01*
X0346896Y0454036D01*
X0346861Y0454098D01*
X0346823Y0454158D01*
X0346782Y0454215D01*
X0346737Y0454271D01*
X0346690Y0454324D01*
X0346640Y0454374D01*
X0346587Y0454421D01*
X0346531Y0454466D01*
X0346474Y0454507D01*
X0346414Y0454545D01*
X0346352Y0454580D01*
X0346288Y0454612D01*
X0346223Y0454640D01*
X0346157Y0454664D01*
X0346089Y0454685D01*
X0346020Y0454702D01*
X0345950Y0454716D01*
X0345880Y0454725D01*
X0345809Y0454731D01*
X0345738Y0454733D01*
X0345667Y0454731D01*
X0345596Y0454725D01*
X0345526Y0454716D01*
X0345456Y0454702D01*
X0345387Y0454685D01*
X0345319Y0454664D01*
X0345253Y0454640D01*
X0345188Y0454612D01*
X0345124Y0454580D01*
X0345062Y0454545D01*
X0345002Y0454507D01*
X0344945Y0454466D01*
X0344889Y0454421D01*
X0344836Y0454374D01*
X0344786Y0454324D01*
X0344739Y0454271D01*
X0344694Y0454215D01*
X0344653Y0454158D01*
X0344615Y0454098D01*
X0344580Y0454036D01*
X0344548Y0453972D01*
X0344520Y0453907D01*
X0344496Y0453841D01*
X0344475Y0453773D01*
X0344458Y0453704D01*
X0344444Y0453634D01*
X0344435Y0453564D01*
X0344429Y0453493D01*
X0344427Y0453422D01*
X0344427Y0452111D01*
X0344429Y0452040D01*
X0344435Y0451969D01*
X0344444Y0451899D01*
X0344458Y0451829D01*
X0344475Y0451760D01*
X0344496Y0451692D01*
X0344520Y0451626D01*
X0344548Y0451561D01*
X0344580Y0451497D01*
X0344615Y0451435D01*
X0344653Y0451375D01*
X0344694Y0451318D01*
X0344739Y0451262D01*
X0344786Y0451209D01*
X0344836Y0451159D01*
X0344889Y0451112D01*
X0344945Y0451067D01*
X0345002Y0451026D01*
X0345062Y0450988D01*
X0345124Y0450953D01*
X0345188Y0450921D01*
X0345253Y0450893D01*
X0345319Y0450869D01*
X0345387Y0450848D01*
X0345456Y0450831D01*
X0345526Y0450817D01*
X0345596Y0450808D01*
X0345667Y0450802D01*
X0345738Y0450800D01*
X0345809Y0450802D01*
X0345880Y0450808D01*
X0345950Y0450817D01*
X0346020Y0450831D01*
X0346089Y0450848D01*
X0346157Y0450869D01*
X0346223Y0450893D01*
X0346288Y0450921D01*
X0346352Y0450953D01*
X0346414Y0450988D01*
X0346474Y0451026D01*
X0346531Y0451067D01*
X0346587Y0451112D01*
X0346640Y0451159D01*
X0346690Y0451209D01*
X0346737Y0451262D01*
X0346782Y0451318D01*
X0346823Y0451375D01*
X0346861Y0451435D01*
X0346896Y0451497D01*
X0346928Y0451561D01*
X0346956Y0451626D01*
X0346980Y0451692D01*
X0347001Y0451760D01*
X0347018Y0451829D01*
X0347032Y0451899D01*
X0347041Y0451969D01*
X0347047Y0452040D01*
X0347049Y0452111D01*
X0342014Y0450800D02*
X0340702Y0450800D01*
X0340640Y0450802D01*
X0340579Y0450808D01*
X0340518Y0450817D01*
X0340458Y0450831D01*
X0340398Y0450848D01*
X0340340Y0450869D01*
X0340283Y0450894D01*
X0340228Y0450922D01*
X0340175Y0450953D01*
X0340124Y0450988D01*
X0340075Y0451026D01*
X0340029Y0451066D01*
X0339985Y0451110D01*
X0339945Y0451156D01*
X0339907Y0451205D01*
X0339872Y0451256D01*
X0339841Y0451309D01*
X0339813Y0451364D01*
X0339788Y0451421D01*
X0339767Y0451479D01*
X0339750Y0451539D01*
X0339736Y0451599D01*
X0339727Y0451660D01*
X0339721Y0451721D01*
X0339719Y0451783D01*
X0339719Y0453750D01*
X0339721Y0453812D01*
X0339727Y0453873D01*
X0339736Y0453934D01*
X0339750Y0453994D01*
X0339767Y0454054D01*
X0339788Y0454112D01*
X0339813Y0454169D01*
X0339841Y0454224D01*
X0339872Y0454277D01*
X0339907Y0454328D01*
X0339945Y0454377D01*
X0339985Y0454423D01*
X0340029Y0454467D01*
X0340075Y0454507D01*
X0340124Y0454545D01*
X0340175Y0454580D01*
X0340228Y0454611D01*
X0340283Y0454639D01*
X0340340Y0454664D01*
X0340398Y0454685D01*
X0340458Y0454702D01*
X0340518Y0454716D01*
X0340579Y0454725D01*
X0340640Y0454731D01*
X0340702Y0454733D01*
X0342014Y0454733D01*
X0336506Y0452439D02*
X0334867Y0453094D01*
X0334866Y0453095D02*
X0334814Y0453118D01*
X0334763Y0453145D01*
X0334714Y0453175D01*
X0334667Y0453208D01*
X0334622Y0453244D01*
X0334580Y0453284D01*
X0334541Y0453326D01*
X0334505Y0453370D01*
X0334472Y0453417D01*
X0334442Y0453467D01*
X0334415Y0453518D01*
X0334392Y0453570D01*
X0334373Y0453624D01*
X0334357Y0453680D01*
X0334345Y0453736D01*
X0334337Y0453793D01*
X0334333Y0453850D01*
X0334332Y0453908D01*
X0334336Y0453965D01*
X0334343Y0454022D01*
X0334355Y0454079D01*
X0334370Y0454134D01*
X0334388Y0454189D01*
X0334411Y0454242D01*
X0334437Y0454293D01*
X0334466Y0454342D01*
X0334499Y0454390D01*
X0334535Y0454435D01*
X0334573Y0454477D01*
X0334615Y0454517D01*
X0334659Y0454554D01*
X0334706Y0454588D01*
X0334754Y0454619D01*
X0334805Y0454646D01*
X0334857Y0454670D01*
X0334911Y0454690D01*
X0334966Y0454706D01*
X0335022Y0454719D01*
X0335079Y0454728D01*
X0335137Y0454733D01*
X0335194Y0454734D01*
X0334375Y0451128D02*
X0334509Y0451082D01*
X0334644Y0451039D01*
X0334780Y0451000D01*
X0334917Y0450964D01*
X0335054Y0450932D01*
X0335193Y0450903D01*
X0335332Y0450877D01*
X0335472Y0450856D01*
X0335613Y0450837D01*
X0335753Y0450823D01*
X0335895Y0450812D01*
X0336036Y0450804D01*
X0336178Y0450801D01*
X0336178Y0450800D02*
X0336235Y0450801D01*
X0336293Y0450806D01*
X0336350Y0450815D01*
X0336406Y0450828D01*
X0336461Y0450844D01*
X0336515Y0450864D01*
X0336567Y0450888D01*
X0336618Y0450915D01*
X0336666Y0450946D01*
X0336713Y0450980D01*
X0336757Y0451017D01*
X0336799Y0451057D01*
X0336837Y0451099D01*
X0336873Y0451144D01*
X0336906Y0451192D01*
X0336935Y0451241D01*
X0336961Y0451292D01*
X0336984Y0451345D01*
X0337002Y0451400D01*
X0337017Y0451455D01*
X0337029Y0451512D01*
X0337036Y0451569D01*
X0337040Y0451626D01*
X0337039Y0451684D01*
X0337035Y0451741D01*
X0337027Y0451798D01*
X0337015Y0451854D01*
X0336999Y0451910D01*
X0336980Y0451964D01*
X0336957Y0452016D01*
X0336930Y0452067D01*
X0336900Y0452117D01*
X0336867Y0452164D01*
X0336831Y0452208D01*
X0336792Y0452250D01*
X0336750Y0452290D01*
X0336705Y0452326D01*
X0336658Y0452359D01*
X0336609Y0452389D01*
X0336558Y0452416D01*
X0336506Y0452439D01*
X0336669Y0454405D02*
X0336562Y0454451D01*
X0336453Y0454494D01*
X0336343Y0454534D01*
X0336231Y0454570D01*
X0336119Y0454602D01*
X0336005Y0454631D01*
X0335891Y0454657D01*
X0335776Y0454678D01*
X0335661Y0454697D01*
X0335544Y0454711D01*
X0335428Y0454722D01*
X0335311Y0454729D01*
X0335194Y0454733D01*
X0331499Y0453094D02*
X0327566Y0453094D01*
X0324894Y0454733D02*
X0323583Y0450800D01*
X0322272Y0454733D01*
X0254690Y0453422D02*
X0254690Y0452767D01*
X0252068Y0452767D01*
X0252068Y0453422D02*
X0252068Y0451783D01*
X0252070Y0451721D01*
X0252076Y0451660D01*
X0252085Y0451599D01*
X0252099Y0451539D01*
X0252116Y0451479D01*
X0252137Y0451421D01*
X0252162Y0451364D01*
X0252190Y0451309D01*
X0252221Y0451256D01*
X0252256Y0451205D01*
X0252294Y0451156D01*
X0252334Y0451110D01*
X0252378Y0451066D01*
X0252424Y0451026D01*
X0252473Y0450988D01*
X0252524Y0450953D01*
X0252577Y0450922D01*
X0252632Y0450894D01*
X0252689Y0450869D01*
X0252747Y0450848D01*
X0252807Y0450831D01*
X0252867Y0450817D01*
X0252928Y0450808D01*
X0252989Y0450802D01*
X0253051Y0450800D01*
X0254690Y0450800D01*
X0254690Y0453422D02*
X0254688Y0453493D01*
X0254682Y0453564D01*
X0254673Y0453634D01*
X0254659Y0453704D01*
X0254642Y0453773D01*
X0254621Y0453841D01*
X0254597Y0453907D01*
X0254569Y0453972D01*
X0254537Y0454036D01*
X0254502Y0454098D01*
X0254464Y0454158D01*
X0254423Y0454215D01*
X0254378Y0454271D01*
X0254331Y0454324D01*
X0254281Y0454374D01*
X0254228Y0454421D01*
X0254172Y0454466D01*
X0254115Y0454507D01*
X0254055Y0454545D01*
X0253993Y0454580D01*
X0253929Y0454612D01*
X0253864Y0454640D01*
X0253798Y0454664D01*
X0253730Y0454685D01*
X0253661Y0454702D01*
X0253591Y0454716D01*
X0253521Y0454725D01*
X0253450Y0454731D01*
X0253379Y0454733D01*
X0253308Y0454731D01*
X0253237Y0454725D01*
X0253167Y0454716D01*
X0253097Y0454702D01*
X0253028Y0454685D01*
X0252960Y0454664D01*
X0252894Y0454640D01*
X0252829Y0454612D01*
X0252765Y0454580D01*
X0252703Y0454545D01*
X0252643Y0454507D01*
X0252586Y0454466D01*
X0252530Y0454421D01*
X0252477Y0454374D01*
X0252427Y0454324D01*
X0252380Y0454271D01*
X0252335Y0454215D01*
X0252294Y0454158D01*
X0252256Y0454098D01*
X0252221Y0454036D01*
X0252189Y0453972D01*
X0252161Y0453907D01*
X0252137Y0453841D01*
X0252116Y0453773D01*
X0252099Y0453704D01*
X0252085Y0453634D01*
X0252076Y0453564D01*
X0252070Y0453493D01*
X0252068Y0453422D01*
X0249982Y0454078D02*
X0249982Y0454733D01*
X0248016Y0454733D01*
X0248016Y0450800D01*
X0245049Y0452111D02*
X0245049Y0453422D01*
X0245047Y0453493D01*
X0245041Y0453564D01*
X0245032Y0453634D01*
X0245018Y0453704D01*
X0245001Y0453773D01*
X0244980Y0453841D01*
X0244956Y0453907D01*
X0244928Y0453972D01*
X0244896Y0454036D01*
X0244861Y0454098D01*
X0244823Y0454158D01*
X0244782Y0454215D01*
X0244737Y0454271D01*
X0244690Y0454324D01*
X0244640Y0454374D01*
X0244587Y0454421D01*
X0244531Y0454466D01*
X0244474Y0454507D01*
X0244414Y0454545D01*
X0244352Y0454580D01*
X0244288Y0454612D01*
X0244223Y0454640D01*
X0244157Y0454664D01*
X0244089Y0454685D01*
X0244020Y0454702D01*
X0243950Y0454716D01*
X0243880Y0454725D01*
X0243809Y0454731D01*
X0243738Y0454733D01*
X0243667Y0454731D01*
X0243596Y0454725D01*
X0243526Y0454716D01*
X0243456Y0454702D01*
X0243387Y0454685D01*
X0243319Y0454664D01*
X0243253Y0454640D01*
X0243188Y0454612D01*
X0243124Y0454580D01*
X0243062Y0454545D01*
X0243002Y0454507D01*
X0242945Y0454466D01*
X0242889Y0454421D01*
X0242836Y0454374D01*
X0242786Y0454324D01*
X0242739Y0454271D01*
X0242694Y0454215D01*
X0242653Y0454158D01*
X0242615Y0454098D01*
X0242580Y0454036D01*
X0242548Y0453972D01*
X0242520Y0453907D01*
X0242496Y0453841D01*
X0242475Y0453773D01*
X0242458Y0453704D01*
X0242444Y0453634D01*
X0242435Y0453564D01*
X0242429Y0453493D01*
X0242427Y0453422D01*
X0242427Y0452111D01*
X0242429Y0452040D01*
X0242435Y0451969D01*
X0242444Y0451899D01*
X0242458Y0451829D01*
X0242475Y0451760D01*
X0242496Y0451692D01*
X0242520Y0451626D01*
X0242548Y0451561D01*
X0242580Y0451497D01*
X0242615Y0451435D01*
X0242653Y0451375D01*
X0242694Y0451318D01*
X0242739Y0451262D01*
X0242786Y0451209D01*
X0242836Y0451159D01*
X0242889Y0451112D01*
X0242945Y0451067D01*
X0243002Y0451026D01*
X0243062Y0450988D01*
X0243124Y0450953D01*
X0243188Y0450921D01*
X0243253Y0450893D01*
X0243319Y0450869D01*
X0243387Y0450848D01*
X0243456Y0450831D01*
X0243526Y0450817D01*
X0243596Y0450808D01*
X0243667Y0450802D01*
X0243738Y0450800D01*
X0243809Y0450802D01*
X0243880Y0450808D01*
X0243950Y0450817D01*
X0244020Y0450831D01*
X0244089Y0450848D01*
X0244157Y0450869D01*
X0244223Y0450893D01*
X0244288Y0450921D01*
X0244352Y0450953D01*
X0244414Y0450988D01*
X0244474Y0451026D01*
X0244531Y0451067D01*
X0244587Y0451112D01*
X0244640Y0451159D01*
X0244690Y0451209D01*
X0244737Y0451262D01*
X0244782Y0451318D01*
X0244823Y0451375D01*
X0244861Y0451435D01*
X0244896Y0451497D01*
X0244928Y0451561D01*
X0244956Y0451626D01*
X0244980Y0451692D01*
X0245001Y0451760D01*
X0245018Y0451829D01*
X0245032Y0451899D01*
X0245041Y0451969D01*
X0245047Y0452040D01*
X0245049Y0452111D01*
X0240014Y0450800D02*
X0238702Y0450800D01*
X0238640Y0450802D01*
X0238579Y0450808D01*
X0238518Y0450817D01*
X0238458Y0450831D01*
X0238398Y0450848D01*
X0238340Y0450869D01*
X0238283Y0450894D01*
X0238228Y0450922D01*
X0238175Y0450953D01*
X0238124Y0450988D01*
X0238075Y0451026D01*
X0238029Y0451066D01*
X0237985Y0451110D01*
X0237945Y0451156D01*
X0237907Y0451205D01*
X0237872Y0451256D01*
X0237841Y0451309D01*
X0237813Y0451364D01*
X0237788Y0451421D01*
X0237767Y0451479D01*
X0237750Y0451539D01*
X0237736Y0451599D01*
X0237727Y0451660D01*
X0237721Y0451721D01*
X0237719Y0451783D01*
X0237719Y0453750D01*
X0237721Y0453812D01*
X0237727Y0453873D01*
X0237736Y0453934D01*
X0237750Y0453994D01*
X0237767Y0454054D01*
X0237788Y0454112D01*
X0237813Y0454169D01*
X0237841Y0454224D01*
X0237872Y0454277D01*
X0237907Y0454328D01*
X0237945Y0454377D01*
X0237985Y0454423D01*
X0238029Y0454467D01*
X0238075Y0454507D01*
X0238124Y0454545D01*
X0238175Y0454580D01*
X0238228Y0454611D01*
X0238283Y0454639D01*
X0238340Y0454664D01*
X0238398Y0454685D01*
X0238458Y0454702D01*
X0238518Y0454716D01*
X0238579Y0454725D01*
X0238640Y0454731D01*
X0238702Y0454733D01*
X0240014Y0454733D01*
X0234506Y0452439D02*
X0232867Y0453094D01*
X0232866Y0453095D02*
X0232814Y0453118D01*
X0232763Y0453145D01*
X0232714Y0453175D01*
X0232667Y0453208D01*
X0232622Y0453244D01*
X0232580Y0453284D01*
X0232541Y0453326D01*
X0232505Y0453370D01*
X0232472Y0453417D01*
X0232442Y0453467D01*
X0232415Y0453518D01*
X0232392Y0453570D01*
X0232373Y0453624D01*
X0232357Y0453680D01*
X0232345Y0453736D01*
X0232337Y0453793D01*
X0232333Y0453850D01*
X0232332Y0453908D01*
X0232336Y0453965D01*
X0232343Y0454022D01*
X0232355Y0454079D01*
X0232370Y0454134D01*
X0232388Y0454189D01*
X0232411Y0454242D01*
X0232437Y0454293D01*
X0232466Y0454342D01*
X0232499Y0454390D01*
X0232535Y0454435D01*
X0232573Y0454477D01*
X0232615Y0454517D01*
X0232659Y0454554D01*
X0232706Y0454588D01*
X0232754Y0454619D01*
X0232805Y0454646D01*
X0232857Y0454670D01*
X0232911Y0454690D01*
X0232966Y0454706D01*
X0233022Y0454719D01*
X0233079Y0454728D01*
X0233137Y0454733D01*
X0233194Y0454734D01*
X0232375Y0451128D02*
X0232509Y0451082D01*
X0232644Y0451039D01*
X0232780Y0451000D01*
X0232917Y0450964D01*
X0233054Y0450932D01*
X0233193Y0450903D01*
X0233332Y0450877D01*
X0233472Y0450856D01*
X0233613Y0450837D01*
X0233753Y0450823D01*
X0233895Y0450812D01*
X0234036Y0450804D01*
X0234178Y0450801D01*
X0234178Y0450800D02*
X0234235Y0450801D01*
X0234293Y0450806D01*
X0234350Y0450815D01*
X0234406Y0450828D01*
X0234461Y0450844D01*
X0234515Y0450864D01*
X0234567Y0450888D01*
X0234618Y0450915D01*
X0234666Y0450946D01*
X0234713Y0450980D01*
X0234757Y0451017D01*
X0234799Y0451057D01*
X0234837Y0451099D01*
X0234873Y0451144D01*
X0234906Y0451192D01*
X0234935Y0451241D01*
X0234961Y0451292D01*
X0234984Y0451345D01*
X0235002Y0451400D01*
X0235017Y0451455D01*
X0235029Y0451512D01*
X0235036Y0451569D01*
X0235040Y0451626D01*
X0235039Y0451684D01*
X0235035Y0451741D01*
X0235027Y0451798D01*
X0235015Y0451854D01*
X0234999Y0451910D01*
X0234980Y0451964D01*
X0234957Y0452016D01*
X0234930Y0452067D01*
X0234900Y0452117D01*
X0234867Y0452164D01*
X0234831Y0452208D01*
X0234792Y0452250D01*
X0234750Y0452290D01*
X0234705Y0452326D01*
X0234658Y0452359D01*
X0234609Y0452389D01*
X0234558Y0452416D01*
X0234506Y0452439D01*
X0234669Y0454405D02*
X0234562Y0454451D01*
X0234453Y0454494D01*
X0234343Y0454534D01*
X0234231Y0454570D01*
X0234119Y0454602D01*
X0234005Y0454631D01*
X0233891Y0454657D01*
X0233776Y0454678D01*
X0233661Y0454697D01*
X0233544Y0454711D01*
X0233428Y0454722D01*
X0233311Y0454729D01*
X0233194Y0454733D01*
X0229499Y0453094D02*
X0225566Y0453094D01*
X0222894Y0454733D02*
X0221583Y0450800D01*
X0220272Y0454733D01*
X0152690Y0453422D02*
X0152690Y0452767D01*
X0150068Y0452767D01*
X0150068Y0453422D02*
X0150068Y0451783D01*
X0150070Y0451721D01*
X0150076Y0451660D01*
X0150085Y0451599D01*
X0150099Y0451539D01*
X0150116Y0451479D01*
X0150137Y0451421D01*
X0150162Y0451364D01*
X0150190Y0451309D01*
X0150221Y0451256D01*
X0150256Y0451205D01*
X0150294Y0451156D01*
X0150334Y0451110D01*
X0150378Y0451066D01*
X0150424Y0451026D01*
X0150473Y0450988D01*
X0150524Y0450953D01*
X0150577Y0450922D01*
X0150632Y0450894D01*
X0150689Y0450869D01*
X0150747Y0450848D01*
X0150807Y0450831D01*
X0150867Y0450817D01*
X0150928Y0450808D01*
X0150989Y0450802D01*
X0151051Y0450800D01*
X0152690Y0450800D01*
X0152690Y0453422D02*
X0152688Y0453493D01*
X0152682Y0453564D01*
X0152673Y0453634D01*
X0152659Y0453704D01*
X0152642Y0453773D01*
X0152621Y0453841D01*
X0152597Y0453907D01*
X0152569Y0453972D01*
X0152537Y0454036D01*
X0152502Y0454098D01*
X0152464Y0454158D01*
X0152423Y0454215D01*
X0152378Y0454271D01*
X0152331Y0454324D01*
X0152281Y0454374D01*
X0152228Y0454421D01*
X0152172Y0454466D01*
X0152115Y0454507D01*
X0152055Y0454545D01*
X0151993Y0454580D01*
X0151929Y0454612D01*
X0151864Y0454640D01*
X0151798Y0454664D01*
X0151730Y0454685D01*
X0151661Y0454702D01*
X0151591Y0454716D01*
X0151521Y0454725D01*
X0151450Y0454731D01*
X0151379Y0454733D01*
X0151308Y0454731D01*
X0151237Y0454725D01*
X0151167Y0454716D01*
X0151097Y0454702D01*
X0151028Y0454685D01*
X0150960Y0454664D01*
X0150894Y0454640D01*
X0150829Y0454612D01*
X0150765Y0454580D01*
X0150703Y0454545D01*
X0150643Y0454507D01*
X0150586Y0454466D01*
X0150530Y0454421D01*
X0150477Y0454374D01*
X0150427Y0454324D01*
X0150380Y0454271D01*
X0150335Y0454215D01*
X0150294Y0454158D01*
X0150256Y0454098D01*
X0150221Y0454036D01*
X0150189Y0453972D01*
X0150161Y0453907D01*
X0150137Y0453841D01*
X0150116Y0453773D01*
X0150099Y0453704D01*
X0150085Y0453634D01*
X0150076Y0453564D01*
X0150070Y0453493D01*
X0150068Y0453422D01*
X0147982Y0454078D02*
X0147982Y0454733D01*
X0146016Y0454733D01*
X0146016Y0450800D01*
X0143049Y0452111D02*
X0143049Y0453422D01*
X0143047Y0453493D01*
X0143041Y0453564D01*
X0143032Y0453634D01*
X0143018Y0453704D01*
X0143001Y0453773D01*
X0142980Y0453841D01*
X0142956Y0453907D01*
X0142928Y0453972D01*
X0142896Y0454036D01*
X0142861Y0454098D01*
X0142823Y0454158D01*
X0142782Y0454215D01*
X0142737Y0454271D01*
X0142690Y0454324D01*
X0142640Y0454374D01*
X0142587Y0454421D01*
X0142531Y0454466D01*
X0142474Y0454507D01*
X0142414Y0454545D01*
X0142352Y0454580D01*
X0142288Y0454612D01*
X0142223Y0454640D01*
X0142157Y0454664D01*
X0142089Y0454685D01*
X0142020Y0454702D01*
X0141950Y0454716D01*
X0141880Y0454725D01*
X0141809Y0454731D01*
X0141738Y0454733D01*
X0141667Y0454731D01*
X0141596Y0454725D01*
X0141526Y0454716D01*
X0141456Y0454702D01*
X0141387Y0454685D01*
X0141319Y0454664D01*
X0141253Y0454640D01*
X0141188Y0454612D01*
X0141124Y0454580D01*
X0141062Y0454545D01*
X0141002Y0454507D01*
X0140945Y0454466D01*
X0140889Y0454421D01*
X0140836Y0454374D01*
X0140786Y0454324D01*
X0140739Y0454271D01*
X0140694Y0454215D01*
X0140653Y0454158D01*
X0140615Y0454098D01*
X0140580Y0454036D01*
X0140548Y0453972D01*
X0140520Y0453907D01*
X0140496Y0453841D01*
X0140475Y0453773D01*
X0140458Y0453704D01*
X0140444Y0453634D01*
X0140435Y0453564D01*
X0140429Y0453493D01*
X0140427Y0453422D01*
X0140427Y0452111D01*
X0140429Y0452040D01*
X0140435Y0451969D01*
X0140444Y0451899D01*
X0140458Y0451829D01*
X0140475Y0451760D01*
X0140496Y0451692D01*
X0140520Y0451626D01*
X0140548Y0451561D01*
X0140580Y0451497D01*
X0140615Y0451435D01*
X0140653Y0451375D01*
X0140694Y0451318D01*
X0140739Y0451262D01*
X0140786Y0451209D01*
X0140836Y0451159D01*
X0140889Y0451112D01*
X0140945Y0451067D01*
X0141002Y0451026D01*
X0141062Y0450988D01*
X0141124Y0450953D01*
X0141188Y0450921D01*
X0141253Y0450893D01*
X0141319Y0450869D01*
X0141387Y0450848D01*
X0141456Y0450831D01*
X0141526Y0450817D01*
X0141596Y0450808D01*
X0141667Y0450802D01*
X0141738Y0450800D01*
X0141809Y0450802D01*
X0141880Y0450808D01*
X0141950Y0450817D01*
X0142020Y0450831D01*
X0142089Y0450848D01*
X0142157Y0450869D01*
X0142223Y0450893D01*
X0142288Y0450921D01*
X0142352Y0450953D01*
X0142414Y0450988D01*
X0142474Y0451026D01*
X0142531Y0451067D01*
X0142587Y0451112D01*
X0142640Y0451159D01*
X0142690Y0451209D01*
X0142737Y0451262D01*
X0142782Y0451318D01*
X0142823Y0451375D01*
X0142861Y0451435D01*
X0142896Y0451497D01*
X0142928Y0451561D01*
X0142956Y0451626D01*
X0142980Y0451692D01*
X0143001Y0451760D01*
X0143018Y0451829D01*
X0143032Y0451899D01*
X0143041Y0451969D01*
X0143047Y0452040D01*
X0143049Y0452111D01*
X0138014Y0450800D02*
X0136702Y0450800D01*
X0136640Y0450802D01*
X0136579Y0450808D01*
X0136518Y0450817D01*
X0136458Y0450831D01*
X0136398Y0450848D01*
X0136340Y0450869D01*
X0136283Y0450894D01*
X0136228Y0450922D01*
X0136175Y0450953D01*
X0136124Y0450988D01*
X0136075Y0451026D01*
X0136029Y0451066D01*
X0135985Y0451110D01*
X0135945Y0451156D01*
X0135907Y0451205D01*
X0135872Y0451256D01*
X0135841Y0451309D01*
X0135813Y0451364D01*
X0135788Y0451421D01*
X0135767Y0451479D01*
X0135750Y0451539D01*
X0135736Y0451599D01*
X0135727Y0451660D01*
X0135721Y0451721D01*
X0135719Y0451783D01*
X0135719Y0453750D01*
X0135721Y0453812D01*
X0135727Y0453873D01*
X0135736Y0453934D01*
X0135750Y0453994D01*
X0135767Y0454054D01*
X0135788Y0454112D01*
X0135813Y0454169D01*
X0135841Y0454224D01*
X0135872Y0454277D01*
X0135907Y0454328D01*
X0135945Y0454377D01*
X0135985Y0454423D01*
X0136029Y0454467D01*
X0136075Y0454507D01*
X0136124Y0454545D01*
X0136175Y0454580D01*
X0136228Y0454611D01*
X0136283Y0454639D01*
X0136340Y0454664D01*
X0136398Y0454685D01*
X0136458Y0454702D01*
X0136518Y0454716D01*
X0136579Y0454725D01*
X0136640Y0454731D01*
X0136702Y0454733D01*
X0138014Y0454733D01*
X0132506Y0452439D02*
X0130867Y0453094D01*
X0130866Y0453095D02*
X0130814Y0453118D01*
X0130763Y0453145D01*
X0130714Y0453175D01*
X0130667Y0453208D01*
X0130622Y0453244D01*
X0130580Y0453284D01*
X0130541Y0453326D01*
X0130505Y0453370D01*
X0130472Y0453417D01*
X0130442Y0453467D01*
X0130415Y0453518D01*
X0130392Y0453570D01*
X0130373Y0453624D01*
X0130357Y0453680D01*
X0130345Y0453736D01*
X0130337Y0453793D01*
X0130333Y0453850D01*
X0130332Y0453908D01*
X0130336Y0453965D01*
X0130343Y0454022D01*
X0130355Y0454079D01*
X0130370Y0454134D01*
X0130388Y0454189D01*
X0130411Y0454242D01*
X0130437Y0454293D01*
X0130466Y0454342D01*
X0130499Y0454390D01*
X0130535Y0454435D01*
X0130573Y0454477D01*
X0130615Y0454517D01*
X0130659Y0454554D01*
X0130706Y0454588D01*
X0130754Y0454619D01*
X0130805Y0454646D01*
X0130857Y0454670D01*
X0130911Y0454690D01*
X0130966Y0454706D01*
X0131022Y0454719D01*
X0131079Y0454728D01*
X0131137Y0454733D01*
X0131194Y0454734D01*
X0130375Y0451128D02*
X0130509Y0451082D01*
X0130644Y0451039D01*
X0130780Y0451000D01*
X0130917Y0450964D01*
X0131054Y0450932D01*
X0131193Y0450903D01*
X0131332Y0450877D01*
X0131472Y0450856D01*
X0131613Y0450837D01*
X0131753Y0450823D01*
X0131895Y0450812D01*
X0132036Y0450804D01*
X0132178Y0450801D01*
X0132178Y0450800D02*
X0132235Y0450801D01*
X0132293Y0450806D01*
X0132350Y0450815D01*
X0132406Y0450828D01*
X0132461Y0450844D01*
X0132515Y0450864D01*
X0132567Y0450888D01*
X0132618Y0450915D01*
X0132666Y0450946D01*
X0132713Y0450980D01*
X0132757Y0451017D01*
X0132799Y0451057D01*
X0132837Y0451099D01*
X0132873Y0451144D01*
X0132906Y0451192D01*
X0132935Y0451241D01*
X0132961Y0451292D01*
X0132984Y0451345D01*
X0133002Y0451400D01*
X0133017Y0451455D01*
X0133029Y0451512D01*
X0133036Y0451569D01*
X0133040Y0451626D01*
X0133039Y0451684D01*
X0133035Y0451741D01*
X0133027Y0451798D01*
X0133015Y0451854D01*
X0132999Y0451910D01*
X0132980Y0451964D01*
X0132957Y0452016D01*
X0132930Y0452067D01*
X0132900Y0452117D01*
X0132867Y0452164D01*
X0132831Y0452208D01*
X0132792Y0452250D01*
X0132750Y0452290D01*
X0132705Y0452326D01*
X0132658Y0452359D01*
X0132609Y0452389D01*
X0132558Y0452416D01*
X0132506Y0452439D01*
X0132669Y0454405D02*
X0132562Y0454451D01*
X0132453Y0454494D01*
X0132343Y0454534D01*
X0132231Y0454570D01*
X0132119Y0454602D01*
X0132005Y0454631D01*
X0131891Y0454657D01*
X0131776Y0454678D01*
X0131661Y0454697D01*
X0131544Y0454711D01*
X0131428Y0454722D01*
X0131311Y0454729D01*
X0131194Y0454733D01*
X0127499Y0453094D02*
X0123566Y0453094D01*
X0120894Y0454733D02*
X0119583Y0450800D01*
X0118272Y0454733D01*
X0050690Y0453422D02*
X0050690Y0452767D01*
X0048068Y0452767D01*
X0048068Y0453422D02*
X0048068Y0451783D01*
X0048070Y0451721D01*
X0048076Y0451660D01*
X0048085Y0451599D01*
X0048099Y0451539D01*
X0048116Y0451479D01*
X0048137Y0451421D01*
X0048162Y0451364D01*
X0048190Y0451309D01*
X0048221Y0451256D01*
X0048256Y0451205D01*
X0048294Y0451156D01*
X0048334Y0451110D01*
X0048378Y0451066D01*
X0048424Y0451026D01*
X0048473Y0450988D01*
X0048524Y0450953D01*
X0048577Y0450922D01*
X0048632Y0450894D01*
X0048689Y0450869D01*
X0048747Y0450848D01*
X0048807Y0450831D01*
X0048867Y0450817D01*
X0048928Y0450808D01*
X0048989Y0450802D01*
X0049051Y0450800D01*
X0050690Y0450800D01*
X0050690Y0453422D02*
X0050688Y0453493D01*
X0050682Y0453564D01*
X0050673Y0453634D01*
X0050659Y0453704D01*
X0050642Y0453773D01*
X0050621Y0453841D01*
X0050597Y0453907D01*
X0050569Y0453972D01*
X0050537Y0454036D01*
X0050502Y0454098D01*
X0050464Y0454158D01*
X0050423Y0454215D01*
X0050378Y0454271D01*
X0050331Y0454324D01*
X0050281Y0454374D01*
X0050228Y0454421D01*
X0050172Y0454466D01*
X0050115Y0454507D01*
X0050055Y0454545D01*
X0049993Y0454580D01*
X0049929Y0454612D01*
X0049864Y0454640D01*
X0049798Y0454664D01*
X0049730Y0454685D01*
X0049661Y0454702D01*
X0049591Y0454716D01*
X0049521Y0454725D01*
X0049450Y0454731D01*
X0049379Y0454733D01*
X0049308Y0454731D01*
X0049237Y0454725D01*
X0049167Y0454716D01*
X0049097Y0454702D01*
X0049028Y0454685D01*
X0048960Y0454664D01*
X0048894Y0454640D01*
X0048829Y0454612D01*
X0048765Y0454580D01*
X0048703Y0454545D01*
X0048643Y0454507D01*
X0048586Y0454466D01*
X0048530Y0454421D01*
X0048477Y0454374D01*
X0048427Y0454324D01*
X0048380Y0454271D01*
X0048335Y0454215D01*
X0048294Y0454158D01*
X0048256Y0454098D01*
X0048221Y0454036D01*
X0048189Y0453972D01*
X0048161Y0453907D01*
X0048137Y0453841D01*
X0048116Y0453773D01*
X0048099Y0453704D01*
X0048085Y0453634D01*
X0048076Y0453564D01*
X0048070Y0453493D01*
X0048068Y0453422D01*
X0045982Y0454078D02*
X0045982Y0454733D01*
X0044016Y0454733D01*
X0044016Y0450800D01*
X0041049Y0452111D02*
X0041049Y0453422D01*
X0041047Y0453493D01*
X0041041Y0453564D01*
X0041032Y0453634D01*
X0041018Y0453704D01*
X0041001Y0453773D01*
X0040980Y0453841D01*
X0040956Y0453907D01*
X0040928Y0453972D01*
X0040896Y0454036D01*
X0040861Y0454098D01*
X0040823Y0454158D01*
X0040782Y0454215D01*
X0040737Y0454271D01*
X0040690Y0454324D01*
X0040640Y0454374D01*
X0040587Y0454421D01*
X0040531Y0454466D01*
X0040474Y0454507D01*
X0040414Y0454545D01*
X0040352Y0454580D01*
X0040288Y0454612D01*
X0040223Y0454640D01*
X0040157Y0454664D01*
X0040089Y0454685D01*
X0040020Y0454702D01*
X0039950Y0454716D01*
X0039880Y0454725D01*
X0039809Y0454731D01*
X0039738Y0454733D01*
X0039667Y0454731D01*
X0039596Y0454725D01*
X0039526Y0454716D01*
X0039456Y0454702D01*
X0039387Y0454685D01*
X0039319Y0454664D01*
X0039253Y0454640D01*
X0039188Y0454612D01*
X0039124Y0454580D01*
X0039062Y0454545D01*
X0039002Y0454507D01*
X0038945Y0454466D01*
X0038889Y0454421D01*
X0038836Y0454374D01*
X0038786Y0454324D01*
X0038739Y0454271D01*
X0038694Y0454215D01*
X0038653Y0454158D01*
X0038615Y0454098D01*
X0038580Y0454036D01*
X0038548Y0453972D01*
X0038520Y0453907D01*
X0038496Y0453841D01*
X0038475Y0453773D01*
X0038458Y0453704D01*
X0038444Y0453634D01*
X0038435Y0453564D01*
X0038429Y0453493D01*
X0038427Y0453422D01*
X0038427Y0452111D01*
X0038429Y0452040D01*
X0038435Y0451969D01*
X0038444Y0451899D01*
X0038458Y0451829D01*
X0038475Y0451760D01*
X0038496Y0451692D01*
X0038520Y0451626D01*
X0038548Y0451561D01*
X0038580Y0451497D01*
X0038615Y0451435D01*
X0038653Y0451375D01*
X0038694Y0451318D01*
X0038739Y0451262D01*
X0038786Y0451209D01*
X0038836Y0451159D01*
X0038889Y0451112D01*
X0038945Y0451067D01*
X0039002Y0451026D01*
X0039062Y0450988D01*
X0039124Y0450953D01*
X0039188Y0450921D01*
X0039253Y0450893D01*
X0039319Y0450869D01*
X0039387Y0450848D01*
X0039456Y0450831D01*
X0039526Y0450817D01*
X0039596Y0450808D01*
X0039667Y0450802D01*
X0039738Y0450800D01*
X0039809Y0450802D01*
X0039880Y0450808D01*
X0039950Y0450817D01*
X0040020Y0450831D01*
X0040089Y0450848D01*
X0040157Y0450869D01*
X0040223Y0450893D01*
X0040288Y0450921D01*
X0040352Y0450953D01*
X0040414Y0450988D01*
X0040474Y0451026D01*
X0040531Y0451067D01*
X0040587Y0451112D01*
X0040640Y0451159D01*
X0040690Y0451209D01*
X0040737Y0451262D01*
X0040782Y0451318D01*
X0040823Y0451375D01*
X0040861Y0451435D01*
X0040896Y0451497D01*
X0040928Y0451561D01*
X0040956Y0451626D01*
X0040980Y0451692D01*
X0041001Y0451760D01*
X0041018Y0451829D01*
X0041032Y0451899D01*
X0041041Y0451969D01*
X0041047Y0452040D01*
X0041049Y0452111D01*
X0036014Y0450800D02*
X0034702Y0450800D01*
X0034640Y0450802D01*
X0034579Y0450808D01*
X0034518Y0450817D01*
X0034458Y0450831D01*
X0034398Y0450848D01*
X0034340Y0450869D01*
X0034283Y0450894D01*
X0034228Y0450922D01*
X0034175Y0450953D01*
X0034124Y0450988D01*
X0034075Y0451026D01*
X0034029Y0451066D01*
X0033985Y0451110D01*
X0033945Y0451156D01*
X0033907Y0451205D01*
X0033872Y0451256D01*
X0033841Y0451309D01*
X0033813Y0451364D01*
X0033788Y0451421D01*
X0033767Y0451479D01*
X0033750Y0451539D01*
X0033736Y0451599D01*
X0033727Y0451660D01*
X0033721Y0451721D01*
X0033719Y0451783D01*
X0033719Y0453750D01*
X0033721Y0453812D01*
X0033727Y0453873D01*
X0033736Y0453934D01*
X0033750Y0453994D01*
X0033767Y0454054D01*
X0033788Y0454112D01*
X0033813Y0454169D01*
X0033841Y0454224D01*
X0033872Y0454277D01*
X0033907Y0454328D01*
X0033945Y0454377D01*
X0033985Y0454423D01*
X0034029Y0454467D01*
X0034075Y0454507D01*
X0034124Y0454545D01*
X0034175Y0454580D01*
X0034228Y0454611D01*
X0034283Y0454639D01*
X0034340Y0454664D01*
X0034398Y0454685D01*
X0034458Y0454702D01*
X0034518Y0454716D01*
X0034579Y0454725D01*
X0034640Y0454731D01*
X0034702Y0454733D01*
X0036014Y0454733D01*
X0030506Y0452439D02*
X0028867Y0453094D01*
X0028866Y0453095D02*
X0028814Y0453118D01*
X0028763Y0453145D01*
X0028714Y0453175D01*
X0028667Y0453208D01*
X0028622Y0453244D01*
X0028580Y0453284D01*
X0028541Y0453326D01*
X0028505Y0453370D01*
X0028472Y0453417D01*
X0028442Y0453467D01*
X0028415Y0453518D01*
X0028392Y0453570D01*
X0028373Y0453624D01*
X0028357Y0453680D01*
X0028345Y0453736D01*
X0028337Y0453793D01*
X0028333Y0453850D01*
X0028332Y0453908D01*
X0028336Y0453965D01*
X0028343Y0454022D01*
X0028355Y0454079D01*
X0028370Y0454134D01*
X0028388Y0454189D01*
X0028411Y0454242D01*
X0028437Y0454293D01*
X0028466Y0454342D01*
X0028499Y0454390D01*
X0028535Y0454435D01*
X0028573Y0454477D01*
X0028615Y0454517D01*
X0028659Y0454554D01*
X0028706Y0454588D01*
X0028754Y0454619D01*
X0028805Y0454646D01*
X0028857Y0454670D01*
X0028911Y0454690D01*
X0028966Y0454706D01*
X0029022Y0454719D01*
X0029079Y0454728D01*
X0029137Y0454733D01*
X0029194Y0454734D01*
X0028375Y0451128D02*
X0028509Y0451082D01*
X0028644Y0451039D01*
X0028780Y0451000D01*
X0028917Y0450964D01*
X0029054Y0450932D01*
X0029193Y0450903D01*
X0029332Y0450877D01*
X0029472Y0450856D01*
X0029613Y0450837D01*
X0029753Y0450823D01*
X0029895Y0450812D01*
X0030036Y0450804D01*
X0030178Y0450801D01*
X0030178Y0450800D02*
X0030235Y0450801D01*
X0030293Y0450806D01*
X0030350Y0450815D01*
X0030406Y0450828D01*
X0030461Y0450844D01*
X0030515Y0450864D01*
X0030567Y0450888D01*
X0030618Y0450915D01*
X0030666Y0450946D01*
X0030713Y0450980D01*
X0030757Y0451017D01*
X0030799Y0451057D01*
X0030837Y0451099D01*
X0030873Y0451144D01*
X0030906Y0451192D01*
X0030935Y0451241D01*
X0030961Y0451292D01*
X0030984Y0451345D01*
X0031002Y0451400D01*
X0031017Y0451455D01*
X0031029Y0451512D01*
X0031036Y0451569D01*
X0031040Y0451626D01*
X0031039Y0451684D01*
X0031035Y0451741D01*
X0031027Y0451798D01*
X0031015Y0451854D01*
X0030999Y0451910D01*
X0030980Y0451964D01*
X0030957Y0452016D01*
X0030930Y0452067D01*
X0030900Y0452117D01*
X0030867Y0452164D01*
X0030831Y0452208D01*
X0030792Y0452250D01*
X0030750Y0452290D01*
X0030705Y0452326D01*
X0030658Y0452359D01*
X0030609Y0452389D01*
X0030558Y0452416D01*
X0030506Y0452439D01*
X0030669Y0454405D02*
X0030562Y0454451D01*
X0030453Y0454494D01*
X0030343Y0454534D01*
X0030231Y0454570D01*
X0030119Y0454602D01*
X0030005Y0454631D01*
X0029891Y0454657D01*
X0029776Y0454678D01*
X0029661Y0454697D01*
X0029544Y0454711D01*
X0029428Y0454722D01*
X0029311Y0454729D01*
X0029194Y0454733D01*
X0025499Y0453094D02*
X0021566Y0453094D01*
X0018894Y0454733D02*
X0017583Y0450800D01*
X0016272Y0454733D01*
X0709272Y0028733D02*
X0710583Y0024800D01*
X0711894Y0028733D01*
X0714566Y0027094D02*
X0718499Y0027094D01*
X0721867Y0027094D02*
X0723506Y0026439D01*
X0723558Y0026416D01*
X0723609Y0026389D01*
X0723658Y0026359D01*
X0723705Y0026326D01*
X0723750Y0026290D01*
X0723792Y0026250D01*
X0723831Y0026208D01*
X0723867Y0026164D01*
X0723900Y0026117D01*
X0723930Y0026067D01*
X0723957Y0026016D01*
X0723980Y0025964D01*
X0723999Y0025910D01*
X0724015Y0025854D01*
X0724027Y0025798D01*
X0724035Y0025741D01*
X0724039Y0025684D01*
X0724040Y0025626D01*
X0724036Y0025569D01*
X0724029Y0025512D01*
X0724017Y0025455D01*
X0724002Y0025400D01*
X0723984Y0025345D01*
X0723961Y0025292D01*
X0723935Y0025241D01*
X0723906Y0025192D01*
X0723873Y0025144D01*
X0723837Y0025099D01*
X0723799Y0025057D01*
X0723757Y0025017D01*
X0723713Y0024980D01*
X0723666Y0024946D01*
X0723618Y0024915D01*
X0723567Y0024888D01*
X0723515Y0024864D01*
X0723461Y0024844D01*
X0723406Y0024828D01*
X0723350Y0024815D01*
X0723293Y0024806D01*
X0723235Y0024801D01*
X0723178Y0024800D01*
X0723669Y0028405D02*
X0723562Y0028451D01*
X0723453Y0028494D01*
X0723343Y0028534D01*
X0723231Y0028570D01*
X0723119Y0028602D01*
X0723005Y0028631D01*
X0722891Y0028657D01*
X0722776Y0028678D01*
X0722661Y0028697D01*
X0722544Y0028711D01*
X0722428Y0028722D01*
X0722311Y0028729D01*
X0722194Y0028733D01*
X0722194Y0028734D02*
X0722137Y0028733D01*
X0722079Y0028728D01*
X0722022Y0028719D01*
X0721966Y0028706D01*
X0721911Y0028690D01*
X0721857Y0028670D01*
X0721805Y0028646D01*
X0721754Y0028619D01*
X0721706Y0028588D01*
X0721659Y0028554D01*
X0721615Y0028517D01*
X0721573Y0028477D01*
X0721535Y0028435D01*
X0721499Y0028390D01*
X0721466Y0028342D01*
X0721437Y0028293D01*
X0721411Y0028242D01*
X0721388Y0028189D01*
X0721370Y0028134D01*
X0721355Y0028079D01*
X0721343Y0028022D01*
X0721336Y0027965D01*
X0721332Y0027908D01*
X0721333Y0027850D01*
X0721337Y0027793D01*
X0721345Y0027736D01*
X0721357Y0027680D01*
X0721373Y0027624D01*
X0721392Y0027570D01*
X0721415Y0027518D01*
X0721442Y0027467D01*
X0721472Y0027417D01*
X0721505Y0027370D01*
X0721541Y0027326D01*
X0721580Y0027284D01*
X0721622Y0027244D01*
X0721667Y0027208D01*
X0721714Y0027175D01*
X0721763Y0027145D01*
X0721814Y0027118D01*
X0721866Y0027095D01*
X0721375Y0025128D02*
X0721509Y0025082D01*
X0721644Y0025039D01*
X0721780Y0025000D01*
X0721917Y0024964D01*
X0722054Y0024932D01*
X0722193Y0024903D01*
X0722332Y0024877D01*
X0722472Y0024856D01*
X0722613Y0024837D01*
X0722753Y0024823D01*
X0722895Y0024812D01*
X0723036Y0024804D01*
X0723178Y0024801D01*
X0726719Y0025783D02*
X0726719Y0027750D01*
X0726721Y0027812D01*
X0726727Y0027873D01*
X0726736Y0027934D01*
X0726750Y0027994D01*
X0726767Y0028054D01*
X0726788Y0028112D01*
X0726813Y0028169D01*
X0726841Y0028224D01*
X0726872Y0028277D01*
X0726907Y0028328D01*
X0726945Y0028377D01*
X0726985Y0028423D01*
X0727029Y0028467D01*
X0727075Y0028507D01*
X0727124Y0028545D01*
X0727175Y0028580D01*
X0727228Y0028611D01*
X0727283Y0028639D01*
X0727340Y0028664D01*
X0727398Y0028685D01*
X0727458Y0028702D01*
X0727518Y0028716D01*
X0727579Y0028725D01*
X0727640Y0028731D01*
X0727702Y0028733D01*
X0729014Y0028733D01*
X0731427Y0027422D02*
X0731427Y0026111D01*
X0731429Y0026040D01*
X0731435Y0025969D01*
X0731444Y0025899D01*
X0731458Y0025829D01*
X0731475Y0025760D01*
X0731496Y0025692D01*
X0731520Y0025626D01*
X0731548Y0025561D01*
X0731580Y0025497D01*
X0731615Y0025435D01*
X0731653Y0025375D01*
X0731694Y0025318D01*
X0731739Y0025262D01*
X0731786Y0025209D01*
X0731836Y0025159D01*
X0731889Y0025112D01*
X0731945Y0025067D01*
X0732002Y0025026D01*
X0732062Y0024988D01*
X0732124Y0024953D01*
X0732188Y0024921D01*
X0732253Y0024893D01*
X0732319Y0024869D01*
X0732387Y0024848D01*
X0732456Y0024831D01*
X0732526Y0024817D01*
X0732596Y0024808D01*
X0732667Y0024802D01*
X0732738Y0024800D01*
X0732809Y0024802D01*
X0732880Y0024808D01*
X0732950Y0024817D01*
X0733020Y0024831D01*
X0733089Y0024848D01*
X0733157Y0024869D01*
X0733223Y0024893D01*
X0733288Y0024921D01*
X0733352Y0024953D01*
X0733414Y0024988D01*
X0733474Y0025026D01*
X0733531Y0025067D01*
X0733587Y0025112D01*
X0733640Y0025159D01*
X0733690Y0025209D01*
X0733737Y0025262D01*
X0733782Y0025318D01*
X0733823Y0025375D01*
X0733861Y0025435D01*
X0733896Y0025497D01*
X0733928Y0025561D01*
X0733956Y0025626D01*
X0733980Y0025692D01*
X0734001Y0025760D01*
X0734018Y0025829D01*
X0734032Y0025899D01*
X0734041Y0025969D01*
X0734047Y0026040D01*
X0734049Y0026111D01*
X0734049Y0027422D01*
X0734047Y0027493D01*
X0734041Y0027564D01*
X0734032Y0027634D01*
X0734018Y0027704D01*
X0734001Y0027773D01*
X0733980Y0027841D01*
X0733956Y0027907D01*
X0733928Y0027972D01*
X0733896Y0028036D01*
X0733861Y0028098D01*
X0733823Y0028158D01*
X0733782Y0028215D01*
X0733737Y0028271D01*
X0733690Y0028324D01*
X0733640Y0028374D01*
X0733587Y0028421D01*
X0733531Y0028466D01*
X0733474Y0028507D01*
X0733414Y0028545D01*
X0733352Y0028580D01*
X0733288Y0028612D01*
X0733223Y0028640D01*
X0733157Y0028664D01*
X0733089Y0028685D01*
X0733020Y0028702D01*
X0732950Y0028716D01*
X0732880Y0028725D01*
X0732809Y0028731D01*
X0732738Y0028733D01*
X0732667Y0028731D01*
X0732596Y0028725D01*
X0732526Y0028716D01*
X0732456Y0028702D01*
X0732387Y0028685D01*
X0732319Y0028664D01*
X0732253Y0028640D01*
X0732188Y0028612D01*
X0732124Y0028580D01*
X0732062Y0028545D01*
X0732002Y0028507D01*
X0731945Y0028466D01*
X0731889Y0028421D01*
X0731836Y0028374D01*
X0731786Y0028324D01*
X0731739Y0028271D01*
X0731694Y0028215D01*
X0731653Y0028158D01*
X0731615Y0028098D01*
X0731580Y0028036D01*
X0731548Y0027972D01*
X0731520Y0027907D01*
X0731496Y0027841D01*
X0731475Y0027773D01*
X0731458Y0027704D01*
X0731444Y0027634D01*
X0731435Y0027564D01*
X0731429Y0027493D01*
X0731427Y0027422D01*
X0729014Y0024800D02*
X0727702Y0024800D01*
X0727640Y0024802D01*
X0727579Y0024808D01*
X0727518Y0024817D01*
X0727458Y0024831D01*
X0727398Y0024848D01*
X0727340Y0024869D01*
X0727283Y0024894D01*
X0727228Y0024922D01*
X0727175Y0024953D01*
X0727124Y0024988D01*
X0727075Y0025026D01*
X0727029Y0025066D01*
X0726985Y0025110D01*
X0726945Y0025156D01*
X0726907Y0025205D01*
X0726872Y0025256D01*
X0726841Y0025309D01*
X0726813Y0025364D01*
X0726788Y0025421D01*
X0726767Y0025479D01*
X0726750Y0025539D01*
X0726736Y0025599D01*
X0726727Y0025660D01*
X0726721Y0025721D01*
X0726719Y0025783D01*
X0737016Y0024800D02*
X0737016Y0028733D01*
X0738982Y0028733D01*
X0738982Y0028078D01*
X0741068Y0027422D02*
X0741068Y0025783D01*
X0741070Y0025721D01*
X0741076Y0025660D01*
X0741085Y0025599D01*
X0741099Y0025539D01*
X0741116Y0025479D01*
X0741137Y0025421D01*
X0741162Y0025364D01*
X0741190Y0025309D01*
X0741221Y0025256D01*
X0741256Y0025205D01*
X0741294Y0025156D01*
X0741334Y0025110D01*
X0741378Y0025066D01*
X0741424Y0025026D01*
X0741473Y0024988D01*
X0741524Y0024953D01*
X0741577Y0024922D01*
X0741632Y0024894D01*
X0741689Y0024869D01*
X0741747Y0024848D01*
X0741807Y0024831D01*
X0741867Y0024817D01*
X0741928Y0024808D01*
X0741989Y0024802D01*
X0742051Y0024800D01*
X0743690Y0024800D01*
X0743690Y0026767D02*
X0741068Y0026767D01*
X0741068Y0027422D02*
X0741070Y0027493D01*
X0741076Y0027564D01*
X0741085Y0027634D01*
X0741099Y0027704D01*
X0741116Y0027773D01*
X0741137Y0027841D01*
X0741161Y0027907D01*
X0741189Y0027972D01*
X0741221Y0028036D01*
X0741256Y0028098D01*
X0741294Y0028158D01*
X0741335Y0028215D01*
X0741380Y0028271D01*
X0741427Y0028324D01*
X0741477Y0028374D01*
X0741530Y0028421D01*
X0741586Y0028466D01*
X0741643Y0028507D01*
X0741703Y0028545D01*
X0741765Y0028580D01*
X0741829Y0028612D01*
X0741894Y0028640D01*
X0741960Y0028664D01*
X0742028Y0028685D01*
X0742097Y0028702D01*
X0742167Y0028716D01*
X0742237Y0028725D01*
X0742308Y0028731D01*
X0742379Y0028733D01*
X0742450Y0028731D01*
X0742521Y0028725D01*
X0742591Y0028716D01*
X0742661Y0028702D01*
X0742730Y0028685D01*
X0742798Y0028664D01*
X0742864Y0028640D01*
X0742929Y0028612D01*
X0742993Y0028580D01*
X0743055Y0028545D01*
X0743115Y0028507D01*
X0743172Y0028466D01*
X0743228Y0028421D01*
X0743281Y0028374D01*
X0743331Y0028324D01*
X0743378Y0028271D01*
X0743423Y0028215D01*
X0743464Y0028158D01*
X0743502Y0028098D01*
X0743537Y0028036D01*
X0743569Y0027972D01*
X0743597Y0027907D01*
X0743621Y0027841D01*
X0743642Y0027773D01*
X0743659Y0027704D01*
X0743673Y0027634D01*
X0743682Y0027564D01*
X0743688Y0027493D01*
X0743690Y0027422D01*
X0743690Y0026767D01*
M02*
