G75*
%MOIN*%
%OFA0B0*%
%FSLAX25Y25*%
%IPPOS*%
%LPD*%
%AMOC8*
5,1,8,0,0,1.08239X$1,22.5*
%
%ADD10R,0.03937X0.04331*%
%ADD11R,0.07874X0.04724*%
%ADD12R,0.05315X0.02362*%
%ADD13R,0.04331X0.03937*%
%ADD14C,0.01181*%
%ADD15R,0.04724X0.02362*%
%ADD16R,0.03543X0.03150*%
D10*
X0061981Y0064404D03*
X0068481Y0064404D03*
X0068481Y0071096D03*
X0061981Y0071096D03*
X0100481Y0068096D03*
X0106481Y0068096D03*
X0106481Y0061404D03*
X0100481Y0061404D03*
X0163981Y0064404D03*
X0170481Y0064404D03*
X0170481Y0071096D03*
X0163981Y0071096D03*
X0202481Y0068096D03*
X0208481Y0068096D03*
X0208481Y0061404D03*
X0202481Y0061404D03*
X0265981Y0064404D03*
X0272481Y0064404D03*
X0272481Y0071096D03*
X0265981Y0071096D03*
X0304481Y0068096D03*
X0310481Y0068096D03*
X0310481Y0061404D03*
X0304481Y0061404D03*
X0367981Y0064404D03*
X0374481Y0064404D03*
X0374481Y0071096D03*
X0367981Y0071096D03*
X0406481Y0068096D03*
X0412481Y0068096D03*
X0412481Y0061404D03*
X0406481Y0061404D03*
X0469981Y0064404D03*
X0476481Y0064404D03*
X0476481Y0071096D03*
X0469981Y0071096D03*
X0508481Y0068096D03*
X0514481Y0068096D03*
X0514481Y0061404D03*
X0508481Y0061404D03*
X0571981Y0064404D03*
X0578481Y0064404D03*
X0578481Y0071096D03*
X0571981Y0071096D03*
X0610481Y0068096D03*
X0616481Y0068096D03*
X0616481Y0061404D03*
X0610481Y0061404D03*
X0571981Y0106904D03*
X0571981Y0113596D03*
X0469981Y0113596D03*
X0469981Y0106904D03*
X0367981Y0106904D03*
X0367981Y0113596D03*
X0265981Y0113596D03*
X0265981Y0106904D03*
X0163981Y0106904D03*
X0163981Y0113596D03*
X0061981Y0113596D03*
X0061981Y0106904D03*
X0100481Y0183404D03*
X0106481Y0183404D03*
X0106481Y0190096D03*
X0100481Y0190096D03*
X0068481Y0193096D03*
X0061981Y0193096D03*
X0061981Y0186404D03*
X0068481Y0186404D03*
X0061981Y0228904D03*
X0061981Y0235596D03*
X0163981Y0235596D03*
X0163981Y0228904D03*
X0163981Y0193096D03*
X0170481Y0193096D03*
X0170481Y0186404D03*
X0163981Y0186404D03*
X0202481Y0183404D03*
X0208481Y0183404D03*
X0208481Y0190096D03*
X0202481Y0190096D03*
X0265981Y0193096D03*
X0272481Y0193096D03*
X0272481Y0186404D03*
X0265981Y0186404D03*
X0304481Y0183404D03*
X0310481Y0183404D03*
X0310481Y0190096D03*
X0304481Y0190096D03*
X0265981Y0228904D03*
X0265981Y0235596D03*
X0367981Y0235596D03*
X0367981Y0228904D03*
X0367981Y0193096D03*
X0374481Y0193096D03*
X0374481Y0186404D03*
X0367981Y0186404D03*
X0406481Y0183404D03*
X0412481Y0183404D03*
X0412481Y0190096D03*
X0406481Y0190096D03*
X0469981Y0193096D03*
X0476481Y0193096D03*
X0476481Y0186404D03*
X0469981Y0186404D03*
X0508481Y0183404D03*
X0514481Y0183404D03*
X0514481Y0190096D03*
X0508481Y0190096D03*
X0469981Y0228904D03*
X0469981Y0235596D03*
X0571981Y0235596D03*
X0571981Y0228904D03*
X0571981Y0193096D03*
X0578481Y0193096D03*
X0578481Y0186404D03*
X0571981Y0186404D03*
X0610481Y0183404D03*
X0616481Y0183404D03*
X0616481Y0190096D03*
X0610481Y0190096D03*
X0610481Y0305404D03*
X0616481Y0305404D03*
X0616481Y0312096D03*
X0610481Y0312096D03*
X0578481Y0315096D03*
X0571981Y0315096D03*
X0571981Y0308404D03*
X0578481Y0308404D03*
X0514481Y0305404D03*
X0508481Y0305404D03*
X0508481Y0312096D03*
X0514481Y0312096D03*
X0476481Y0315096D03*
X0469981Y0315096D03*
X0469981Y0308404D03*
X0476481Y0308404D03*
X0412481Y0305404D03*
X0406481Y0305404D03*
X0406481Y0312096D03*
X0412481Y0312096D03*
X0374481Y0315096D03*
X0367981Y0315096D03*
X0367981Y0308404D03*
X0374481Y0308404D03*
X0310481Y0305404D03*
X0304481Y0305404D03*
X0304481Y0312096D03*
X0310481Y0312096D03*
X0272481Y0315096D03*
X0265981Y0315096D03*
X0265981Y0308404D03*
X0272481Y0308404D03*
X0208481Y0305404D03*
X0202481Y0305404D03*
X0202481Y0312096D03*
X0208481Y0312096D03*
X0170481Y0315096D03*
X0163981Y0315096D03*
X0163981Y0308404D03*
X0170481Y0308404D03*
X0106481Y0305404D03*
X0100481Y0305404D03*
X0100481Y0312096D03*
X0106481Y0312096D03*
X0068481Y0315096D03*
X0061981Y0315096D03*
X0061981Y0308404D03*
X0068481Y0308404D03*
X0061981Y0350904D03*
X0061981Y0357596D03*
X0163981Y0357596D03*
X0163981Y0350904D03*
X0265981Y0350904D03*
X0265981Y0357596D03*
X0367981Y0357596D03*
X0367981Y0350904D03*
X0469981Y0350904D03*
X0469981Y0357596D03*
X0571981Y0357596D03*
X0571981Y0350904D03*
D11*
X0550013Y0338774D03*
X0536950Y0338774D03*
X0536950Y0316726D03*
X0550013Y0316726D03*
X0638950Y0316726D03*
X0638950Y0338774D03*
X0448013Y0338774D03*
X0434950Y0338774D03*
X0434950Y0316726D03*
X0448013Y0316726D03*
X0346013Y0316726D03*
X0332950Y0316726D03*
X0332950Y0338774D03*
X0346013Y0338774D03*
X0244013Y0338774D03*
X0230950Y0338774D03*
X0230950Y0316726D03*
X0244013Y0316726D03*
X0142013Y0316726D03*
X0128950Y0316726D03*
X0128950Y0338774D03*
X0142013Y0338774D03*
X0040013Y0338774D03*
X0040013Y0316726D03*
X0040013Y0216774D03*
X0040013Y0194726D03*
X0128950Y0194726D03*
X0142013Y0194726D03*
X0142013Y0216774D03*
X0128950Y0216774D03*
X0230950Y0216774D03*
X0244013Y0216774D03*
X0244013Y0194726D03*
X0230950Y0194726D03*
X0332950Y0194726D03*
X0346013Y0194726D03*
X0346013Y0216774D03*
X0332950Y0216774D03*
X0434950Y0216774D03*
X0448013Y0216774D03*
X0448013Y0194726D03*
X0434950Y0194726D03*
X0536950Y0194726D03*
X0550013Y0194726D03*
X0550013Y0216774D03*
X0536950Y0216774D03*
X0638950Y0216774D03*
X0638950Y0194726D03*
X0638950Y0094774D03*
X0638950Y0072726D03*
X0550013Y0072726D03*
X0536950Y0072726D03*
X0536950Y0094774D03*
X0550013Y0094774D03*
X0448013Y0094774D03*
X0434950Y0094774D03*
X0434950Y0072726D03*
X0448013Y0072726D03*
X0346013Y0072726D03*
X0332950Y0072726D03*
X0332950Y0094774D03*
X0346013Y0094774D03*
X0244013Y0094774D03*
X0230950Y0094774D03*
X0230950Y0072726D03*
X0244013Y0072726D03*
X0142013Y0072726D03*
X0128950Y0072726D03*
X0128950Y0094774D03*
X0142013Y0094774D03*
X0040013Y0094774D03*
X0040013Y0072726D03*
D12*
X0054481Y0077844D03*
X0054481Y0081781D03*
X0054481Y0085719D03*
X0054481Y0089656D03*
X0114481Y0089656D03*
X0114481Y0085719D03*
X0114481Y0081781D03*
X0114481Y0077844D03*
X0156481Y0077844D03*
X0156481Y0081781D03*
X0156481Y0085719D03*
X0156481Y0089656D03*
X0216481Y0089656D03*
X0216481Y0085719D03*
X0216481Y0081781D03*
X0216481Y0077844D03*
X0258481Y0077844D03*
X0258481Y0081781D03*
X0258481Y0085719D03*
X0258481Y0089656D03*
X0318481Y0089656D03*
X0318481Y0085719D03*
X0318481Y0081781D03*
X0318481Y0077844D03*
X0360481Y0077844D03*
X0360481Y0081781D03*
X0360481Y0085719D03*
X0360481Y0089656D03*
X0420481Y0089656D03*
X0420481Y0085719D03*
X0420481Y0081781D03*
X0420481Y0077844D03*
X0462481Y0077844D03*
X0462481Y0081781D03*
X0462481Y0085719D03*
X0462481Y0089656D03*
X0522481Y0089656D03*
X0522481Y0085719D03*
X0522481Y0081781D03*
X0522481Y0077844D03*
X0564481Y0077844D03*
X0564481Y0081781D03*
X0564481Y0085719D03*
X0564481Y0089656D03*
X0624481Y0089656D03*
X0624481Y0085719D03*
X0624481Y0081781D03*
X0624481Y0077844D03*
X0624481Y0199844D03*
X0624481Y0203781D03*
X0624481Y0207719D03*
X0624481Y0211656D03*
X0564481Y0211656D03*
X0564481Y0207719D03*
X0564481Y0203781D03*
X0564481Y0199844D03*
X0522481Y0199844D03*
X0522481Y0203781D03*
X0522481Y0207719D03*
X0522481Y0211656D03*
X0462481Y0211656D03*
X0462481Y0207719D03*
X0462481Y0203781D03*
X0462481Y0199844D03*
X0420481Y0199844D03*
X0420481Y0203781D03*
X0420481Y0207719D03*
X0420481Y0211656D03*
X0360481Y0211656D03*
X0360481Y0207719D03*
X0360481Y0203781D03*
X0360481Y0199844D03*
X0318481Y0199844D03*
X0318481Y0203781D03*
X0318481Y0207719D03*
X0318481Y0211656D03*
X0258481Y0211656D03*
X0258481Y0207719D03*
X0258481Y0203781D03*
X0258481Y0199844D03*
X0216481Y0199844D03*
X0216481Y0203781D03*
X0216481Y0207719D03*
X0216481Y0211656D03*
X0156481Y0211656D03*
X0156481Y0207719D03*
X0156481Y0203781D03*
X0156481Y0199844D03*
X0114481Y0199844D03*
X0114481Y0203781D03*
X0114481Y0207719D03*
X0114481Y0211656D03*
X0054481Y0211656D03*
X0054481Y0207719D03*
X0054481Y0203781D03*
X0054481Y0199844D03*
X0054481Y0321844D03*
X0054481Y0325781D03*
X0054481Y0329719D03*
X0054481Y0333656D03*
X0114481Y0333656D03*
X0114481Y0329719D03*
X0114481Y0325781D03*
X0114481Y0321844D03*
X0156481Y0321844D03*
X0156481Y0325781D03*
X0156481Y0329719D03*
X0156481Y0333656D03*
X0216481Y0333656D03*
X0216481Y0329719D03*
X0216481Y0325781D03*
X0216481Y0321844D03*
X0258481Y0321844D03*
X0258481Y0325781D03*
X0258481Y0329719D03*
X0258481Y0333656D03*
X0318481Y0333656D03*
X0318481Y0329719D03*
X0318481Y0325781D03*
X0318481Y0321844D03*
X0360481Y0321844D03*
X0360481Y0325781D03*
X0360481Y0329719D03*
X0360481Y0333656D03*
X0420481Y0333656D03*
X0420481Y0329719D03*
X0420481Y0325781D03*
X0420481Y0321844D03*
X0462481Y0321844D03*
X0462481Y0325781D03*
X0462481Y0329719D03*
X0462481Y0333656D03*
X0522481Y0333656D03*
X0522481Y0329719D03*
X0522481Y0325781D03*
X0522481Y0321844D03*
X0564481Y0321844D03*
X0564481Y0325781D03*
X0564481Y0329719D03*
X0564481Y0333656D03*
X0624481Y0333656D03*
X0624481Y0329719D03*
X0624481Y0325781D03*
X0624481Y0321844D03*
D13*
X0629635Y0348250D03*
X0636328Y0348250D03*
X0578328Y0367750D03*
X0571635Y0367750D03*
X0558828Y0348250D03*
X0552135Y0348250D03*
X0534328Y0348250D03*
X0527635Y0348250D03*
X0476328Y0367750D03*
X0469635Y0367750D03*
X0456828Y0348250D03*
X0450135Y0348250D03*
X0432328Y0348250D03*
X0425635Y0348250D03*
X0374328Y0367750D03*
X0367635Y0367750D03*
X0354828Y0348250D03*
X0348135Y0348250D03*
X0330328Y0348250D03*
X0323635Y0348250D03*
X0272328Y0367750D03*
X0265635Y0367750D03*
X0252828Y0348250D03*
X0246135Y0348250D03*
X0228328Y0348250D03*
X0221635Y0348250D03*
X0170328Y0367750D03*
X0163635Y0367750D03*
X0150828Y0348250D03*
X0144135Y0348250D03*
X0126328Y0348250D03*
X0119635Y0348250D03*
X0068328Y0367750D03*
X0061635Y0367750D03*
X0048828Y0348250D03*
X0042135Y0348250D03*
X0061635Y0245750D03*
X0068328Y0245750D03*
X0048828Y0226250D03*
X0042135Y0226250D03*
X0119635Y0226250D03*
X0126328Y0226250D03*
X0144135Y0226250D03*
X0150828Y0226250D03*
X0163635Y0245750D03*
X0170328Y0245750D03*
X0221635Y0226250D03*
X0228328Y0226250D03*
X0246135Y0226250D03*
X0252828Y0226250D03*
X0265635Y0245750D03*
X0272328Y0245750D03*
X0323635Y0226250D03*
X0330328Y0226250D03*
X0348135Y0226250D03*
X0354828Y0226250D03*
X0367635Y0245750D03*
X0374328Y0245750D03*
X0425635Y0226250D03*
X0432328Y0226250D03*
X0450135Y0226250D03*
X0456828Y0226250D03*
X0469635Y0245750D03*
X0476328Y0245750D03*
X0527635Y0226250D03*
X0534328Y0226250D03*
X0552135Y0226250D03*
X0558828Y0226250D03*
X0571635Y0245750D03*
X0578328Y0245750D03*
X0629635Y0226250D03*
X0636328Y0226250D03*
X0578328Y0123750D03*
X0571635Y0123750D03*
X0558828Y0104250D03*
X0552135Y0104250D03*
X0534328Y0104250D03*
X0527635Y0104250D03*
X0476328Y0123750D03*
X0469635Y0123750D03*
X0456828Y0104250D03*
X0450135Y0104250D03*
X0432328Y0104250D03*
X0425635Y0104250D03*
X0374328Y0123750D03*
X0367635Y0123750D03*
X0354828Y0104250D03*
X0348135Y0104250D03*
X0330328Y0104250D03*
X0323635Y0104250D03*
X0272328Y0123750D03*
X0265635Y0123750D03*
X0252828Y0104250D03*
X0246135Y0104250D03*
X0228328Y0104250D03*
X0221635Y0104250D03*
X0170328Y0123750D03*
X0163635Y0123750D03*
X0150828Y0104250D03*
X0144135Y0104250D03*
X0126328Y0104250D03*
X0119635Y0104250D03*
X0068328Y0123750D03*
X0061635Y0123750D03*
X0048828Y0104250D03*
X0042135Y0104250D03*
X0629635Y0104250D03*
X0636328Y0104250D03*
D14*
X0635056Y0108872D02*
X0635056Y0111628D01*
X0637812Y0111628D01*
X0637812Y0108872D01*
X0635056Y0108872D01*
X0635056Y0109994D02*
X0637812Y0109994D01*
X0637812Y0111116D02*
X0635056Y0111116D01*
X0628150Y0111628D02*
X0628150Y0108872D01*
X0628150Y0111628D02*
X0630906Y0111628D01*
X0630906Y0108872D01*
X0628150Y0108872D01*
X0628150Y0109994D02*
X0630906Y0109994D01*
X0630906Y0111116D02*
X0628150Y0111116D01*
X0557056Y0111628D02*
X0557056Y0108872D01*
X0557056Y0111628D02*
X0559812Y0111628D01*
X0559812Y0108872D01*
X0557056Y0108872D01*
X0557056Y0109994D02*
X0559812Y0109994D01*
X0559812Y0111116D02*
X0557056Y0111116D01*
X0550150Y0111628D02*
X0550150Y0108872D01*
X0550150Y0111628D02*
X0552906Y0111628D01*
X0552906Y0108872D01*
X0550150Y0108872D01*
X0550150Y0109994D02*
X0552906Y0109994D01*
X0552906Y0111116D02*
X0550150Y0111116D01*
X0533056Y0111628D02*
X0533056Y0108872D01*
X0533056Y0111628D02*
X0535812Y0111628D01*
X0535812Y0108872D01*
X0533056Y0108872D01*
X0533056Y0109994D02*
X0535812Y0109994D01*
X0535812Y0111116D02*
X0533056Y0111116D01*
X0526150Y0111628D02*
X0526150Y0108872D01*
X0526150Y0111628D02*
X0528906Y0111628D01*
X0528906Y0108872D01*
X0526150Y0108872D01*
X0526150Y0109994D02*
X0528906Y0109994D01*
X0528906Y0111116D02*
X0526150Y0111116D01*
X0455056Y0111628D02*
X0455056Y0108872D01*
X0455056Y0111628D02*
X0457812Y0111628D01*
X0457812Y0108872D01*
X0455056Y0108872D01*
X0455056Y0109994D02*
X0457812Y0109994D01*
X0457812Y0111116D02*
X0455056Y0111116D01*
X0448150Y0111628D02*
X0448150Y0108872D01*
X0448150Y0111628D02*
X0450906Y0111628D01*
X0450906Y0108872D01*
X0448150Y0108872D01*
X0448150Y0109994D02*
X0450906Y0109994D01*
X0450906Y0111116D02*
X0448150Y0111116D01*
X0431056Y0111628D02*
X0431056Y0108872D01*
X0431056Y0111628D02*
X0433812Y0111628D01*
X0433812Y0108872D01*
X0431056Y0108872D01*
X0431056Y0109994D02*
X0433812Y0109994D01*
X0433812Y0111116D02*
X0431056Y0111116D01*
X0424150Y0111628D02*
X0424150Y0108872D01*
X0424150Y0111628D02*
X0426906Y0111628D01*
X0426906Y0108872D01*
X0424150Y0108872D01*
X0424150Y0109994D02*
X0426906Y0109994D01*
X0426906Y0111116D02*
X0424150Y0111116D01*
X0353056Y0111628D02*
X0353056Y0108872D01*
X0353056Y0111628D02*
X0355812Y0111628D01*
X0355812Y0108872D01*
X0353056Y0108872D01*
X0353056Y0109994D02*
X0355812Y0109994D01*
X0355812Y0111116D02*
X0353056Y0111116D01*
X0346150Y0111628D02*
X0346150Y0108872D01*
X0346150Y0111628D02*
X0348906Y0111628D01*
X0348906Y0108872D01*
X0346150Y0108872D01*
X0346150Y0109994D02*
X0348906Y0109994D01*
X0348906Y0111116D02*
X0346150Y0111116D01*
X0329056Y0111628D02*
X0329056Y0108872D01*
X0329056Y0111628D02*
X0331812Y0111628D01*
X0331812Y0108872D01*
X0329056Y0108872D01*
X0329056Y0109994D02*
X0331812Y0109994D01*
X0331812Y0111116D02*
X0329056Y0111116D01*
X0322150Y0111628D02*
X0322150Y0108872D01*
X0322150Y0111628D02*
X0324906Y0111628D01*
X0324906Y0108872D01*
X0322150Y0108872D01*
X0322150Y0109994D02*
X0324906Y0109994D01*
X0324906Y0111116D02*
X0322150Y0111116D01*
X0251056Y0111628D02*
X0251056Y0108872D01*
X0251056Y0111628D02*
X0253812Y0111628D01*
X0253812Y0108872D01*
X0251056Y0108872D01*
X0251056Y0109994D02*
X0253812Y0109994D01*
X0253812Y0111116D02*
X0251056Y0111116D01*
X0244150Y0111628D02*
X0244150Y0108872D01*
X0244150Y0111628D02*
X0246906Y0111628D01*
X0246906Y0108872D01*
X0244150Y0108872D01*
X0244150Y0109994D02*
X0246906Y0109994D01*
X0246906Y0111116D02*
X0244150Y0111116D01*
X0227056Y0111628D02*
X0227056Y0108872D01*
X0227056Y0111628D02*
X0229812Y0111628D01*
X0229812Y0108872D01*
X0227056Y0108872D01*
X0227056Y0109994D02*
X0229812Y0109994D01*
X0229812Y0111116D02*
X0227056Y0111116D01*
X0220150Y0111628D02*
X0220150Y0108872D01*
X0220150Y0111628D02*
X0222906Y0111628D01*
X0222906Y0108872D01*
X0220150Y0108872D01*
X0220150Y0109994D02*
X0222906Y0109994D01*
X0222906Y0111116D02*
X0220150Y0111116D01*
X0149056Y0111628D02*
X0149056Y0108872D01*
X0149056Y0111628D02*
X0151812Y0111628D01*
X0151812Y0108872D01*
X0149056Y0108872D01*
X0149056Y0109994D02*
X0151812Y0109994D01*
X0151812Y0111116D02*
X0149056Y0111116D01*
X0142150Y0111628D02*
X0142150Y0108872D01*
X0142150Y0111628D02*
X0144906Y0111628D01*
X0144906Y0108872D01*
X0142150Y0108872D01*
X0142150Y0109994D02*
X0144906Y0109994D01*
X0144906Y0111116D02*
X0142150Y0111116D01*
X0125056Y0111628D02*
X0125056Y0108872D01*
X0125056Y0111628D02*
X0127812Y0111628D01*
X0127812Y0108872D01*
X0125056Y0108872D01*
X0125056Y0109994D02*
X0127812Y0109994D01*
X0127812Y0111116D02*
X0125056Y0111116D01*
X0118150Y0111628D02*
X0118150Y0108872D01*
X0118150Y0111628D02*
X0120906Y0111628D01*
X0120906Y0108872D01*
X0118150Y0108872D01*
X0118150Y0109994D02*
X0120906Y0109994D01*
X0120906Y0111116D02*
X0118150Y0111116D01*
X0047056Y0111628D02*
X0047056Y0108872D01*
X0047056Y0111628D02*
X0049812Y0111628D01*
X0049812Y0108872D01*
X0047056Y0108872D01*
X0047056Y0109994D02*
X0049812Y0109994D01*
X0049812Y0111116D02*
X0047056Y0111116D01*
X0040150Y0111628D02*
X0040150Y0108872D01*
X0040150Y0111628D02*
X0042906Y0111628D01*
X0042906Y0108872D01*
X0040150Y0108872D01*
X0040150Y0109994D02*
X0042906Y0109994D01*
X0042906Y0111116D02*
X0040150Y0111116D01*
X0040150Y0230872D02*
X0040150Y0233628D01*
X0042906Y0233628D01*
X0042906Y0230872D01*
X0040150Y0230872D01*
X0040150Y0231994D02*
X0042906Y0231994D01*
X0042906Y0233116D02*
X0040150Y0233116D01*
X0047056Y0233628D02*
X0047056Y0230872D01*
X0047056Y0233628D02*
X0049812Y0233628D01*
X0049812Y0230872D01*
X0047056Y0230872D01*
X0047056Y0231994D02*
X0049812Y0231994D01*
X0049812Y0233116D02*
X0047056Y0233116D01*
X0118150Y0233628D02*
X0118150Y0230872D01*
X0118150Y0233628D02*
X0120906Y0233628D01*
X0120906Y0230872D01*
X0118150Y0230872D01*
X0118150Y0231994D02*
X0120906Y0231994D01*
X0120906Y0233116D02*
X0118150Y0233116D01*
X0125056Y0233628D02*
X0125056Y0230872D01*
X0125056Y0233628D02*
X0127812Y0233628D01*
X0127812Y0230872D01*
X0125056Y0230872D01*
X0125056Y0231994D02*
X0127812Y0231994D01*
X0127812Y0233116D02*
X0125056Y0233116D01*
X0142150Y0233628D02*
X0142150Y0230872D01*
X0142150Y0233628D02*
X0144906Y0233628D01*
X0144906Y0230872D01*
X0142150Y0230872D01*
X0142150Y0231994D02*
X0144906Y0231994D01*
X0144906Y0233116D02*
X0142150Y0233116D01*
X0149056Y0233628D02*
X0149056Y0230872D01*
X0149056Y0233628D02*
X0151812Y0233628D01*
X0151812Y0230872D01*
X0149056Y0230872D01*
X0149056Y0231994D02*
X0151812Y0231994D01*
X0151812Y0233116D02*
X0149056Y0233116D01*
X0220150Y0233628D02*
X0220150Y0230872D01*
X0220150Y0233628D02*
X0222906Y0233628D01*
X0222906Y0230872D01*
X0220150Y0230872D01*
X0220150Y0231994D02*
X0222906Y0231994D01*
X0222906Y0233116D02*
X0220150Y0233116D01*
X0227056Y0233628D02*
X0227056Y0230872D01*
X0227056Y0233628D02*
X0229812Y0233628D01*
X0229812Y0230872D01*
X0227056Y0230872D01*
X0227056Y0231994D02*
X0229812Y0231994D01*
X0229812Y0233116D02*
X0227056Y0233116D01*
X0244150Y0233628D02*
X0244150Y0230872D01*
X0244150Y0233628D02*
X0246906Y0233628D01*
X0246906Y0230872D01*
X0244150Y0230872D01*
X0244150Y0231994D02*
X0246906Y0231994D01*
X0246906Y0233116D02*
X0244150Y0233116D01*
X0251056Y0233628D02*
X0251056Y0230872D01*
X0251056Y0233628D02*
X0253812Y0233628D01*
X0253812Y0230872D01*
X0251056Y0230872D01*
X0251056Y0231994D02*
X0253812Y0231994D01*
X0253812Y0233116D02*
X0251056Y0233116D01*
X0322150Y0233628D02*
X0322150Y0230872D01*
X0322150Y0233628D02*
X0324906Y0233628D01*
X0324906Y0230872D01*
X0322150Y0230872D01*
X0322150Y0231994D02*
X0324906Y0231994D01*
X0324906Y0233116D02*
X0322150Y0233116D01*
X0329056Y0233628D02*
X0329056Y0230872D01*
X0329056Y0233628D02*
X0331812Y0233628D01*
X0331812Y0230872D01*
X0329056Y0230872D01*
X0329056Y0231994D02*
X0331812Y0231994D01*
X0331812Y0233116D02*
X0329056Y0233116D01*
X0346150Y0233628D02*
X0346150Y0230872D01*
X0346150Y0233628D02*
X0348906Y0233628D01*
X0348906Y0230872D01*
X0346150Y0230872D01*
X0346150Y0231994D02*
X0348906Y0231994D01*
X0348906Y0233116D02*
X0346150Y0233116D01*
X0353056Y0233628D02*
X0353056Y0230872D01*
X0353056Y0233628D02*
X0355812Y0233628D01*
X0355812Y0230872D01*
X0353056Y0230872D01*
X0353056Y0231994D02*
X0355812Y0231994D01*
X0355812Y0233116D02*
X0353056Y0233116D01*
X0424150Y0233628D02*
X0424150Y0230872D01*
X0424150Y0233628D02*
X0426906Y0233628D01*
X0426906Y0230872D01*
X0424150Y0230872D01*
X0424150Y0231994D02*
X0426906Y0231994D01*
X0426906Y0233116D02*
X0424150Y0233116D01*
X0431056Y0233628D02*
X0431056Y0230872D01*
X0431056Y0233628D02*
X0433812Y0233628D01*
X0433812Y0230872D01*
X0431056Y0230872D01*
X0431056Y0231994D02*
X0433812Y0231994D01*
X0433812Y0233116D02*
X0431056Y0233116D01*
X0448150Y0233628D02*
X0448150Y0230872D01*
X0448150Y0233628D02*
X0450906Y0233628D01*
X0450906Y0230872D01*
X0448150Y0230872D01*
X0448150Y0231994D02*
X0450906Y0231994D01*
X0450906Y0233116D02*
X0448150Y0233116D01*
X0455056Y0233628D02*
X0455056Y0230872D01*
X0455056Y0233628D02*
X0457812Y0233628D01*
X0457812Y0230872D01*
X0455056Y0230872D01*
X0455056Y0231994D02*
X0457812Y0231994D01*
X0457812Y0233116D02*
X0455056Y0233116D01*
X0526150Y0233628D02*
X0526150Y0230872D01*
X0526150Y0233628D02*
X0528906Y0233628D01*
X0528906Y0230872D01*
X0526150Y0230872D01*
X0526150Y0231994D02*
X0528906Y0231994D01*
X0528906Y0233116D02*
X0526150Y0233116D01*
X0533056Y0233628D02*
X0533056Y0230872D01*
X0533056Y0233628D02*
X0535812Y0233628D01*
X0535812Y0230872D01*
X0533056Y0230872D01*
X0533056Y0231994D02*
X0535812Y0231994D01*
X0535812Y0233116D02*
X0533056Y0233116D01*
X0550150Y0233628D02*
X0550150Y0230872D01*
X0550150Y0233628D02*
X0552906Y0233628D01*
X0552906Y0230872D01*
X0550150Y0230872D01*
X0550150Y0231994D02*
X0552906Y0231994D01*
X0552906Y0233116D02*
X0550150Y0233116D01*
X0557056Y0233628D02*
X0557056Y0230872D01*
X0557056Y0233628D02*
X0559812Y0233628D01*
X0559812Y0230872D01*
X0557056Y0230872D01*
X0557056Y0231994D02*
X0559812Y0231994D01*
X0559812Y0233116D02*
X0557056Y0233116D01*
X0628150Y0233628D02*
X0628150Y0230872D01*
X0628150Y0233628D02*
X0630906Y0233628D01*
X0630906Y0230872D01*
X0628150Y0230872D01*
X0628150Y0231994D02*
X0630906Y0231994D01*
X0630906Y0233116D02*
X0628150Y0233116D01*
X0635056Y0233628D02*
X0635056Y0230872D01*
X0635056Y0233628D02*
X0637812Y0233628D01*
X0637812Y0230872D01*
X0635056Y0230872D01*
X0635056Y0231994D02*
X0637812Y0231994D01*
X0637812Y0233116D02*
X0635056Y0233116D01*
X0635056Y0352872D02*
X0635056Y0355628D01*
X0637812Y0355628D01*
X0637812Y0352872D01*
X0635056Y0352872D01*
X0635056Y0353994D02*
X0637812Y0353994D01*
X0637812Y0355116D02*
X0635056Y0355116D01*
X0628150Y0355628D02*
X0628150Y0352872D01*
X0628150Y0355628D02*
X0630906Y0355628D01*
X0630906Y0352872D01*
X0628150Y0352872D01*
X0628150Y0353994D02*
X0630906Y0353994D01*
X0630906Y0355116D02*
X0628150Y0355116D01*
X0557056Y0355628D02*
X0557056Y0352872D01*
X0557056Y0355628D02*
X0559812Y0355628D01*
X0559812Y0352872D01*
X0557056Y0352872D01*
X0557056Y0353994D02*
X0559812Y0353994D01*
X0559812Y0355116D02*
X0557056Y0355116D01*
X0550150Y0355628D02*
X0550150Y0352872D01*
X0550150Y0355628D02*
X0552906Y0355628D01*
X0552906Y0352872D01*
X0550150Y0352872D01*
X0550150Y0353994D02*
X0552906Y0353994D01*
X0552906Y0355116D02*
X0550150Y0355116D01*
X0533056Y0355628D02*
X0533056Y0352872D01*
X0533056Y0355628D02*
X0535812Y0355628D01*
X0535812Y0352872D01*
X0533056Y0352872D01*
X0533056Y0353994D02*
X0535812Y0353994D01*
X0535812Y0355116D02*
X0533056Y0355116D01*
X0526150Y0355628D02*
X0526150Y0352872D01*
X0526150Y0355628D02*
X0528906Y0355628D01*
X0528906Y0352872D01*
X0526150Y0352872D01*
X0526150Y0353994D02*
X0528906Y0353994D01*
X0528906Y0355116D02*
X0526150Y0355116D01*
X0455056Y0355628D02*
X0455056Y0352872D01*
X0455056Y0355628D02*
X0457812Y0355628D01*
X0457812Y0352872D01*
X0455056Y0352872D01*
X0455056Y0353994D02*
X0457812Y0353994D01*
X0457812Y0355116D02*
X0455056Y0355116D01*
X0448150Y0355628D02*
X0448150Y0352872D01*
X0448150Y0355628D02*
X0450906Y0355628D01*
X0450906Y0352872D01*
X0448150Y0352872D01*
X0448150Y0353994D02*
X0450906Y0353994D01*
X0450906Y0355116D02*
X0448150Y0355116D01*
X0431056Y0355628D02*
X0431056Y0352872D01*
X0431056Y0355628D02*
X0433812Y0355628D01*
X0433812Y0352872D01*
X0431056Y0352872D01*
X0431056Y0353994D02*
X0433812Y0353994D01*
X0433812Y0355116D02*
X0431056Y0355116D01*
X0424150Y0355628D02*
X0424150Y0352872D01*
X0424150Y0355628D02*
X0426906Y0355628D01*
X0426906Y0352872D01*
X0424150Y0352872D01*
X0424150Y0353994D02*
X0426906Y0353994D01*
X0426906Y0355116D02*
X0424150Y0355116D01*
X0353056Y0355628D02*
X0353056Y0352872D01*
X0353056Y0355628D02*
X0355812Y0355628D01*
X0355812Y0352872D01*
X0353056Y0352872D01*
X0353056Y0353994D02*
X0355812Y0353994D01*
X0355812Y0355116D02*
X0353056Y0355116D01*
X0346150Y0355628D02*
X0346150Y0352872D01*
X0346150Y0355628D02*
X0348906Y0355628D01*
X0348906Y0352872D01*
X0346150Y0352872D01*
X0346150Y0353994D02*
X0348906Y0353994D01*
X0348906Y0355116D02*
X0346150Y0355116D01*
X0329056Y0355628D02*
X0329056Y0352872D01*
X0329056Y0355628D02*
X0331812Y0355628D01*
X0331812Y0352872D01*
X0329056Y0352872D01*
X0329056Y0353994D02*
X0331812Y0353994D01*
X0331812Y0355116D02*
X0329056Y0355116D01*
X0322150Y0355628D02*
X0322150Y0352872D01*
X0322150Y0355628D02*
X0324906Y0355628D01*
X0324906Y0352872D01*
X0322150Y0352872D01*
X0322150Y0353994D02*
X0324906Y0353994D01*
X0324906Y0355116D02*
X0322150Y0355116D01*
X0251056Y0355628D02*
X0251056Y0352872D01*
X0251056Y0355628D02*
X0253812Y0355628D01*
X0253812Y0352872D01*
X0251056Y0352872D01*
X0251056Y0353994D02*
X0253812Y0353994D01*
X0253812Y0355116D02*
X0251056Y0355116D01*
X0244150Y0355628D02*
X0244150Y0352872D01*
X0244150Y0355628D02*
X0246906Y0355628D01*
X0246906Y0352872D01*
X0244150Y0352872D01*
X0244150Y0353994D02*
X0246906Y0353994D01*
X0246906Y0355116D02*
X0244150Y0355116D01*
X0227056Y0355628D02*
X0227056Y0352872D01*
X0227056Y0355628D02*
X0229812Y0355628D01*
X0229812Y0352872D01*
X0227056Y0352872D01*
X0227056Y0353994D02*
X0229812Y0353994D01*
X0229812Y0355116D02*
X0227056Y0355116D01*
X0220150Y0355628D02*
X0220150Y0352872D01*
X0220150Y0355628D02*
X0222906Y0355628D01*
X0222906Y0352872D01*
X0220150Y0352872D01*
X0220150Y0353994D02*
X0222906Y0353994D01*
X0222906Y0355116D02*
X0220150Y0355116D01*
X0149056Y0355628D02*
X0149056Y0352872D01*
X0149056Y0355628D02*
X0151812Y0355628D01*
X0151812Y0352872D01*
X0149056Y0352872D01*
X0149056Y0353994D02*
X0151812Y0353994D01*
X0151812Y0355116D02*
X0149056Y0355116D01*
X0142150Y0355628D02*
X0142150Y0352872D01*
X0142150Y0355628D02*
X0144906Y0355628D01*
X0144906Y0352872D01*
X0142150Y0352872D01*
X0142150Y0353994D02*
X0144906Y0353994D01*
X0144906Y0355116D02*
X0142150Y0355116D01*
X0125056Y0355628D02*
X0125056Y0352872D01*
X0125056Y0355628D02*
X0127812Y0355628D01*
X0127812Y0352872D01*
X0125056Y0352872D01*
X0125056Y0353994D02*
X0127812Y0353994D01*
X0127812Y0355116D02*
X0125056Y0355116D01*
X0118150Y0355628D02*
X0118150Y0352872D01*
X0118150Y0355628D02*
X0120906Y0355628D01*
X0120906Y0352872D01*
X0118150Y0352872D01*
X0118150Y0353994D02*
X0120906Y0353994D01*
X0120906Y0355116D02*
X0118150Y0355116D01*
X0047056Y0355628D02*
X0047056Y0352872D01*
X0047056Y0355628D02*
X0049812Y0355628D01*
X0049812Y0352872D01*
X0047056Y0352872D01*
X0047056Y0353994D02*
X0049812Y0353994D01*
X0049812Y0355116D02*
X0047056Y0355116D01*
X0040150Y0355628D02*
X0040150Y0352872D01*
X0040150Y0355628D02*
X0042906Y0355628D01*
X0042906Y0352872D01*
X0040150Y0352872D01*
X0040150Y0353994D02*
X0042906Y0353994D01*
X0042906Y0355116D02*
X0040150Y0355116D01*
D15*
X0073458Y0350750D03*
X0073458Y0345750D03*
X0073458Y0340750D03*
X0073458Y0335750D03*
X0073458Y0330750D03*
X0073458Y0325750D03*
X0073458Y0320750D03*
X0095505Y0320750D03*
X0095505Y0325750D03*
X0095505Y0330750D03*
X0095505Y0335750D03*
X0095505Y0340750D03*
X0095505Y0345750D03*
X0095505Y0350750D03*
X0175458Y0350750D03*
X0175458Y0345750D03*
X0175458Y0340750D03*
X0175458Y0335750D03*
X0175458Y0330750D03*
X0175458Y0325750D03*
X0175458Y0320750D03*
X0197505Y0320750D03*
X0197505Y0325750D03*
X0197505Y0330750D03*
X0197505Y0335750D03*
X0197505Y0340750D03*
X0197505Y0345750D03*
X0197505Y0350750D03*
X0277458Y0350750D03*
X0277458Y0345750D03*
X0277458Y0340750D03*
X0277458Y0335750D03*
X0277458Y0330750D03*
X0277458Y0325750D03*
X0277458Y0320750D03*
X0299505Y0320750D03*
X0299505Y0325750D03*
X0299505Y0330750D03*
X0299505Y0335750D03*
X0299505Y0340750D03*
X0299505Y0345750D03*
X0299505Y0350750D03*
X0379458Y0350750D03*
X0379458Y0345750D03*
X0379458Y0340750D03*
X0379458Y0335750D03*
X0379458Y0330750D03*
X0379458Y0325750D03*
X0379458Y0320750D03*
X0401505Y0320750D03*
X0401505Y0325750D03*
X0401505Y0330750D03*
X0401505Y0335750D03*
X0401505Y0340750D03*
X0401505Y0345750D03*
X0401505Y0350750D03*
X0481458Y0350750D03*
X0481458Y0345750D03*
X0481458Y0340750D03*
X0481458Y0335750D03*
X0481458Y0330750D03*
X0481458Y0325750D03*
X0481458Y0320750D03*
X0503505Y0320750D03*
X0503505Y0325750D03*
X0503505Y0330750D03*
X0503505Y0335750D03*
X0503505Y0340750D03*
X0503505Y0345750D03*
X0503505Y0350750D03*
X0583458Y0350750D03*
X0583458Y0345750D03*
X0583458Y0340750D03*
X0583458Y0335750D03*
X0583458Y0330750D03*
X0583458Y0325750D03*
X0583458Y0320750D03*
X0605505Y0320750D03*
X0605505Y0325750D03*
X0605505Y0330750D03*
X0605505Y0335750D03*
X0605505Y0340750D03*
X0605505Y0345750D03*
X0605505Y0350750D03*
X0605505Y0228750D03*
X0605505Y0223750D03*
X0605505Y0218750D03*
X0605505Y0213750D03*
X0605505Y0208750D03*
X0605505Y0203750D03*
X0605505Y0198750D03*
X0583458Y0198750D03*
X0583458Y0203750D03*
X0583458Y0208750D03*
X0583458Y0213750D03*
X0583458Y0218750D03*
X0583458Y0223750D03*
X0583458Y0228750D03*
X0503505Y0228750D03*
X0503505Y0223750D03*
X0503505Y0218750D03*
X0503505Y0213750D03*
X0503505Y0208750D03*
X0503505Y0203750D03*
X0503505Y0198750D03*
X0481458Y0198750D03*
X0481458Y0203750D03*
X0481458Y0208750D03*
X0481458Y0213750D03*
X0481458Y0218750D03*
X0481458Y0223750D03*
X0481458Y0228750D03*
X0401505Y0228750D03*
X0401505Y0223750D03*
X0401505Y0218750D03*
X0401505Y0213750D03*
X0401505Y0208750D03*
X0401505Y0203750D03*
X0401505Y0198750D03*
X0379458Y0198750D03*
X0379458Y0203750D03*
X0379458Y0208750D03*
X0379458Y0213750D03*
X0379458Y0218750D03*
X0379458Y0223750D03*
X0379458Y0228750D03*
X0299505Y0228750D03*
X0299505Y0223750D03*
X0299505Y0218750D03*
X0299505Y0213750D03*
X0299505Y0208750D03*
X0299505Y0203750D03*
X0299505Y0198750D03*
X0277458Y0198750D03*
X0277458Y0203750D03*
X0277458Y0208750D03*
X0277458Y0213750D03*
X0277458Y0218750D03*
X0277458Y0223750D03*
X0277458Y0228750D03*
X0197505Y0228750D03*
X0197505Y0223750D03*
X0197505Y0218750D03*
X0197505Y0213750D03*
X0197505Y0208750D03*
X0197505Y0203750D03*
X0197505Y0198750D03*
X0175458Y0198750D03*
X0175458Y0203750D03*
X0175458Y0208750D03*
X0175458Y0213750D03*
X0175458Y0218750D03*
X0175458Y0223750D03*
X0175458Y0228750D03*
X0095505Y0228750D03*
X0095505Y0223750D03*
X0095505Y0218750D03*
X0095505Y0213750D03*
X0095505Y0208750D03*
X0095505Y0203750D03*
X0095505Y0198750D03*
X0073458Y0198750D03*
X0073458Y0203750D03*
X0073458Y0208750D03*
X0073458Y0213750D03*
X0073458Y0218750D03*
X0073458Y0223750D03*
X0073458Y0228750D03*
X0073458Y0106750D03*
X0073458Y0101750D03*
X0073458Y0096750D03*
X0073458Y0091750D03*
X0073458Y0086750D03*
X0073458Y0081750D03*
X0073458Y0076750D03*
X0095505Y0076750D03*
X0095505Y0081750D03*
X0095505Y0086750D03*
X0095505Y0091750D03*
X0095505Y0096750D03*
X0095505Y0101750D03*
X0095505Y0106750D03*
X0175458Y0106750D03*
X0175458Y0101750D03*
X0175458Y0096750D03*
X0175458Y0091750D03*
X0175458Y0086750D03*
X0175458Y0081750D03*
X0175458Y0076750D03*
X0197505Y0076750D03*
X0197505Y0081750D03*
X0197505Y0086750D03*
X0197505Y0091750D03*
X0197505Y0096750D03*
X0197505Y0101750D03*
X0197505Y0106750D03*
X0277458Y0106750D03*
X0277458Y0101750D03*
X0277458Y0096750D03*
X0277458Y0091750D03*
X0277458Y0086750D03*
X0277458Y0081750D03*
X0277458Y0076750D03*
X0299505Y0076750D03*
X0299505Y0081750D03*
X0299505Y0086750D03*
X0299505Y0091750D03*
X0299505Y0096750D03*
X0299505Y0101750D03*
X0299505Y0106750D03*
X0379458Y0106750D03*
X0379458Y0101750D03*
X0379458Y0096750D03*
X0379458Y0091750D03*
X0379458Y0086750D03*
X0379458Y0081750D03*
X0379458Y0076750D03*
X0401505Y0076750D03*
X0401505Y0081750D03*
X0401505Y0086750D03*
X0401505Y0091750D03*
X0401505Y0096750D03*
X0401505Y0101750D03*
X0401505Y0106750D03*
X0481458Y0106750D03*
X0481458Y0101750D03*
X0481458Y0096750D03*
X0481458Y0091750D03*
X0481458Y0086750D03*
X0481458Y0081750D03*
X0481458Y0076750D03*
X0503505Y0076750D03*
X0503505Y0081750D03*
X0503505Y0086750D03*
X0503505Y0091750D03*
X0503505Y0096750D03*
X0503505Y0101750D03*
X0503505Y0106750D03*
X0583458Y0106750D03*
X0583458Y0101750D03*
X0583458Y0096750D03*
X0583458Y0091750D03*
X0583458Y0086750D03*
X0583458Y0081750D03*
X0583458Y0076750D03*
X0605505Y0076750D03*
X0605505Y0081750D03*
X0605505Y0086750D03*
X0605505Y0091750D03*
X0605505Y0096750D03*
X0605505Y0101750D03*
X0605505Y0106750D03*
D16*
X0591044Y0116510D03*
X0591044Y0123990D03*
X0599312Y0120250D03*
X0497312Y0120250D03*
X0489044Y0116510D03*
X0489044Y0123990D03*
X0395312Y0120250D03*
X0387044Y0116510D03*
X0387044Y0123990D03*
X0293312Y0120250D03*
X0285044Y0116510D03*
X0285044Y0123990D03*
X0191312Y0120250D03*
X0183044Y0116510D03*
X0183044Y0123990D03*
X0089312Y0120250D03*
X0081044Y0116510D03*
X0081044Y0123990D03*
X0081044Y0238510D03*
X0089312Y0242250D03*
X0081044Y0245990D03*
X0183044Y0245990D03*
X0191312Y0242250D03*
X0183044Y0238510D03*
X0285044Y0238510D03*
X0293312Y0242250D03*
X0285044Y0245990D03*
X0387044Y0245990D03*
X0395312Y0242250D03*
X0387044Y0238510D03*
X0489044Y0238510D03*
X0497312Y0242250D03*
X0489044Y0245990D03*
X0591044Y0245990D03*
X0599312Y0242250D03*
X0591044Y0238510D03*
X0591044Y0360510D03*
X0591044Y0367990D03*
X0599312Y0364250D03*
X0497312Y0364250D03*
X0489044Y0367990D03*
X0489044Y0360510D03*
X0395312Y0364250D03*
X0387044Y0367990D03*
X0387044Y0360510D03*
X0293312Y0364250D03*
X0285044Y0367990D03*
X0285044Y0360510D03*
X0191312Y0364250D03*
X0183044Y0367990D03*
X0183044Y0360510D03*
X0089312Y0364250D03*
X0081044Y0367990D03*
X0081044Y0360510D03*
M02*
