%
M48
M72
T01C0.0120
T02C0.0150
T03C0.0200
T04C0.0315
T05C0.0400
T06C0.1300
%
T01
X5948Y4925
X6948Y4625
X7948Y4375
X8798Y4375
X16148Y4925
X17148Y4625
X18148Y4375
X18998Y4375
X26348Y4925
X27348Y4625
X28348Y4375
X29198Y4375
X36548Y4925
X37548Y4625
X38548Y4375
X39398Y4375
X46748Y4925
X47748Y4625
X48748Y4375
X49598Y4375
X56948Y4925
X57948Y4625
X58948Y4375
X59798Y4375
X59798Y16575
X58948Y16575
X57948Y16825
X56948Y17125
X49598Y16575
X48748Y16575
X47748Y16825
X46748Y17125
X39398Y16575
X38548Y16575
X37548Y16825
X36548Y17125
X29198Y16575
X28348Y16575
X27348Y16825
X26348Y17125
X18998Y16575
X18148Y16575
X17148Y16825
X16148Y17125
X8798Y16575
X7948Y16575
X6948Y16825
X5948Y17125
X7948Y28775
X8798Y28775
X6948Y29025
X5948Y29325
X16148Y29325
X17148Y29025
X18148Y28775
X18998Y28775
X26348Y29325
X27348Y29025
X28348Y28775
X29198Y28775
X36548Y29325
X37548Y29025
X38548Y28775
X39398Y28775
X46748Y29325
X47748Y29025
X48748Y28775
X49598Y28775
X56948Y29325
X57948Y29025
X58948Y28775
X59798Y28775
T02
X59448Y29325
X59798Y29625
X60198Y30075
X60498Y29675
X59998Y30875
X58698Y31175
X58698Y30125
X57648Y30325
X57248Y29625
X56448Y30075
X55048Y30125
X53648Y30775
X52248Y30875
X51748Y30025
X50298Y29675
X49998Y30075
X49598Y29625
X49248Y29325
X48498Y30125
X47448Y30325
X47048Y29625
X46248Y30075
X44848Y30125
X43448Y30775
X42048Y30875
X41548Y30025
X40098Y29675
X39798Y30075
X39398Y29625
X39048Y29325
X38298Y30125
X39598Y30875
X38298Y31175
X37248Y30325
X36848Y29625
X36048Y30075
X34648Y30125
X33248Y30775
X31848Y30875
X31348Y30025
X29898Y29675
X29598Y30075
X29198Y29625
X28848Y29325
X28098Y30125
X27048Y30325
X26648Y29625
X25848Y30075
X24448Y30125
X23048Y30775
X21648Y30875
X21148Y30025
X19698Y29675
X19398Y30075
X18998Y29625
X18648Y29325
X17898Y30125
X16848Y30325
X16448Y29625
X15648Y30075
X14248Y30125
X12848Y30775
X11448Y30875
X10948Y30025
X9498Y29675
X9198Y30075
X8798Y29625
X8448Y29325
X7698Y30125
X7698Y31175
X8998Y30875
X9098Y32025
X9048Y33075
X8948Y34125
X8448Y34275
X7848Y33525
X6798Y32875
X8098Y32575
X6498Y32075
X5948Y32075
X4098Y32775
X5698Y34025
X6648Y34275
X5448Y35475
X5698Y35925
X6198Y36275
X7798Y35675
X8448Y36425
X10098Y35075
X10248Y34375
X11373Y35350
X11848Y34125
X12848Y32775
X14298Y32775
X16148Y32075
X16698Y32075
X16998Y32875
X18048Y33525
X19148Y34125
X18648Y34275
X16848Y34275
X15898Y34025
X15648Y35475
X15898Y35925
X16398Y36275
X17998Y35675
X18648Y36425
X20298Y35075
X21573Y35350
X20448Y34375
X22048Y34125
X23048Y32775
X24498Y32775
X26098Y34025
X27048Y34275
X28248Y33525
X27198Y32875
X26898Y32075
X26348Y32075
X28098Y31175
X29398Y30875
X29498Y32025
X28498Y32575
X29448Y33075
X29348Y34125
X28848Y34275
X30648Y34375
X30498Y35075
X31773Y35350
X32248Y34125
X33248Y32775
X34698Y32775
X36548Y32075
X37098Y32075
X37398Y32875
X38448Y33525
X39548Y34125
X39048Y34275
X40848Y34375
X40698Y35075
X41973Y35350
X42448Y34125
X43448Y32775
X44898Y32775
X46748Y32075
X47298Y32075
X47598Y32875
X48648Y33525
X49748Y34125
X49248Y34275
X47448Y34275
X46498Y34025
X46248Y35475
X46498Y35925
X46998Y36275
X48598Y35675
X49248Y36425
X50898Y35075
X52173Y35350
X51048Y34375
X52648Y34125
X53648Y32775
X55098Y32775
X56698Y34025
X57648Y34275
X58848Y33525
X57798Y32875
X57498Y32075
X56948Y32075
X59098Y32575
X60048Y33075
X60098Y32025
X61648Y31975
X62248Y31675
X62448Y30875
X61948Y30025
X63848Y30775
X63848Y32775
X62848Y34125
X62373Y35350
X61098Y35075
X61248Y34375
X59948Y34125
X59448Y34275
X58798Y35675
X59448Y36425
X57198Y36275
X56698Y35925
X56448Y35475
X57448Y38225
X49848Y33075
X48898Y32575
X49898Y32025
X51448Y31975
X52048Y31675
X49798Y30875
X48498Y31175
X41848Y31675
X41248Y31975
X39698Y32025
X39648Y33075
X38698Y32575
X36298Y34025
X37248Y34275
X36048Y35475
X36298Y35925
X36798Y36275
X38398Y35675
X39048Y36425
X37048Y38225
X28848Y36425
X28198Y35675
X26598Y36275
X26098Y35925
X25848Y35475
X26848Y38225
X19248Y33075
X18298Y32575
X19298Y32025
X20848Y31975
X21448Y31675
X19198Y30875
X17898Y31175
X11248Y31675
X10648Y31975
X6648Y30325
X6248Y29625
X5448Y30075
X4048Y30125
X6448Y26025
X6198Y24075
X5698Y23725
X5448Y23275
X5698Y21825
X6648Y22075
X7848Y21325
X8448Y22075
X8948Y21925
X9048Y20875
X8098Y20375
X6798Y20675
X6498Y19875
X5948Y19875
X4098Y20575
X6648Y18125
X5448Y17875
X6248Y17425
X7698Y17925
X8448Y17125
X8798Y17425
X9198Y17875
X9498Y17475
X10948Y17825
X11448Y18675
X11248Y19475
X10648Y19775
X9098Y19825
X8998Y18675
X7698Y18975
X4048Y17925
X6448Y13825
X8448Y12025
X7798Y11275
X6198Y11875
X5698Y11525
X5448Y11075
X6648Y9875
X5698Y9625
X6798Y8475
X7848Y9125
X8448Y9875
X8948Y9725
X10248Y9975
X10098Y10675
X11373Y10950
X11848Y9725
X12848Y8375
X14298Y8375
X16148Y7675
X16698Y7675
X16998Y8475
X18048Y9125
X19248Y8675
X18298Y8175
X19298Y7625
X19198Y6475
X19398Y5675
X19698Y5275
X18998Y5225
X18648Y4925
X17898Y5725
X16848Y5925
X16448Y5225
X15648Y5675
X14248Y5725
X12848Y6375
X11448Y6475
X11248Y7275
X10648Y7575
X9098Y7625
X9048Y8675
X8098Y8175
X6498Y7675
X5948Y7675
X4098Y8375
X7698Y6775
X7698Y5725
X8798Y5225
X8448Y4925
X9498Y5275
X9198Y5675
X8998Y6475
X10948Y5625
X6648Y5925
X6248Y5225
X5448Y5675
X4048Y5725
X15648Y11075
X15898Y11525
X16398Y11875
X17998Y11275
X18648Y12025
X20298Y10675
X21573Y10950
X22048Y9725
X20448Y9975
X19148Y9725
X18648Y9875
X16848Y9875
X15898Y9625
X17898Y6775
X20848Y7575
X21448Y7275
X21648Y6475
X21148Y5625
X23048Y6375
X24448Y5725
X25848Y5675
X26648Y5225
X27048Y5925
X28098Y5725
X28098Y6775
X29398Y6475
X29598Y5675
X29898Y5275
X29198Y5225
X28848Y4925
X31348Y5625
X31848Y6475
X31648Y7275
X31048Y7575
X29498Y7625
X28498Y8175
X29448Y8675
X28248Y9125
X27198Y8475
X26898Y7675
X26348Y7675
X24498Y8375
X23048Y8375
X26098Y9625
X27048Y9875
X28848Y9875
X29348Y9725
X30648Y9975
X30498Y10675
X31773Y10950
X32248Y9725
X33248Y8375
X34698Y8375
X36548Y7675
X37098Y7675
X37398Y8475
X38448Y9125
X39048Y9875
X39548Y9725
X40848Y9975
X40698Y10675
X41973Y10950
X42448Y9725
X43448Y8375
X44898Y8375
X46748Y7675
X47298Y7675
X47598Y8475
X48648Y9125
X49848Y8675
X48898Y8175
X49898Y7625
X49798Y6475
X49998Y5675
X50298Y5275
X49598Y5225
X49248Y4925
X48498Y5725
X47448Y5925
X47048Y5225
X46248Y5675
X44848Y5725
X43448Y6375
X42048Y6475
X41848Y7275
X41248Y7575
X39698Y7625
X39648Y8675
X38698Y8175
X38298Y6775
X39598Y6475
X39798Y5675
X40098Y5275
X39398Y5225
X39048Y4925
X38298Y5725
X37248Y5925
X36848Y5225
X36048Y5675
X34648Y5725
X33248Y6375
X36298Y9625
X37248Y9875
X36048Y11075
X36298Y11525
X36798Y11875
X38398Y11275
X39048Y12025
X37048Y13825
X36848Y17425
X36048Y17875
X37248Y18125
X38298Y17925
X39048Y17125
X39398Y17425
X39798Y17875
X40098Y17475
X41548Y17825
X42048Y18675
X41848Y19475
X41248Y19775
X39698Y19825
X38698Y20375
X37398Y20675
X37098Y19875
X36548Y19875
X34698Y20575
X33248Y20575
X31648Y19475
X31048Y19775
X31848Y18675
X31348Y17825
X29898Y17475
X29598Y17875
X29198Y17425
X28848Y17125
X28098Y17925
X27048Y18125
X26648Y17425
X25848Y17875
X24448Y17925
X23048Y18575
X21648Y18675
X21448Y19475
X20848Y19775
X19298Y19825
X18298Y20375
X19248Y20875
X18048Y21325
X18648Y22075
X19148Y21925
X20448Y22175
X20298Y22875
X21573Y23150
X22048Y21925
X23048Y20575
X24498Y20575
X26348Y19875
X26898Y19875
X27198Y20675
X28248Y21325
X28848Y22075
X29348Y21925
X30648Y22175
X30498Y22875
X31773Y23150
X32248Y21925
X29448Y20875
X28498Y20375
X29498Y19825
X29398Y18675
X28098Y18975
X27048Y22075
X26098Y21825
X25848Y23275
X26098Y23725
X26598Y24075
X28198Y23475
X28848Y24225
X26848Y26025
X18648Y24225
X17998Y23475
X16398Y24075
X15898Y23725
X15648Y23275
X15898Y21825
X16848Y22075
X16998Y20675
X16698Y19875
X16148Y19875
X17898Y18975
X19198Y18675
X19398Y17875
X19698Y17475
X18998Y17425
X18648Y17125
X17898Y17925
X16848Y18125
X16448Y17425
X15648Y17875
X14248Y17925
X12848Y18575
X12848Y20575
X14298Y20575
X11848Y21925
X10248Y22175
X10098Y22875
X11373Y23150
X8448Y24225
X7798Y23475
X16648Y26025
X21148Y17825
X16648Y13825
X25848Y11075
X26098Y11525
X26598Y11875
X28198Y11275
X28848Y12025
X26848Y13825
X33248Y18575
X34648Y17925
X38298Y18975
X39598Y18675
X39648Y20875
X39548Y21925
X39048Y22075
X38448Y21325
X37248Y22075
X36298Y21825
X36048Y23275
X36298Y23725
X36798Y24075
X38398Y23475
X39048Y24225
X40698Y22875
X40848Y22175
X41973Y23150
X42448Y21925
X43448Y20575
X44898Y20575
X46748Y19875
X47298Y19875
X47598Y20675
X48648Y21325
X49248Y22075
X49748Y21925
X49848Y20875
X48898Y20375
X49898Y19825
X49798Y18675
X49998Y17875
X50298Y17475
X49598Y17425
X49248Y17125
X48498Y17925
X47448Y18125
X47048Y17425
X46248Y17875
X44848Y17925
X43448Y18575
X48498Y18975
X51448Y19775
X52048Y19475
X52248Y18675
X51748Y17825
X53648Y18575
X55048Y17925
X56448Y17875
X57248Y17425
X57648Y18125
X58698Y17925
X59448Y17125
X59798Y17425
X60198Y17875
X60498Y17475
X61948Y17825
X62448Y18675
X62248Y19475
X61648Y19775
X60098Y19825
X59098Y20375
X60048Y20875
X59948Y21925
X59448Y22075
X58848Y21325
X57648Y22075
X56698Y21825
X56448Y23275
X56698Y23725
X57198Y24075
X58798Y23475
X59448Y24225
X61098Y22875
X61248Y22175
X62373Y23150
X62848Y21925
X63848Y20575
X63848Y18575
X59998Y18675
X58698Y18975
X57498Y19875
X56948Y19875
X57798Y20675
X55098Y20575
X53648Y20575
X52648Y21925
X51048Y22175
X50898Y22875
X52173Y23150
X49248Y24225
X48598Y23475
X46998Y24075
X46498Y23725
X46248Y23275
X46498Y21825
X47448Y22075
X47248Y26025
X57448Y26025
X47248Y38225
X31648Y31675
X31048Y31975
X37048Y26025
X47248Y13825
X49248Y12025
X48598Y11275
X49248Y9875
X49748Y9725
X51048Y9975
X50898Y10675
X52173Y10950
X52648Y9725
X53648Y8375
X55098Y8375
X56698Y9625
X57648Y9875
X58848Y9125
X57798Y8475
X57498Y7675
X56948Y7675
X58698Y6775
X58698Y5725
X57648Y5925
X57248Y5225
X56448Y5675
X55048Y5725
X53648Y6375
X52248Y6475
X52048Y7275
X51448Y7575
X51748Y5625
X48498Y6775
X46498Y9625
X47448Y9875
X46248Y11075
X46498Y11525
X46998Y11875
X41548Y5625
X56448Y11075
X56698Y11525
X57198Y11875
X58798Y11275
X59448Y12025
X61098Y10675
X61248Y9975
X59948Y9725
X59448Y9875
X60048Y8675
X59098Y8175
X60098Y7625
X59998Y6475
X60198Y5675
X60498Y5275
X59798Y5225
X59448Y4925
X61948Y5625
X62448Y6475
X62248Y7275
X61648Y7575
X63848Y8375
X62848Y9725
X62373Y10950
X57448Y13825
X63848Y6375
X16648Y38225
X6448Y38225
T03
X7448Y31675
X7448Y30675
X8448Y30675
X9448Y30675
X9448Y31675
X8448Y31675
X17648Y31675
X18648Y31675
X18648Y30675
X17648Y30675
X19648Y30675
X19648Y31675
X27848Y31675
X28848Y31675
X29848Y31675
X29848Y30675
X28848Y30675
X27848Y30675
X38048Y30675
X38048Y31675
X39048Y31675
X40048Y31675
X40048Y30675
X39048Y30675
X48248Y30675
X49248Y30675
X49248Y31675
X48248Y31675
X50248Y31675
X50248Y30675
X58448Y30675
X59448Y30675
X60448Y30675
X60448Y31675
X59448Y31675
X58448Y31675
X58448Y19475
X59448Y19475
X60448Y19475
X60448Y18475
X59448Y18475
X58448Y18475
X50248Y18475
X49248Y18475
X48248Y18475
X48248Y19475
X49248Y19475
X50248Y19475
X40048Y19475
X39048Y19475
X38048Y19475
X38048Y18475
X39048Y18475
X40048Y18475
X29848Y18475
X28848Y18475
X27848Y18475
X27848Y19475
X28848Y19475
X29848Y19475
X19648Y19475
X18648Y19475
X17648Y19475
X17648Y18475
X18648Y18475
X19648Y18475
X9448Y18475
X8448Y18475
X7448Y18475
X7448Y19475
X8448Y19475
X9448Y19475
X9448Y7275
X8448Y7275
X7448Y7275
X7448Y6275
X8448Y6275
X9448Y6275
X17648Y6275
X18648Y6275
X18648Y7275
X17648Y7275
X19648Y7275
X19648Y6275
X27848Y6275
X28848Y6275
X29848Y6275
X29848Y7275
X28848Y7275
X27848Y7275
X38048Y7275
X38048Y6275
X39048Y6275
X40048Y6275
X40048Y7275
X39048Y7275
X48248Y7275
X49248Y7275
X49248Y6275
X48248Y6275
X50248Y6275
X50248Y7275
X58448Y7275
X59448Y7275
X60448Y7275
X60448Y6275
X59448Y6275
X58448Y6275
T04
X58013Y11639
X60434Y14060
X50234Y14060
X47813Y11639
X40034Y14060
X37613Y11639
X29834Y14060
X27413Y11639
X19634Y14060
X17213Y11639
X9434Y14060
X7013Y11639
X7013Y23839
X9434Y26260
X17213Y23839
X19634Y26260
X27413Y23839
X29834Y26260
X37613Y23839
X40034Y26260
X47813Y23839
X50234Y26260
X58013Y23839
X60434Y26260
X58013Y36039
X60434Y38460
X50234Y38460
X47813Y36039
X40034Y38460
X37613Y36039
X29834Y38460
X27413Y36039
X19634Y38460
X17213Y36039
X9434Y38460
X7013Y36039
T05
X4948Y3375
X5948Y3375
X6948Y3375
X7948Y3375
X8948Y3375
X9948Y3375
X10948Y3375
X11948Y3375
X15148Y3375
X16148Y3375
X17148Y3375
X18148Y3375
X19148Y3375
X20148Y3375
X21148Y3375
X22148Y3375
X25348Y3375
X26348Y3375
X27348Y3375
X28348Y3375
X29348Y3375
X30348Y3375
X31348Y3375
X32348Y3375
X35548Y3375
X36548Y3375
X37548Y3375
X38548Y3375
X39548Y3375
X40548Y3375
X41548Y3375
X42548Y3375
X45748Y3375
X46748Y3375
X47748Y3375
X48748Y3375
X49748Y3375
X50748Y3375
X51748Y3375
X52748Y3375
X55948Y3375
X56948Y3375
X57948Y3375
X58948Y3375
X59948Y3375
X60948Y3375
X61948Y3375
X62948Y3375
X62948Y15575
X61948Y15575
X60948Y15575
X59948Y15575
X58948Y15575
X57948Y15575
X56948Y15575
X55948Y15575
X52748Y15575
X51748Y15575
X50748Y15575
X49748Y15575
X48748Y15575
X47748Y15575
X46748Y15575
X45748Y15575
X42548Y15575
X41548Y15575
X40548Y15575
X39548Y15575
X38548Y15575
X37548Y15575
X36548Y15575
X35548Y15575
X32348Y15575
X31348Y15575
X30348Y15575
X29348Y15575
X28348Y15575
X27348Y15575
X26348Y15575
X25348Y15575
X22148Y15575
X21148Y15575
X20148Y15575
X19148Y15575
X18148Y15575
X17148Y15575
X16148Y15575
X15148Y15575
X11948Y15575
X10948Y15575
X9948Y15575
X8948Y15575
X7948Y15575
X6948Y15575
X5948Y15575
X4948Y15575
X4948Y27775
X5948Y27775
X6948Y27775
X7948Y27775
X8948Y27775
X9948Y27775
X10948Y27775
X11948Y27775
X15148Y27775
X16148Y27775
X17148Y27775
X18148Y27775
X19148Y27775
X20148Y27775
X21148Y27775
X22148Y27775
X25348Y27775
X26348Y27775
X27348Y27775
X28348Y27775
X29348Y27775
X30348Y27775
X31348Y27775
X32348Y27775
X35548Y27775
X36548Y27775
X37548Y27775
X38548Y27775
X39548Y27775
X40548Y27775
X41548Y27775
X42548Y27775
X45748Y27775
X46748Y27775
X47748Y27775
X48748Y27775
X49748Y27775
X50748Y27775
X51748Y27775
X52748Y27775
X55948Y27775
X56948Y27775
X57948Y27775
X58948Y27775
X59948Y27775
X60948Y27775
X61948Y27775
X62948Y27775
T06
X63448Y26075
X55448Y26075
X53248Y26075
X45248Y26075
X43048Y26075
X35048Y26075
X32848Y26075
X24848Y26075
X22648Y26075
X14648Y26075
X12448Y26075
X4448Y26075
X4448Y13875
X12448Y13875
X14648Y13875
X22648Y13875
X24848Y13875
X32848Y13875
X35048Y13875
X43048Y13875
X45248Y13875
X53248Y13875
X55448Y13875
X63448Y13875
X63448Y38275
X55448Y38275
X53248Y38275
X45248Y38275
X43048Y38275
X35048Y38275
X32848Y38275
X24848Y38275
X22648Y38275
X14648Y38275
X12448Y38275
X4448Y38275
M30
