G75*
%MOIN*%
%OFA0B0*%
%FSLAX25Y25*%
%IPPOS*%
%LPD*%
%AMOC8*
5,1,8,0,0,1.08239X$1,22.5*
%
%ADD10C,0.13800*%
%ADD11R,0.03300X0.05800*%
%ADD12C,0.00500*%
%ADD13C,0.08200*%
%ADD14C,0.03300*%
%ADD15R,0.07493X0.04146*%
%ADD16C,0.04808*%
%ADD17R,0.10643X0.13398*%
%ADD18C,0.03950*%
%ADD19C,0.04737*%
%ADD20C,0.05000*%
%ADD21C,0.06706*%
D10*
X0044481Y0138750D03*
X0124481Y0138750D03*
X0146481Y0138750D03*
X0226481Y0138750D03*
X0248481Y0138750D03*
X0328481Y0138750D03*
X0350481Y0138750D03*
X0430481Y0138750D03*
X0452481Y0138750D03*
X0532481Y0138750D03*
X0554481Y0138750D03*
X0634481Y0138750D03*
X0634481Y0260750D03*
X0554481Y0260750D03*
X0532481Y0260750D03*
X0452481Y0260750D03*
X0430481Y0260750D03*
X0350481Y0260750D03*
X0328481Y0260750D03*
X0248481Y0260750D03*
X0226481Y0260750D03*
X0146481Y0260750D03*
X0124481Y0260750D03*
X0044481Y0260750D03*
X0044481Y0382750D03*
X0124481Y0382750D03*
X0146481Y0382750D03*
X0226481Y0382750D03*
X0248481Y0382750D03*
X0328481Y0382750D03*
X0350481Y0382750D03*
X0430481Y0382750D03*
X0452481Y0382750D03*
X0532481Y0382750D03*
X0554481Y0382750D03*
X0634481Y0382750D03*
D11*
X0633981Y0365250D03*
X0637981Y0365250D03*
X0557481Y0362750D03*
X0553481Y0362750D03*
X0553881Y0353250D03*
X0557081Y0353250D03*
X0535981Y0365250D03*
X0531981Y0365250D03*
X0455481Y0362750D03*
X0451481Y0362750D03*
X0451881Y0353250D03*
X0455081Y0353250D03*
X0433981Y0365250D03*
X0429981Y0365250D03*
X0353481Y0362750D03*
X0349481Y0362750D03*
X0349881Y0353250D03*
X0353081Y0353250D03*
X0331981Y0365250D03*
X0327981Y0365250D03*
X0251481Y0362750D03*
X0247481Y0362750D03*
X0247881Y0353250D03*
X0251081Y0353250D03*
X0229981Y0365250D03*
X0225981Y0365250D03*
X0149481Y0362750D03*
X0145481Y0362750D03*
X0145881Y0353250D03*
X0149081Y0353250D03*
X0127981Y0365250D03*
X0123981Y0365250D03*
X0047481Y0362750D03*
X0043481Y0362750D03*
X0043881Y0353250D03*
X0047081Y0353250D03*
X0080481Y0301250D03*
X0084481Y0301250D03*
X0088481Y0301250D03*
X0123981Y0243250D03*
X0127981Y0243250D03*
X0145481Y0240750D03*
X0149481Y0240750D03*
X0149081Y0231250D03*
X0145881Y0231250D03*
X0225981Y0243250D03*
X0229981Y0243250D03*
X0247481Y0240750D03*
X0251481Y0240750D03*
X0251081Y0231250D03*
X0247881Y0231250D03*
X0327981Y0243250D03*
X0331981Y0243250D03*
X0349481Y0240750D03*
X0353481Y0240750D03*
X0353081Y0231250D03*
X0349881Y0231250D03*
X0429981Y0243250D03*
X0433981Y0243250D03*
X0451481Y0240750D03*
X0455481Y0240750D03*
X0455081Y0231250D03*
X0451881Y0231250D03*
X0531981Y0243250D03*
X0535981Y0243250D03*
X0553481Y0240750D03*
X0557481Y0240750D03*
X0557081Y0231250D03*
X0553881Y0231250D03*
X0633981Y0243250D03*
X0637981Y0243250D03*
X0598481Y0301250D03*
X0594481Y0301250D03*
X0590481Y0301250D03*
X0496481Y0301250D03*
X0492481Y0301250D03*
X0488481Y0301250D03*
X0394481Y0301250D03*
X0390481Y0301250D03*
X0386481Y0301250D03*
X0292481Y0301250D03*
X0288481Y0301250D03*
X0284481Y0301250D03*
X0190481Y0301250D03*
X0186481Y0301250D03*
X0182481Y0301250D03*
X0047481Y0240750D03*
X0043481Y0240750D03*
X0043881Y0231250D03*
X0047081Y0231250D03*
X0080481Y0179250D03*
X0084481Y0179250D03*
X0088481Y0179250D03*
X0123981Y0121250D03*
X0127981Y0121250D03*
X0145481Y0118750D03*
X0149481Y0118750D03*
X0149081Y0109250D03*
X0145881Y0109250D03*
X0182481Y0057250D03*
X0186481Y0057250D03*
X0190481Y0057250D03*
X0247881Y0109250D03*
X0251081Y0109250D03*
X0251481Y0118750D03*
X0247481Y0118750D03*
X0229981Y0121250D03*
X0225981Y0121250D03*
X0190481Y0179250D03*
X0186481Y0179250D03*
X0182481Y0179250D03*
X0284481Y0179250D03*
X0288481Y0179250D03*
X0292481Y0179250D03*
X0327981Y0121250D03*
X0331981Y0121250D03*
X0349481Y0118750D03*
X0353481Y0118750D03*
X0353081Y0109250D03*
X0349881Y0109250D03*
X0386481Y0057250D03*
X0390481Y0057250D03*
X0394481Y0057250D03*
X0451881Y0109250D03*
X0455081Y0109250D03*
X0455481Y0118750D03*
X0451481Y0118750D03*
X0433981Y0121250D03*
X0429981Y0121250D03*
X0394481Y0179250D03*
X0390481Y0179250D03*
X0386481Y0179250D03*
X0488481Y0179250D03*
X0492481Y0179250D03*
X0496481Y0179250D03*
X0531981Y0121250D03*
X0535981Y0121250D03*
X0553481Y0118750D03*
X0557481Y0118750D03*
X0557081Y0109250D03*
X0553881Y0109250D03*
X0633981Y0121250D03*
X0637981Y0121250D03*
X0598481Y0179250D03*
X0594481Y0179250D03*
X0590481Y0179250D03*
X0590481Y0057250D03*
X0594481Y0057250D03*
X0598481Y0057250D03*
X0496481Y0057250D03*
X0492481Y0057250D03*
X0488481Y0057250D03*
X0292481Y0057250D03*
X0288481Y0057250D03*
X0284481Y0057250D03*
X0088481Y0057250D03*
X0084481Y0057250D03*
X0080481Y0057250D03*
X0047081Y0109250D03*
X0043881Y0109250D03*
X0043481Y0118750D03*
X0047481Y0118750D03*
D12*
X0046231Y0118981D02*
X0044731Y0118981D01*
X0044731Y0119250D02*
X0044731Y0118250D01*
X0046231Y0118250D01*
X0046231Y0119250D01*
X0044731Y0119250D01*
X0044731Y0118482D02*
X0046231Y0118482D01*
X0125231Y0120750D02*
X0125231Y0121750D01*
X0126731Y0121750D01*
X0126731Y0120750D01*
X0125231Y0120750D01*
X0125231Y0120975D02*
X0126731Y0120975D01*
X0126731Y0121473D02*
X0125231Y0121473D01*
X0146731Y0119250D02*
X0146731Y0118250D01*
X0148231Y0118250D01*
X0148231Y0119250D01*
X0146731Y0119250D01*
X0146731Y0118981D02*
X0148231Y0118981D01*
X0148231Y0118482D02*
X0146731Y0118482D01*
X0227231Y0120750D02*
X0227231Y0121750D01*
X0228731Y0121750D01*
X0228731Y0120750D01*
X0227231Y0120750D01*
X0227231Y0120975D02*
X0228731Y0120975D01*
X0228731Y0121473D02*
X0227231Y0121473D01*
X0248731Y0119250D02*
X0248731Y0118250D01*
X0250231Y0118250D01*
X0250231Y0119250D01*
X0248731Y0119250D01*
X0248731Y0118981D02*
X0250231Y0118981D01*
X0250231Y0118482D02*
X0248731Y0118482D01*
X0329231Y0120750D02*
X0329231Y0121750D01*
X0330731Y0121750D01*
X0330731Y0120750D01*
X0329231Y0120750D01*
X0329231Y0120975D02*
X0330731Y0120975D01*
X0330731Y0121473D02*
X0329231Y0121473D01*
X0350731Y0119250D02*
X0350731Y0118250D01*
X0352231Y0118250D01*
X0352231Y0119250D01*
X0350731Y0119250D01*
X0350731Y0118981D02*
X0352231Y0118981D01*
X0352231Y0118482D02*
X0350731Y0118482D01*
X0431231Y0120750D02*
X0431231Y0121750D01*
X0432731Y0121750D01*
X0432731Y0120750D01*
X0431231Y0120750D01*
X0431231Y0120975D02*
X0432731Y0120975D01*
X0432731Y0121473D02*
X0431231Y0121473D01*
X0452731Y0119250D02*
X0452731Y0118250D01*
X0454231Y0118250D01*
X0454231Y0119250D01*
X0452731Y0119250D01*
X0452731Y0118981D02*
X0454231Y0118981D01*
X0454231Y0118482D02*
X0452731Y0118482D01*
X0533231Y0120750D02*
X0533231Y0121750D01*
X0534731Y0121750D01*
X0534731Y0120750D01*
X0533231Y0120750D01*
X0533231Y0120975D02*
X0534731Y0120975D01*
X0534731Y0121473D02*
X0533231Y0121473D01*
X0554731Y0119250D02*
X0554731Y0118250D01*
X0556231Y0118250D01*
X0556231Y0119250D01*
X0554731Y0119250D01*
X0554731Y0118981D02*
X0556231Y0118981D01*
X0556231Y0118482D02*
X0554731Y0118482D01*
X0635231Y0120750D02*
X0635231Y0121750D01*
X0636731Y0121750D01*
X0636731Y0120750D01*
X0635231Y0120750D01*
X0635231Y0120975D02*
X0636731Y0120975D01*
X0636731Y0121473D02*
X0635231Y0121473D01*
X0597231Y0178750D02*
X0597231Y0179750D01*
X0591731Y0179750D01*
X0591731Y0178750D01*
X0597231Y0178750D01*
X0597231Y0178802D02*
X0591731Y0178802D01*
X0591731Y0179300D02*
X0597231Y0179300D01*
X0495231Y0179300D02*
X0489731Y0179300D01*
X0489731Y0179750D02*
X0489731Y0178750D01*
X0495231Y0178750D01*
X0495231Y0179750D01*
X0489731Y0179750D01*
X0489731Y0178802D02*
X0495231Y0178802D01*
X0454231Y0240250D02*
X0454231Y0241250D01*
X0452731Y0241250D01*
X0452731Y0240250D01*
X0454231Y0240250D01*
X0454231Y0240617D02*
X0452731Y0240617D01*
X0452731Y0241116D02*
X0454231Y0241116D01*
X0432731Y0242750D02*
X0432731Y0243750D01*
X0431231Y0243750D01*
X0431231Y0242750D01*
X0432731Y0242750D01*
X0432731Y0243110D02*
X0431231Y0243110D01*
X0431231Y0243608D02*
X0432731Y0243608D01*
X0352231Y0241250D02*
X0352231Y0240250D01*
X0350731Y0240250D01*
X0350731Y0241250D01*
X0352231Y0241250D01*
X0352231Y0241116D02*
X0350731Y0241116D01*
X0350731Y0240617D02*
X0352231Y0240617D01*
X0330731Y0242750D02*
X0330731Y0243750D01*
X0329231Y0243750D01*
X0329231Y0242750D01*
X0330731Y0242750D01*
X0330731Y0243110D02*
X0329231Y0243110D01*
X0329231Y0243608D02*
X0330731Y0243608D01*
X0250231Y0241250D02*
X0250231Y0240250D01*
X0248731Y0240250D01*
X0248731Y0241250D01*
X0250231Y0241250D01*
X0250231Y0241116D02*
X0248731Y0241116D01*
X0248731Y0240617D02*
X0250231Y0240617D01*
X0228731Y0242750D02*
X0228731Y0243750D01*
X0227231Y0243750D01*
X0227231Y0242750D01*
X0228731Y0242750D01*
X0228731Y0243110D02*
X0227231Y0243110D01*
X0227231Y0243608D02*
X0228731Y0243608D01*
X0148231Y0241250D02*
X0148231Y0240250D01*
X0146731Y0240250D01*
X0146731Y0241250D01*
X0148231Y0241250D01*
X0148231Y0241116D02*
X0146731Y0241116D01*
X0146731Y0240617D02*
X0148231Y0240617D01*
X0126731Y0242750D02*
X0126731Y0243750D01*
X0125231Y0243750D01*
X0125231Y0242750D01*
X0126731Y0242750D01*
X0126731Y0243110D02*
X0125231Y0243110D01*
X0125231Y0243608D02*
X0126731Y0243608D01*
X0046231Y0241250D02*
X0046231Y0240250D01*
X0044731Y0240250D01*
X0044731Y0241250D01*
X0046231Y0241250D01*
X0046231Y0241116D02*
X0044731Y0241116D01*
X0044731Y0240617D02*
X0046231Y0240617D01*
X0081731Y0300750D02*
X0087231Y0300750D01*
X0087231Y0301750D01*
X0081731Y0301750D01*
X0081731Y0300750D01*
X0081731Y0300937D02*
X0087231Y0300937D01*
X0087231Y0301436D02*
X0081731Y0301436D01*
X0046231Y0362250D02*
X0044731Y0362250D01*
X0044731Y0363250D01*
X0046231Y0363250D01*
X0046231Y0362250D01*
X0046231Y0362254D02*
X0044731Y0362254D01*
X0044731Y0362753D02*
X0046231Y0362753D01*
X0125231Y0364750D02*
X0125231Y0365750D01*
X0126731Y0365750D01*
X0126731Y0364750D01*
X0125231Y0364750D01*
X0125231Y0365245D02*
X0126731Y0365245D01*
X0126731Y0365744D02*
X0125231Y0365744D01*
X0146731Y0363250D02*
X0146731Y0362250D01*
X0148231Y0362250D01*
X0148231Y0363250D01*
X0146731Y0363250D01*
X0146731Y0362753D02*
X0148231Y0362753D01*
X0148231Y0362254D02*
X0146731Y0362254D01*
X0227231Y0364750D02*
X0227231Y0365750D01*
X0228731Y0365750D01*
X0228731Y0364750D01*
X0227231Y0364750D01*
X0227231Y0365245D02*
X0228731Y0365245D01*
X0228731Y0365744D02*
X0227231Y0365744D01*
X0248731Y0363250D02*
X0248731Y0362250D01*
X0250231Y0362250D01*
X0250231Y0363250D01*
X0248731Y0363250D01*
X0248731Y0362753D02*
X0250231Y0362753D01*
X0250231Y0362254D02*
X0248731Y0362254D01*
X0329231Y0364750D02*
X0329231Y0365750D01*
X0330731Y0365750D01*
X0330731Y0364750D01*
X0329231Y0364750D01*
X0329231Y0365245D02*
X0330731Y0365245D01*
X0330731Y0365744D02*
X0329231Y0365744D01*
X0350731Y0363250D02*
X0350731Y0362250D01*
X0352231Y0362250D01*
X0352231Y0363250D01*
X0350731Y0363250D01*
X0350731Y0362753D02*
X0352231Y0362753D01*
X0352231Y0362254D02*
X0350731Y0362254D01*
X0431231Y0364750D02*
X0431231Y0365750D01*
X0432731Y0365750D01*
X0432731Y0364750D01*
X0431231Y0364750D01*
X0431231Y0365245D02*
X0432731Y0365245D01*
X0432731Y0365744D02*
X0431231Y0365744D01*
X0452731Y0363250D02*
X0452731Y0362250D01*
X0454231Y0362250D01*
X0454231Y0363250D01*
X0452731Y0363250D01*
X0452731Y0362753D02*
X0454231Y0362753D01*
X0454231Y0362254D02*
X0452731Y0362254D01*
X0533231Y0364750D02*
X0533231Y0365750D01*
X0534731Y0365750D01*
X0534731Y0364750D01*
X0533231Y0364750D01*
X0533231Y0365245D02*
X0534731Y0365245D01*
X0534731Y0365744D02*
X0533231Y0365744D01*
X0554731Y0363250D02*
X0554731Y0362250D01*
X0556231Y0362250D01*
X0556231Y0363250D01*
X0554731Y0363250D01*
X0554731Y0362753D02*
X0556231Y0362753D01*
X0556231Y0362254D02*
X0554731Y0362254D01*
X0635231Y0364750D02*
X0635231Y0365750D01*
X0636731Y0365750D01*
X0636731Y0364750D01*
X0635231Y0364750D01*
X0635231Y0365245D02*
X0636731Y0365245D01*
X0636731Y0365744D02*
X0635231Y0365744D01*
X0597231Y0301750D02*
X0597231Y0300750D01*
X0591731Y0300750D01*
X0591731Y0301750D01*
X0597231Y0301750D01*
X0597231Y0301436D02*
X0591731Y0301436D01*
X0591731Y0300937D02*
X0597231Y0300937D01*
X0635231Y0243750D02*
X0635231Y0242750D01*
X0636731Y0242750D01*
X0636731Y0243750D01*
X0635231Y0243750D01*
X0635231Y0243608D02*
X0636731Y0243608D01*
X0636731Y0243110D02*
X0635231Y0243110D01*
X0556231Y0241250D02*
X0556231Y0240250D01*
X0554731Y0240250D01*
X0554731Y0241250D01*
X0556231Y0241250D01*
X0556231Y0241116D02*
X0554731Y0241116D01*
X0554731Y0240617D02*
X0556231Y0240617D01*
X0534731Y0242750D02*
X0534731Y0243750D01*
X0533231Y0243750D01*
X0533231Y0242750D01*
X0534731Y0242750D01*
X0534731Y0243110D02*
X0533231Y0243110D01*
X0533231Y0243608D02*
X0534731Y0243608D01*
X0495231Y0300750D02*
X0489731Y0300750D01*
X0489731Y0301750D01*
X0495231Y0301750D01*
X0495231Y0300750D01*
X0495231Y0300937D02*
X0489731Y0300937D01*
X0489731Y0301436D02*
X0495231Y0301436D01*
X0393231Y0301436D02*
X0387731Y0301436D01*
X0387731Y0301750D02*
X0387731Y0300750D01*
X0393231Y0300750D01*
X0393231Y0301750D01*
X0387731Y0301750D01*
X0387731Y0300937D02*
X0393231Y0300937D01*
X0291231Y0300937D02*
X0285731Y0300937D01*
X0285731Y0300750D02*
X0291231Y0300750D01*
X0291231Y0301750D01*
X0285731Y0301750D01*
X0285731Y0300750D01*
X0285731Y0301436D02*
X0291231Y0301436D01*
X0189231Y0301436D02*
X0183731Y0301436D01*
X0183731Y0301750D02*
X0183731Y0300750D01*
X0189231Y0300750D01*
X0189231Y0301750D01*
X0183731Y0301750D01*
X0183731Y0300937D02*
X0189231Y0300937D01*
X0189231Y0179750D02*
X0183731Y0179750D01*
X0183731Y0178750D01*
X0189231Y0178750D01*
X0189231Y0179750D01*
X0189231Y0179300D02*
X0183731Y0179300D01*
X0183731Y0178802D02*
X0189231Y0178802D01*
X0285731Y0178802D02*
X0291231Y0178802D01*
X0291231Y0178750D02*
X0291231Y0179750D01*
X0285731Y0179750D01*
X0285731Y0178750D01*
X0291231Y0178750D01*
X0291231Y0179300D02*
X0285731Y0179300D01*
X0387731Y0179300D02*
X0393231Y0179300D01*
X0393231Y0179750D02*
X0393231Y0178750D01*
X0387731Y0178750D01*
X0387731Y0179750D01*
X0393231Y0179750D01*
X0393231Y0178802D02*
X0387731Y0178802D01*
X0387731Y0057750D02*
X0387731Y0056750D01*
X0393231Y0056750D01*
X0393231Y0057750D01*
X0387731Y0057750D01*
X0387731Y0057664D02*
X0393231Y0057664D01*
X0393231Y0057165D02*
X0387731Y0057165D01*
X0291231Y0057165D02*
X0285731Y0057165D01*
X0285731Y0056750D02*
X0291231Y0056750D01*
X0291231Y0057750D01*
X0285731Y0057750D01*
X0285731Y0056750D01*
X0285731Y0057664D02*
X0291231Y0057664D01*
X0189231Y0057664D02*
X0183731Y0057664D01*
X0183731Y0057750D02*
X0183731Y0056750D01*
X0189231Y0056750D01*
X0189231Y0057750D01*
X0183731Y0057750D01*
X0183731Y0057165D02*
X0189231Y0057165D01*
X0087231Y0057165D02*
X0081731Y0057165D01*
X0081731Y0056750D02*
X0087231Y0056750D01*
X0087231Y0057750D01*
X0081731Y0057750D01*
X0081731Y0056750D01*
X0081731Y0057664D02*
X0087231Y0057664D01*
X0087231Y0178750D02*
X0081731Y0178750D01*
X0081731Y0179750D01*
X0087231Y0179750D01*
X0087231Y0178750D01*
X0087231Y0178802D02*
X0081731Y0178802D01*
X0081731Y0179300D02*
X0087231Y0179300D01*
X0489731Y0057750D02*
X0489731Y0056750D01*
X0495231Y0056750D01*
X0495231Y0057750D01*
X0489731Y0057750D01*
X0489731Y0057664D02*
X0495231Y0057664D01*
X0495231Y0057165D02*
X0489731Y0057165D01*
X0591731Y0057165D02*
X0597231Y0057165D01*
X0597231Y0056750D02*
X0597231Y0057750D01*
X0591731Y0057750D01*
X0591731Y0056750D01*
X0597231Y0056750D01*
X0597231Y0057664D02*
X0591731Y0057664D01*
D13*
X0049481Y0033750D03*
X0059481Y0033750D03*
X0069481Y0033750D03*
X0079481Y0033750D03*
X0089481Y0033750D03*
X0099481Y0033750D03*
X0109481Y0033750D03*
X0119481Y0033750D03*
X0151481Y0033750D03*
X0161481Y0033750D03*
X0171481Y0033750D03*
X0181481Y0033750D03*
X0191481Y0033750D03*
X0201481Y0033750D03*
X0211481Y0033750D03*
X0221481Y0033750D03*
X0253481Y0033750D03*
X0263481Y0033750D03*
X0273481Y0033750D03*
X0283481Y0033750D03*
X0293481Y0033750D03*
X0303481Y0033750D03*
X0313481Y0033750D03*
X0323481Y0033750D03*
X0355481Y0033750D03*
X0365481Y0033750D03*
X0375481Y0033750D03*
X0385481Y0033750D03*
X0395481Y0033750D03*
X0405481Y0033750D03*
X0415481Y0033750D03*
X0425481Y0033750D03*
X0457481Y0033750D03*
X0467481Y0033750D03*
X0477481Y0033750D03*
X0487481Y0033750D03*
X0497481Y0033750D03*
X0507481Y0033750D03*
X0517481Y0033750D03*
X0527481Y0033750D03*
X0559481Y0033750D03*
X0569481Y0033750D03*
X0579481Y0033750D03*
X0589481Y0033750D03*
X0599481Y0033750D03*
X0609481Y0033750D03*
X0619481Y0033750D03*
X0629481Y0033750D03*
X0629481Y0155750D03*
X0619481Y0155750D03*
X0609481Y0155750D03*
X0599481Y0155750D03*
X0589481Y0155750D03*
X0579481Y0155750D03*
X0569481Y0155750D03*
X0559481Y0155750D03*
X0527481Y0155750D03*
X0517481Y0155750D03*
X0507481Y0155750D03*
X0497481Y0155750D03*
X0487481Y0155750D03*
X0477481Y0155750D03*
X0467481Y0155750D03*
X0457481Y0155750D03*
X0425481Y0155750D03*
X0415481Y0155750D03*
X0405481Y0155750D03*
X0395481Y0155750D03*
X0385481Y0155750D03*
X0375481Y0155750D03*
X0365481Y0155750D03*
X0355481Y0155750D03*
X0323481Y0155750D03*
X0313481Y0155750D03*
X0303481Y0155750D03*
X0293481Y0155750D03*
X0283481Y0155750D03*
X0273481Y0155750D03*
X0263481Y0155750D03*
X0253481Y0155750D03*
X0221481Y0155750D03*
X0211481Y0155750D03*
X0201481Y0155750D03*
X0191481Y0155750D03*
X0181481Y0155750D03*
X0171481Y0155750D03*
X0161481Y0155750D03*
X0151481Y0155750D03*
X0119481Y0155750D03*
X0109481Y0155750D03*
X0099481Y0155750D03*
X0089481Y0155750D03*
X0079481Y0155750D03*
X0069481Y0155750D03*
X0059481Y0155750D03*
X0049481Y0155750D03*
X0049481Y0277750D03*
X0059481Y0277750D03*
X0069481Y0277750D03*
X0079481Y0277750D03*
X0089481Y0277750D03*
X0099481Y0277750D03*
X0109481Y0277750D03*
X0119481Y0277750D03*
X0151481Y0277750D03*
X0161481Y0277750D03*
X0171481Y0277750D03*
X0181481Y0277750D03*
X0191481Y0277750D03*
X0201481Y0277750D03*
X0211481Y0277750D03*
X0221481Y0277750D03*
X0253481Y0277750D03*
X0263481Y0277750D03*
X0273481Y0277750D03*
X0283481Y0277750D03*
X0293481Y0277750D03*
X0303481Y0277750D03*
X0313481Y0277750D03*
X0323481Y0277750D03*
X0355481Y0277750D03*
X0365481Y0277750D03*
X0375481Y0277750D03*
X0385481Y0277750D03*
X0395481Y0277750D03*
X0405481Y0277750D03*
X0415481Y0277750D03*
X0425481Y0277750D03*
X0457481Y0277750D03*
X0467481Y0277750D03*
X0477481Y0277750D03*
X0487481Y0277750D03*
X0497481Y0277750D03*
X0507481Y0277750D03*
X0517481Y0277750D03*
X0527481Y0277750D03*
X0559481Y0277750D03*
X0569481Y0277750D03*
X0579481Y0277750D03*
X0589481Y0277750D03*
X0599481Y0277750D03*
X0609481Y0277750D03*
X0619481Y0277750D03*
X0629481Y0277750D03*
D14*
X0640981Y0276250D03*
X0547481Y0267750D03*
X0538981Y0276250D03*
X0445481Y0267750D03*
X0436981Y0276250D03*
X0343481Y0267750D03*
X0334981Y0276250D03*
X0241481Y0267750D03*
X0232981Y0276250D03*
X0139481Y0267750D03*
X0130981Y0276250D03*
X0037481Y0267750D03*
X0130981Y0154250D03*
X0139481Y0145750D03*
X0232981Y0154250D03*
X0241481Y0145750D03*
X0334981Y0154250D03*
X0343481Y0145750D03*
X0436981Y0154250D03*
X0445481Y0145750D03*
X0538981Y0154250D03*
X0547481Y0145750D03*
X0640981Y0154250D03*
X0640981Y0032250D03*
X0538981Y0032250D03*
X0436981Y0032250D03*
X0334981Y0032250D03*
X0232981Y0032250D03*
X0130981Y0032250D03*
X0037481Y0145750D03*
X0037481Y0389750D03*
X0139481Y0389750D03*
X0241481Y0389750D03*
X0343481Y0389750D03*
X0445481Y0389750D03*
X0547481Y0389750D03*
D15*
X0527907Y0347961D03*
X0516096Y0340087D03*
X0527907Y0332213D03*
X0516096Y0324339D03*
X0527907Y0316465D03*
X0558996Y0324339D03*
X0570807Y0332213D03*
X0558996Y0340087D03*
X0570807Y0347961D03*
X0618096Y0340087D03*
X0629907Y0332213D03*
X0618096Y0324339D03*
X0629907Y0316465D03*
X0629907Y0347961D03*
X0570807Y0316465D03*
X0558996Y0308591D03*
X0570807Y0300717D03*
X0468807Y0300717D03*
X0456996Y0308591D03*
X0468807Y0316465D03*
X0456996Y0324339D03*
X0468807Y0332213D03*
X0456996Y0340087D03*
X0468807Y0347961D03*
X0425907Y0347961D03*
X0414096Y0340087D03*
X0425907Y0332213D03*
X0414096Y0324339D03*
X0425907Y0316465D03*
X0366807Y0316465D03*
X0354996Y0324339D03*
X0366807Y0332213D03*
X0354996Y0340087D03*
X0366807Y0347961D03*
X0323907Y0347961D03*
X0312096Y0340087D03*
X0323907Y0332213D03*
X0312096Y0324339D03*
X0323907Y0316465D03*
X0354996Y0308591D03*
X0366807Y0300717D03*
X0264807Y0300717D03*
X0252996Y0308591D03*
X0264807Y0316465D03*
X0252996Y0324339D03*
X0264807Y0332213D03*
X0252996Y0340087D03*
X0264807Y0347961D03*
X0221907Y0347961D03*
X0210096Y0340087D03*
X0221907Y0332213D03*
X0210096Y0324339D03*
X0221907Y0316465D03*
X0162807Y0316465D03*
X0150996Y0324339D03*
X0162807Y0332213D03*
X0150996Y0340087D03*
X0162807Y0347961D03*
X0119907Y0347961D03*
X0108096Y0340087D03*
X0119907Y0332213D03*
X0108096Y0324339D03*
X0119907Y0316465D03*
X0150996Y0308591D03*
X0162807Y0300717D03*
X0060807Y0300717D03*
X0048996Y0308591D03*
X0060807Y0316465D03*
X0048996Y0324339D03*
X0060807Y0332213D03*
X0048996Y0340087D03*
X0060807Y0347961D03*
X0060807Y0225961D03*
X0048996Y0218087D03*
X0060807Y0210213D03*
X0048996Y0202339D03*
X0060807Y0194465D03*
X0048996Y0186591D03*
X0060807Y0178717D03*
X0108096Y0202339D03*
X0119907Y0210213D03*
X0108096Y0218087D03*
X0119907Y0225961D03*
X0150996Y0218087D03*
X0162807Y0225961D03*
X0162807Y0210213D03*
X0150996Y0202339D03*
X0162807Y0194465D03*
X0150996Y0186591D03*
X0162807Y0178717D03*
X0119907Y0194465D03*
X0210096Y0202339D03*
X0221907Y0194465D03*
X0221907Y0210213D03*
X0210096Y0218087D03*
X0221907Y0225961D03*
X0252996Y0218087D03*
X0264807Y0210213D03*
X0252996Y0202339D03*
X0264807Y0194465D03*
X0252996Y0186591D03*
X0264807Y0178717D03*
X0312096Y0202339D03*
X0323907Y0210213D03*
X0312096Y0218087D03*
X0323907Y0225961D03*
X0354996Y0218087D03*
X0366807Y0210213D03*
X0354996Y0202339D03*
X0366807Y0194465D03*
X0354996Y0186591D03*
X0366807Y0178717D03*
X0323907Y0194465D03*
X0366807Y0225961D03*
X0414096Y0218087D03*
X0425907Y0225961D03*
X0425907Y0210213D03*
X0414096Y0202339D03*
X0425907Y0194465D03*
X0456996Y0202339D03*
X0468807Y0194465D03*
X0456996Y0186591D03*
X0468807Y0178717D03*
X0468807Y0210213D03*
X0456996Y0218087D03*
X0468807Y0225961D03*
X0516096Y0218087D03*
X0527907Y0225961D03*
X0527907Y0210213D03*
X0516096Y0202339D03*
X0527907Y0194465D03*
X0558996Y0202339D03*
X0570807Y0210213D03*
X0558996Y0218087D03*
X0570807Y0225961D03*
X0570807Y0194465D03*
X0558996Y0186591D03*
X0570807Y0178717D03*
X0618096Y0202339D03*
X0629907Y0210213D03*
X0618096Y0218087D03*
X0629907Y0225961D03*
X0629907Y0194465D03*
X0629907Y0103961D03*
X0618096Y0096087D03*
X0629907Y0088213D03*
X0618096Y0080339D03*
X0629907Y0072465D03*
X0570807Y0072465D03*
X0558996Y0080339D03*
X0570807Y0088213D03*
X0558996Y0096087D03*
X0570807Y0103961D03*
X0527907Y0103961D03*
X0516096Y0096087D03*
X0527907Y0088213D03*
X0516096Y0080339D03*
X0527907Y0072465D03*
X0558996Y0064591D03*
X0570807Y0056717D03*
X0468807Y0056717D03*
X0456996Y0064591D03*
X0468807Y0072465D03*
X0456996Y0080339D03*
X0468807Y0088213D03*
X0456996Y0096087D03*
X0468807Y0103961D03*
X0425907Y0103961D03*
X0414096Y0096087D03*
X0425907Y0088213D03*
X0414096Y0080339D03*
X0425907Y0072465D03*
X0366807Y0072465D03*
X0354996Y0080339D03*
X0366807Y0088213D03*
X0354996Y0096087D03*
X0366807Y0103961D03*
X0323907Y0103961D03*
X0312096Y0096087D03*
X0323907Y0088213D03*
X0312096Y0080339D03*
X0323907Y0072465D03*
X0354996Y0064591D03*
X0366807Y0056717D03*
X0264807Y0056717D03*
X0252996Y0064591D03*
X0264807Y0072465D03*
X0252996Y0080339D03*
X0264807Y0088213D03*
X0252996Y0096087D03*
X0264807Y0103961D03*
X0221907Y0103961D03*
X0210096Y0096087D03*
X0221907Y0088213D03*
X0210096Y0080339D03*
X0221907Y0072465D03*
X0162807Y0072465D03*
X0150996Y0064591D03*
X0162807Y0056717D03*
X0150996Y0080339D03*
X0162807Y0088213D03*
X0150996Y0096087D03*
X0162807Y0103961D03*
X0119907Y0103961D03*
X0108096Y0096087D03*
X0119907Y0088213D03*
X0108096Y0080339D03*
X0119907Y0072465D03*
X0060807Y0072465D03*
X0048996Y0080339D03*
X0060807Y0088213D03*
X0048996Y0096087D03*
X0060807Y0103961D03*
X0048996Y0064591D03*
X0060807Y0056717D03*
X0264807Y0225961D03*
D16*
X0278481Y0194750D03*
X0288481Y0194750D03*
X0298481Y0194750D03*
X0298481Y0184750D03*
X0288481Y0184750D03*
X0278481Y0184750D03*
X0196481Y0184750D03*
X0186481Y0184750D03*
X0176481Y0184750D03*
X0176481Y0194750D03*
X0186481Y0194750D03*
X0196481Y0194750D03*
X0094481Y0194750D03*
X0084481Y0194750D03*
X0074481Y0194750D03*
X0074481Y0184750D03*
X0084481Y0184750D03*
X0094481Y0184750D03*
X0094481Y0072750D03*
X0084481Y0072750D03*
X0074481Y0072750D03*
X0074481Y0062750D03*
X0084481Y0062750D03*
X0094481Y0062750D03*
X0176481Y0062750D03*
X0186481Y0062750D03*
X0186481Y0072750D03*
X0176481Y0072750D03*
X0196481Y0072750D03*
X0196481Y0062750D03*
X0278481Y0062750D03*
X0288481Y0062750D03*
X0298481Y0062750D03*
X0298481Y0072750D03*
X0288481Y0072750D03*
X0278481Y0072750D03*
X0380481Y0072750D03*
X0380481Y0062750D03*
X0390481Y0062750D03*
X0400481Y0062750D03*
X0400481Y0072750D03*
X0390481Y0072750D03*
X0482481Y0072750D03*
X0492481Y0072750D03*
X0492481Y0062750D03*
X0482481Y0062750D03*
X0502481Y0062750D03*
X0502481Y0072750D03*
X0584481Y0072750D03*
X0594481Y0072750D03*
X0604481Y0072750D03*
X0604481Y0062750D03*
X0594481Y0062750D03*
X0584481Y0062750D03*
X0584481Y0184750D03*
X0594481Y0184750D03*
X0604481Y0184750D03*
X0604481Y0194750D03*
X0594481Y0194750D03*
X0584481Y0194750D03*
X0502481Y0194750D03*
X0492481Y0194750D03*
X0482481Y0194750D03*
X0482481Y0184750D03*
X0492481Y0184750D03*
X0502481Y0184750D03*
X0400481Y0184750D03*
X0390481Y0184750D03*
X0380481Y0184750D03*
X0380481Y0194750D03*
X0390481Y0194750D03*
X0400481Y0194750D03*
X0400481Y0306750D03*
X0390481Y0306750D03*
X0380481Y0306750D03*
X0380481Y0316750D03*
X0390481Y0316750D03*
X0400481Y0316750D03*
X0482481Y0316750D03*
X0492481Y0316750D03*
X0492481Y0306750D03*
X0482481Y0306750D03*
X0502481Y0306750D03*
X0502481Y0316750D03*
X0584481Y0316750D03*
X0594481Y0316750D03*
X0604481Y0316750D03*
X0604481Y0306750D03*
X0594481Y0306750D03*
X0584481Y0306750D03*
X0298481Y0306750D03*
X0288481Y0306750D03*
X0278481Y0306750D03*
X0278481Y0316750D03*
X0288481Y0316750D03*
X0298481Y0316750D03*
X0196481Y0316750D03*
X0186481Y0316750D03*
X0176481Y0316750D03*
X0176481Y0306750D03*
X0186481Y0306750D03*
X0196481Y0306750D03*
X0094481Y0306750D03*
X0084481Y0306750D03*
X0074481Y0306750D03*
X0074481Y0316750D03*
X0084481Y0316750D03*
X0094481Y0316750D03*
D17*
X0085481Y0353502D03*
X0085481Y0384998D03*
X0187481Y0384998D03*
X0187481Y0353502D03*
X0289481Y0353502D03*
X0289481Y0384998D03*
X0391481Y0384998D03*
X0391481Y0353502D03*
X0493481Y0353502D03*
X0493481Y0384998D03*
X0595481Y0384998D03*
X0595481Y0353502D03*
X0595481Y0262998D03*
X0595481Y0231502D03*
X0493481Y0231502D03*
X0493481Y0262998D03*
X0391481Y0262998D03*
X0391481Y0231502D03*
X0289481Y0231502D03*
X0289481Y0262998D03*
X0187481Y0262998D03*
X0187481Y0231502D03*
X0085481Y0231502D03*
X0085481Y0262998D03*
X0085481Y0140998D03*
X0085481Y0109502D03*
X0187481Y0109502D03*
X0187481Y0140998D03*
X0289481Y0140998D03*
X0289481Y0109502D03*
X0391481Y0109502D03*
X0391481Y0140998D03*
X0493481Y0140998D03*
X0493481Y0109502D03*
X0595481Y0109502D03*
X0595481Y0140998D03*
D18*
X0604340Y0140604D03*
X0580127Y0116392D03*
X0502340Y0140604D03*
X0478127Y0116392D03*
X0400340Y0140604D03*
X0376127Y0116392D03*
X0298340Y0140604D03*
X0274127Y0116392D03*
X0196340Y0140604D03*
X0172127Y0116392D03*
X0094340Y0140604D03*
X0070127Y0116392D03*
X0070127Y0238392D03*
X0094340Y0262604D03*
X0172127Y0238392D03*
X0196340Y0262604D03*
X0274127Y0238392D03*
X0298340Y0262604D03*
X0376127Y0238392D03*
X0400340Y0262604D03*
X0478127Y0238392D03*
X0502340Y0262604D03*
X0580127Y0238392D03*
X0604340Y0262604D03*
X0580127Y0360392D03*
X0604340Y0384604D03*
X0502340Y0384604D03*
X0478127Y0360392D03*
X0400340Y0384604D03*
X0376127Y0360392D03*
X0298340Y0384604D03*
X0274127Y0360392D03*
X0196340Y0384604D03*
X0172127Y0360392D03*
X0094340Y0384604D03*
X0070127Y0360392D03*
D19*
X0061481Y0401000D03*
X0617481Y0401000D03*
D20*
X0057916Y0020500D02*
X0057918Y0020619D01*
X0057924Y0020738D01*
X0057934Y0020857D01*
X0057948Y0020975D01*
X0057966Y0021093D01*
X0057987Y0021210D01*
X0058013Y0021326D01*
X0058043Y0021442D01*
X0058076Y0021556D01*
X0058113Y0021669D01*
X0058154Y0021781D01*
X0058199Y0021892D01*
X0058247Y0022001D01*
X0058299Y0022108D01*
X0058355Y0022213D01*
X0058414Y0022317D01*
X0058476Y0022418D01*
X0058542Y0022518D01*
X0058611Y0022615D01*
X0058683Y0022709D01*
X0058759Y0022802D01*
X0058837Y0022891D01*
X0058918Y0022978D01*
X0059003Y0023063D01*
X0059090Y0023144D01*
X0059179Y0023222D01*
X0059272Y0023298D01*
X0059366Y0023370D01*
X0059463Y0023439D01*
X0059563Y0023505D01*
X0059664Y0023567D01*
X0059768Y0023626D01*
X0059873Y0023682D01*
X0059980Y0023734D01*
X0060089Y0023782D01*
X0060200Y0023827D01*
X0060312Y0023868D01*
X0060425Y0023905D01*
X0060539Y0023938D01*
X0060655Y0023968D01*
X0060771Y0023994D01*
X0060888Y0024015D01*
X0061006Y0024033D01*
X0061124Y0024047D01*
X0061243Y0024057D01*
X0061362Y0024063D01*
X0061481Y0024065D01*
X0061600Y0024063D01*
X0061719Y0024057D01*
X0061838Y0024047D01*
X0061956Y0024033D01*
X0062074Y0024015D01*
X0062191Y0023994D01*
X0062307Y0023968D01*
X0062423Y0023938D01*
X0062537Y0023905D01*
X0062650Y0023868D01*
X0062762Y0023827D01*
X0062873Y0023782D01*
X0062982Y0023734D01*
X0063089Y0023682D01*
X0063194Y0023626D01*
X0063298Y0023567D01*
X0063399Y0023505D01*
X0063499Y0023439D01*
X0063596Y0023370D01*
X0063690Y0023298D01*
X0063783Y0023222D01*
X0063872Y0023144D01*
X0063959Y0023063D01*
X0064044Y0022978D01*
X0064125Y0022891D01*
X0064203Y0022802D01*
X0064279Y0022709D01*
X0064351Y0022615D01*
X0064420Y0022518D01*
X0064486Y0022418D01*
X0064548Y0022317D01*
X0064607Y0022213D01*
X0064663Y0022108D01*
X0064715Y0022001D01*
X0064763Y0021892D01*
X0064808Y0021781D01*
X0064849Y0021669D01*
X0064886Y0021556D01*
X0064919Y0021442D01*
X0064949Y0021326D01*
X0064975Y0021210D01*
X0064996Y0021093D01*
X0065014Y0020975D01*
X0065028Y0020857D01*
X0065038Y0020738D01*
X0065044Y0020619D01*
X0065046Y0020500D01*
X0065044Y0020381D01*
X0065038Y0020262D01*
X0065028Y0020143D01*
X0065014Y0020025D01*
X0064996Y0019907D01*
X0064975Y0019790D01*
X0064949Y0019674D01*
X0064919Y0019558D01*
X0064886Y0019444D01*
X0064849Y0019331D01*
X0064808Y0019219D01*
X0064763Y0019108D01*
X0064715Y0018999D01*
X0064663Y0018892D01*
X0064607Y0018787D01*
X0064548Y0018683D01*
X0064486Y0018582D01*
X0064420Y0018482D01*
X0064351Y0018385D01*
X0064279Y0018291D01*
X0064203Y0018198D01*
X0064125Y0018109D01*
X0064044Y0018022D01*
X0063959Y0017937D01*
X0063872Y0017856D01*
X0063783Y0017778D01*
X0063690Y0017702D01*
X0063596Y0017630D01*
X0063499Y0017561D01*
X0063399Y0017495D01*
X0063298Y0017433D01*
X0063194Y0017374D01*
X0063089Y0017318D01*
X0062982Y0017266D01*
X0062873Y0017218D01*
X0062762Y0017173D01*
X0062650Y0017132D01*
X0062537Y0017095D01*
X0062423Y0017062D01*
X0062307Y0017032D01*
X0062191Y0017006D01*
X0062074Y0016985D01*
X0061956Y0016967D01*
X0061838Y0016953D01*
X0061719Y0016943D01*
X0061600Y0016937D01*
X0061481Y0016935D01*
X0061362Y0016937D01*
X0061243Y0016943D01*
X0061124Y0016953D01*
X0061006Y0016967D01*
X0060888Y0016985D01*
X0060771Y0017006D01*
X0060655Y0017032D01*
X0060539Y0017062D01*
X0060425Y0017095D01*
X0060312Y0017132D01*
X0060200Y0017173D01*
X0060089Y0017218D01*
X0059980Y0017266D01*
X0059873Y0017318D01*
X0059768Y0017374D01*
X0059664Y0017433D01*
X0059563Y0017495D01*
X0059463Y0017561D01*
X0059366Y0017630D01*
X0059272Y0017702D01*
X0059179Y0017778D01*
X0059090Y0017856D01*
X0059003Y0017937D01*
X0058918Y0018022D01*
X0058837Y0018109D01*
X0058759Y0018198D01*
X0058683Y0018291D01*
X0058611Y0018385D01*
X0058542Y0018482D01*
X0058476Y0018582D01*
X0058414Y0018683D01*
X0058355Y0018787D01*
X0058299Y0018892D01*
X0058247Y0018999D01*
X0058199Y0019108D01*
X0058154Y0019219D01*
X0058113Y0019331D01*
X0058076Y0019444D01*
X0058043Y0019558D01*
X0058013Y0019674D01*
X0057987Y0019790D01*
X0057966Y0019907D01*
X0057948Y0020025D01*
X0057934Y0020143D01*
X0057924Y0020262D01*
X0057918Y0020381D01*
X0057916Y0020500D01*
D21*
X0061481Y0020500D03*
M02*
