G75*
%MOIN*%
%OFA0B0*%
%FSLAX25Y25*%
%IPPOS*%
%LPD*%
%AMOC8*
5,1,8,0,0,1.08239X$1,22.5*
%
%ADD10C,0.13800*%
%ADD11C,0.03300*%
%ADD12R,0.04737X0.05131*%
%ADD13R,0.08674X0.05524*%
%ADD14R,0.06115X0.03162*%
%ADD15C,0.08200*%
%ADD16R,0.05131X0.04737*%
%ADD17C,0.01990*%
%ADD18R,0.05524X0.03162*%
%ADD19C,0.03950*%
%ADD20R,0.04343X0.03950*%
%ADD21C,0.04737*%
%ADD22C,0.05000*%
%ADD23C,0.06706*%
D10*
X0044481Y0138750D03*
X0124481Y0138750D03*
X0146481Y0138750D03*
X0226481Y0138750D03*
X0248481Y0138750D03*
X0328481Y0138750D03*
X0350481Y0138750D03*
X0430481Y0138750D03*
X0452481Y0138750D03*
X0532481Y0138750D03*
X0554481Y0138750D03*
X0634481Y0138750D03*
X0634481Y0260750D03*
X0554481Y0260750D03*
X0532481Y0260750D03*
X0452481Y0260750D03*
X0430481Y0260750D03*
X0350481Y0260750D03*
X0328481Y0260750D03*
X0248481Y0260750D03*
X0226481Y0260750D03*
X0146481Y0260750D03*
X0124481Y0260750D03*
X0044481Y0260750D03*
X0044481Y0382750D03*
X0124481Y0382750D03*
X0146481Y0382750D03*
X0226481Y0382750D03*
X0248481Y0382750D03*
X0328481Y0382750D03*
X0350481Y0382750D03*
X0430481Y0382750D03*
X0452481Y0382750D03*
X0532481Y0382750D03*
X0554481Y0382750D03*
X0634481Y0382750D03*
D11*
X0547481Y0389750D03*
X0445481Y0389750D03*
X0343481Y0389750D03*
X0241481Y0389750D03*
X0139481Y0389750D03*
X0037481Y0389750D03*
X0130981Y0276250D03*
X0139481Y0267750D03*
X0232981Y0276250D03*
X0241481Y0267750D03*
X0334981Y0276250D03*
X0343481Y0267750D03*
X0436981Y0276250D03*
X0445481Y0267750D03*
X0538981Y0276250D03*
X0547481Y0267750D03*
X0640981Y0276250D03*
X0640981Y0154250D03*
X0547481Y0145750D03*
X0538981Y0154250D03*
X0445481Y0145750D03*
X0436981Y0154250D03*
X0343481Y0145750D03*
X0334981Y0154250D03*
X0241481Y0145750D03*
X0232981Y0154250D03*
X0139481Y0145750D03*
X0130981Y0154250D03*
X0037481Y0145750D03*
X0130981Y0032250D03*
X0232981Y0032250D03*
X0334981Y0032250D03*
X0436981Y0032250D03*
X0538981Y0032250D03*
X0640981Y0032250D03*
X0037481Y0267750D03*
D12*
X0061981Y0235596D03*
X0061981Y0228904D03*
X0061981Y0193096D03*
X0068481Y0193096D03*
X0068481Y0186404D03*
X0061981Y0186404D03*
X0100481Y0183404D03*
X0106481Y0183404D03*
X0106481Y0190096D03*
X0100481Y0190096D03*
X0163981Y0193096D03*
X0170481Y0193096D03*
X0170481Y0186404D03*
X0163981Y0186404D03*
X0202481Y0183404D03*
X0208481Y0183404D03*
X0208481Y0190096D03*
X0202481Y0190096D03*
X0163981Y0228904D03*
X0163981Y0235596D03*
X0265981Y0235596D03*
X0265981Y0228904D03*
X0265981Y0193096D03*
X0272481Y0193096D03*
X0272481Y0186404D03*
X0265981Y0186404D03*
X0304481Y0183404D03*
X0310481Y0183404D03*
X0310481Y0190096D03*
X0304481Y0190096D03*
X0367981Y0193096D03*
X0374481Y0193096D03*
X0374481Y0186404D03*
X0367981Y0186404D03*
X0406481Y0183404D03*
X0412481Y0183404D03*
X0412481Y0190096D03*
X0406481Y0190096D03*
X0367981Y0228904D03*
X0367981Y0235596D03*
X0469981Y0235596D03*
X0469981Y0228904D03*
X0469981Y0193096D03*
X0476481Y0193096D03*
X0476481Y0186404D03*
X0469981Y0186404D03*
X0508481Y0183404D03*
X0514481Y0183404D03*
X0514481Y0190096D03*
X0508481Y0190096D03*
X0571981Y0193096D03*
X0578481Y0193096D03*
X0578481Y0186404D03*
X0571981Y0186404D03*
X0610481Y0183404D03*
X0616481Y0183404D03*
X0616481Y0190096D03*
X0610481Y0190096D03*
X0571981Y0228904D03*
X0571981Y0235596D03*
X0571981Y0308404D03*
X0578481Y0308404D03*
X0578481Y0315096D03*
X0571981Y0315096D03*
X0610481Y0312096D03*
X0616481Y0312096D03*
X0616481Y0305404D03*
X0610481Y0305404D03*
X0571981Y0350904D03*
X0571981Y0357596D03*
X0514481Y0312096D03*
X0508481Y0312096D03*
X0508481Y0305404D03*
X0514481Y0305404D03*
X0476481Y0308404D03*
X0469981Y0308404D03*
X0469981Y0315096D03*
X0476481Y0315096D03*
X0469981Y0350904D03*
X0469981Y0357596D03*
X0412481Y0312096D03*
X0406481Y0312096D03*
X0406481Y0305404D03*
X0412481Y0305404D03*
X0374481Y0308404D03*
X0367981Y0308404D03*
X0367981Y0315096D03*
X0374481Y0315096D03*
X0367981Y0350904D03*
X0367981Y0357596D03*
X0310481Y0312096D03*
X0304481Y0312096D03*
X0304481Y0305404D03*
X0310481Y0305404D03*
X0272481Y0308404D03*
X0265981Y0308404D03*
X0265981Y0315096D03*
X0272481Y0315096D03*
X0265981Y0350904D03*
X0265981Y0357596D03*
X0208481Y0312096D03*
X0202481Y0312096D03*
X0202481Y0305404D03*
X0208481Y0305404D03*
X0170481Y0308404D03*
X0163981Y0308404D03*
X0163981Y0315096D03*
X0170481Y0315096D03*
X0163981Y0350904D03*
X0163981Y0357596D03*
X0106481Y0312096D03*
X0100481Y0312096D03*
X0100481Y0305404D03*
X0106481Y0305404D03*
X0068481Y0308404D03*
X0061981Y0308404D03*
X0061981Y0315096D03*
X0068481Y0315096D03*
X0061981Y0350904D03*
X0061981Y0357596D03*
X0061981Y0113596D03*
X0061981Y0106904D03*
X0061981Y0071096D03*
X0068481Y0071096D03*
X0068481Y0064404D03*
X0061981Y0064404D03*
X0100481Y0061404D03*
X0106481Y0061404D03*
X0106481Y0068096D03*
X0100481Y0068096D03*
X0163981Y0071096D03*
X0170481Y0071096D03*
X0170481Y0064404D03*
X0163981Y0064404D03*
X0202481Y0061404D03*
X0208481Y0061404D03*
X0208481Y0068096D03*
X0202481Y0068096D03*
X0265981Y0071096D03*
X0272481Y0071096D03*
X0272481Y0064404D03*
X0265981Y0064404D03*
X0304481Y0061404D03*
X0310481Y0061404D03*
X0310481Y0068096D03*
X0304481Y0068096D03*
X0265981Y0106904D03*
X0265981Y0113596D03*
X0163981Y0113596D03*
X0163981Y0106904D03*
X0367981Y0106904D03*
X0367981Y0113596D03*
X0367981Y0071096D03*
X0374481Y0071096D03*
X0374481Y0064404D03*
X0367981Y0064404D03*
X0406481Y0061404D03*
X0412481Y0061404D03*
X0412481Y0068096D03*
X0406481Y0068096D03*
X0469981Y0071096D03*
X0476481Y0071096D03*
X0476481Y0064404D03*
X0469981Y0064404D03*
X0508481Y0061404D03*
X0514481Y0061404D03*
X0514481Y0068096D03*
X0508481Y0068096D03*
X0571981Y0071096D03*
X0578481Y0071096D03*
X0578481Y0064404D03*
X0571981Y0064404D03*
X0610481Y0061404D03*
X0616481Y0061404D03*
X0616481Y0068096D03*
X0610481Y0068096D03*
X0571981Y0106904D03*
X0571981Y0113596D03*
X0469981Y0113596D03*
X0469981Y0106904D03*
D13*
X0448013Y0094774D03*
X0434950Y0094774D03*
X0434950Y0072726D03*
X0448013Y0072726D03*
X0536950Y0072726D03*
X0550013Y0072726D03*
X0550013Y0094774D03*
X0536950Y0094774D03*
X0638950Y0094774D03*
X0638950Y0072726D03*
X0638950Y0194726D03*
X0638950Y0216774D03*
X0550013Y0216774D03*
X0536950Y0216774D03*
X0536950Y0194726D03*
X0550013Y0194726D03*
X0448013Y0194726D03*
X0434950Y0194726D03*
X0434950Y0216774D03*
X0448013Y0216774D03*
X0346013Y0216774D03*
X0332950Y0216774D03*
X0332950Y0194726D03*
X0346013Y0194726D03*
X0244013Y0194726D03*
X0230950Y0194726D03*
X0230950Y0216774D03*
X0244013Y0216774D03*
X0142013Y0216774D03*
X0128950Y0216774D03*
X0128950Y0194726D03*
X0142013Y0194726D03*
X0040013Y0194726D03*
X0040013Y0216774D03*
X0040013Y0316726D03*
X0040013Y0338774D03*
X0128950Y0338774D03*
X0142013Y0338774D03*
X0142013Y0316726D03*
X0128950Y0316726D03*
X0230950Y0316726D03*
X0244013Y0316726D03*
X0244013Y0338774D03*
X0230950Y0338774D03*
X0332950Y0338774D03*
X0346013Y0338774D03*
X0346013Y0316726D03*
X0332950Y0316726D03*
X0434950Y0316726D03*
X0448013Y0316726D03*
X0448013Y0338774D03*
X0434950Y0338774D03*
X0536950Y0338774D03*
X0550013Y0338774D03*
X0550013Y0316726D03*
X0536950Y0316726D03*
X0638950Y0316726D03*
X0638950Y0338774D03*
X0346013Y0094774D03*
X0332950Y0094774D03*
X0332950Y0072726D03*
X0346013Y0072726D03*
X0244013Y0072726D03*
X0230950Y0072726D03*
X0230950Y0094774D03*
X0244013Y0094774D03*
X0142013Y0094774D03*
X0128950Y0094774D03*
X0128950Y0072726D03*
X0142013Y0072726D03*
X0040013Y0072726D03*
X0040013Y0094774D03*
D14*
X0054481Y0089656D03*
X0054481Y0085719D03*
X0054481Y0081781D03*
X0054481Y0077844D03*
X0114481Y0077844D03*
X0114481Y0081781D03*
X0114481Y0085719D03*
X0114481Y0089656D03*
X0156481Y0089656D03*
X0156481Y0085719D03*
X0156481Y0081781D03*
X0156481Y0077844D03*
X0216481Y0077844D03*
X0216481Y0081781D03*
X0216481Y0085719D03*
X0216481Y0089656D03*
X0258481Y0089656D03*
X0258481Y0085719D03*
X0258481Y0081781D03*
X0258481Y0077844D03*
X0318481Y0077844D03*
X0318481Y0081781D03*
X0318481Y0085719D03*
X0318481Y0089656D03*
X0360481Y0089656D03*
X0360481Y0085719D03*
X0360481Y0081781D03*
X0360481Y0077844D03*
X0420481Y0077844D03*
X0420481Y0081781D03*
X0420481Y0085719D03*
X0420481Y0089656D03*
X0462481Y0089656D03*
X0462481Y0085719D03*
X0462481Y0081781D03*
X0462481Y0077844D03*
X0522481Y0077844D03*
X0522481Y0081781D03*
X0522481Y0085719D03*
X0522481Y0089656D03*
X0564481Y0089656D03*
X0564481Y0085719D03*
X0564481Y0081781D03*
X0564481Y0077844D03*
X0624481Y0077844D03*
X0624481Y0081781D03*
X0624481Y0085719D03*
X0624481Y0089656D03*
X0624481Y0199844D03*
X0624481Y0203781D03*
X0624481Y0207719D03*
X0624481Y0211656D03*
X0564481Y0211656D03*
X0564481Y0207719D03*
X0564481Y0203781D03*
X0564481Y0199844D03*
X0522481Y0199844D03*
X0522481Y0203781D03*
X0522481Y0207719D03*
X0522481Y0211656D03*
X0462481Y0211656D03*
X0462481Y0207719D03*
X0462481Y0203781D03*
X0462481Y0199844D03*
X0420481Y0199844D03*
X0420481Y0203781D03*
X0420481Y0207719D03*
X0420481Y0211656D03*
X0360481Y0211656D03*
X0360481Y0207719D03*
X0360481Y0203781D03*
X0360481Y0199844D03*
X0318481Y0199844D03*
X0318481Y0203781D03*
X0318481Y0207719D03*
X0318481Y0211656D03*
X0258481Y0211656D03*
X0258481Y0207719D03*
X0258481Y0203781D03*
X0258481Y0199844D03*
X0216481Y0199844D03*
X0216481Y0203781D03*
X0216481Y0207719D03*
X0216481Y0211656D03*
X0156481Y0211656D03*
X0156481Y0207719D03*
X0156481Y0203781D03*
X0156481Y0199844D03*
X0114481Y0199844D03*
X0114481Y0203781D03*
X0114481Y0207719D03*
X0114481Y0211656D03*
X0054481Y0211656D03*
X0054481Y0207719D03*
X0054481Y0203781D03*
X0054481Y0199844D03*
X0054481Y0321844D03*
X0054481Y0325781D03*
X0054481Y0329719D03*
X0054481Y0333656D03*
X0114481Y0333656D03*
X0114481Y0329719D03*
X0114481Y0325781D03*
X0114481Y0321844D03*
X0156481Y0321844D03*
X0156481Y0325781D03*
X0156481Y0329719D03*
X0156481Y0333656D03*
X0216481Y0333656D03*
X0216481Y0329719D03*
X0216481Y0325781D03*
X0216481Y0321844D03*
X0258481Y0321844D03*
X0258481Y0325781D03*
X0258481Y0329719D03*
X0258481Y0333656D03*
X0318481Y0333656D03*
X0318481Y0329719D03*
X0318481Y0325781D03*
X0318481Y0321844D03*
X0360481Y0321844D03*
X0360481Y0325781D03*
X0360481Y0329719D03*
X0360481Y0333656D03*
X0420481Y0333656D03*
X0420481Y0329719D03*
X0420481Y0325781D03*
X0420481Y0321844D03*
X0462481Y0321844D03*
X0462481Y0325781D03*
X0462481Y0329719D03*
X0462481Y0333656D03*
X0522481Y0333656D03*
X0522481Y0329719D03*
X0522481Y0325781D03*
X0522481Y0321844D03*
X0564481Y0321844D03*
X0564481Y0325781D03*
X0564481Y0329719D03*
X0564481Y0333656D03*
X0624481Y0333656D03*
X0624481Y0329719D03*
X0624481Y0325781D03*
X0624481Y0321844D03*
D15*
X0049481Y0033750D03*
X0059481Y0033750D03*
X0069481Y0033750D03*
X0079481Y0033750D03*
X0089481Y0033750D03*
X0099481Y0033750D03*
X0109481Y0033750D03*
X0119481Y0033750D03*
X0151481Y0033750D03*
X0161481Y0033750D03*
X0171481Y0033750D03*
X0181481Y0033750D03*
X0191481Y0033750D03*
X0201481Y0033750D03*
X0211481Y0033750D03*
X0221481Y0033750D03*
X0253481Y0033750D03*
X0263481Y0033750D03*
X0273481Y0033750D03*
X0283481Y0033750D03*
X0293481Y0033750D03*
X0303481Y0033750D03*
X0313481Y0033750D03*
X0323481Y0033750D03*
X0355481Y0033750D03*
X0365481Y0033750D03*
X0375481Y0033750D03*
X0385481Y0033750D03*
X0395481Y0033750D03*
X0405481Y0033750D03*
X0415481Y0033750D03*
X0425481Y0033750D03*
X0457481Y0033750D03*
X0467481Y0033750D03*
X0477481Y0033750D03*
X0487481Y0033750D03*
X0497481Y0033750D03*
X0507481Y0033750D03*
X0517481Y0033750D03*
X0527481Y0033750D03*
X0559481Y0033750D03*
X0569481Y0033750D03*
X0579481Y0033750D03*
X0589481Y0033750D03*
X0599481Y0033750D03*
X0609481Y0033750D03*
X0619481Y0033750D03*
X0629481Y0033750D03*
X0629481Y0155750D03*
X0619481Y0155750D03*
X0609481Y0155750D03*
X0599481Y0155750D03*
X0589481Y0155750D03*
X0579481Y0155750D03*
X0569481Y0155750D03*
X0559481Y0155750D03*
X0527481Y0155750D03*
X0517481Y0155750D03*
X0507481Y0155750D03*
X0497481Y0155750D03*
X0487481Y0155750D03*
X0477481Y0155750D03*
X0467481Y0155750D03*
X0457481Y0155750D03*
X0425481Y0155750D03*
X0415481Y0155750D03*
X0405481Y0155750D03*
X0395481Y0155750D03*
X0385481Y0155750D03*
X0375481Y0155750D03*
X0365481Y0155750D03*
X0355481Y0155750D03*
X0323481Y0155750D03*
X0313481Y0155750D03*
X0303481Y0155750D03*
X0293481Y0155750D03*
X0283481Y0155750D03*
X0273481Y0155750D03*
X0263481Y0155750D03*
X0253481Y0155750D03*
X0221481Y0155750D03*
X0211481Y0155750D03*
X0201481Y0155750D03*
X0191481Y0155750D03*
X0181481Y0155750D03*
X0171481Y0155750D03*
X0161481Y0155750D03*
X0151481Y0155750D03*
X0119481Y0155750D03*
X0109481Y0155750D03*
X0099481Y0155750D03*
X0089481Y0155750D03*
X0079481Y0155750D03*
X0069481Y0155750D03*
X0059481Y0155750D03*
X0049481Y0155750D03*
X0049481Y0277750D03*
X0059481Y0277750D03*
X0069481Y0277750D03*
X0079481Y0277750D03*
X0089481Y0277750D03*
X0099481Y0277750D03*
X0109481Y0277750D03*
X0119481Y0277750D03*
X0151481Y0277750D03*
X0161481Y0277750D03*
X0171481Y0277750D03*
X0181481Y0277750D03*
X0191481Y0277750D03*
X0201481Y0277750D03*
X0211481Y0277750D03*
X0221481Y0277750D03*
X0253481Y0277750D03*
X0263481Y0277750D03*
X0273481Y0277750D03*
X0283481Y0277750D03*
X0293481Y0277750D03*
X0303481Y0277750D03*
X0313481Y0277750D03*
X0323481Y0277750D03*
X0355481Y0277750D03*
X0365481Y0277750D03*
X0375481Y0277750D03*
X0385481Y0277750D03*
X0395481Y0277750D03*
X0405481Y0277750D03*
X0415481Y0277750D03*
X0425481Y0277750D03*
X0457481Y0277750D03*
X0467481Y0277750D03*
X0477481Y0277750D03*
X0487481Y0277750D03*
X0497481Y0277750D03*
X0507481Y0277750D03*
X0517481Y0277750D03*
X0527481Y0277750D03*
X0559481Y0277750D03*
X0569481Y0277750D03*
X0579481Y0277750D03*
X0589481Y0277750D03*
X0599481Y0277750D03*
X0609481Y0277750D03*
X0619481Y0277750D03*
X0629481Y0277750D03*
D16*
X0578328Y0245750D03*
X0571635Y0245750D03*
X0558828Y0226250D03*
X0552135Y0226250D03*
X0534328Y0226250D03*
X0527635Y0226250D03*
X0476328Y0245750D03*
X0469635Y0245750D03*
X0456828Y0226250D03*
X0450135Y0226250D03*
X0432328Y0226250D03*
X0425635Y0226250D03*
X0374328Y0245750D03*
X0367635Y0245750D03*
X0354828Y0226250D03*
X0348135Y0226250D03*
X0330328Y0226250D03*
X0323635Y0226250D03*
X0272328Y0245750D03*
X0265635Y0245750D03*
X0252828Y0226250D03*
X0246135Y0226250D03*
X0228328Y0226250D03*
X0221635Y0226250D03*
X0170328Y0245750D03*
X0163635Y0245750D03*
X0150828Y0226250D03*
X0144135Y0226250D03*
X0126328Y0226250D03*
X0119635Y0226250D03*
X0068328Y0245750D03*
X0061635Y0245750D03*
X0048828Y0226250D03*
X0042135Y0226250D03*
X0061635Y0123750D03*
X0068328Y0123750D03*
X0048828Y0104250D03*
X0042135Y0104250D03*
X0119635Y0104250D03*
X0126328Y0104250D03*
X0144135Y0104250D03*
X0150828Y0104250D03*
X0163635Y0123750D03*
X0170328Y0123750D03*
X0221635Y0104250D03*
X0228328Y0104250D03*
X0246135Y0104250D03*
X0252828Y0104250D03*
X0265635Y0123750D03*
X0272328Y0123750D03*
X0323635Y0104250D03*
X0330328Y0104250D03*
X0348135Y0104250D03*
X0354828Y0104250D03*
X0367635Y0123750D03*
X0374328Y0123750D03*
X0425635Y0104250D03*
X0432328Y0104250D03*
X0450135Y0104250D03*
X0456828Y0104250D03*
X0469635Y0123750D03*
X0476328Y0123750D03*
X0527635Y0104250D03*
X0534328Y0104250D03*
X0552135Y0104250D03*
X0558828Y0104250D03*
X0571635Y0123750D03*
X0578328Y0123750D03*
X0629635Y0104250D03*
X0636328Y0104250D03*
X0636328Y0226250D03*
X0629635Y0226250D03*
X0629635Y0348250D03*
X0636328Y0348250D03*
X0578328Y0367750D03*
X0571635Y0367750D03*
X0558828Y0348250D03*
X0552135Y0348250D03*
X0534328Y0348250D03*
X0527635Y0348250D03*
X0476328Y0367750D03*
X0469635Y0367750D03*
X0456828Y0348250D03*
X0450135Y0348250D03*
X0432328Y0348250D03*
X0425635Y0348250D03*
X0374328Y0367750D03*
X0367635Y0367750D03*
X0354828Y0348250D03*
X0348135Y0348250D03*
X0330328Y0348250D03*
X0323635Y0348250D03*
X0272328Y0367750D03*
X0265635Y0367750D03*
X0252828Y0348250D03*
X0246135Y0348250D03*
X0228328Y0348250D03*
X0221635Y0348250D03*
X0170328Y0367750D03*
X0163635Y0367750D03*
X0150828Y0348250D03*
X0144135Y0348250D03*
X0126328Y0348250D03*
X0119635Y0348250D03*
X0068328Y0367750D03*
X0061635Y0367750D03*
X0048828Y0348250D03*
X0042135Y0348250D03*
D17*
X0040155Y0352877D02*
X0040155Y0355623D01*
X0042901Y0355623D01*
X0042901Y0352877D01*
X0040155Y0352877D01*
X0040155Y0354767D02*
X0042901Y0354767D01*
X0047061Y0355623D02*
X0047061Y0352877D01*
X0047061Y0355623D02*
X0049807Y0355623D01*
X0049807Y0352877D01*
X0047061Y0352877D01*
X0047061Y0354767D02*
X0049807Y0354767D01*
X0118155Y0355623D02*
X0118155Y0352877D01*
X0118155Y0355623D02*
X0120901Y0355623D01*
X0120901Y0352877D01*
X0118155Y0352877D01*
X0118155Y0354767D02*
X0120901Y0354767D01*
X0125061Y0355623D02*
X0125061Y0352877D01*
X0125061Y0355623D02*
X0127807Y0355623D01*
X0127807Y0352877D01*
X0125061Y0352877D01*
X0125061Y0354767D02*
X0127807Y0354767D01*
X0142155Y0355623D02*
X0142155Y0352877D01*
X0142155Y0355623D02*
X0144901Y0355623D01*
X0144901Y0352877D01*
X0142155Y0352877D01*
X0142155Y0354767D02*
X0144901Y0354767D01*
X0149061Y0355623D02*
X0149061Y0352877D01*
X0149061Y0355623D02*
X0151807Y0355623D01*
X0151807Y0352877D01*
X0149061Y0352877D01*
X0149061Y0354767D02*
X0151807Y0354767D01*
X0220155Y0355623D02*
X0220155Y0352877D01*
X0220155Y0355623D02*
X0222901Y0355623D01*
X0222901Y0352877D01*
X0220155Y0352877D01*
X0220155Y0354767D02*
X0222901Y0354767D01*
X0227061Y0355623D02*
X0227061Y0352877D01*
X0227061Y0355623D02*
X0229807Y0355623D01*
X0229807Y0352877D01*
X0227061Y0352877D01*
X0227061Y0354767D02*
X0229807Y0354767D01*
X0244155Y0355623D02*
X0244155Y0352877D01*
X0244155Y0355623D02*
X0246901Y0355623D01*
X0246901Y0352877D01*
X0244155Y0352877D01*
X0244155Y0354767D02*
X0246901Y0354767D01*
X0251061Y0355623D02*
X0251061Y0352877D01*
X0251061Y0355623D02*
X0253807Y0355623D01*
X0253807Y0352877D01*
X0251061Y0352877D01*
X0251061Y0354767D02*
X0253807Y0354767D01*
X0322155Y0355623D02*
X0322155Y0352877D01*
X0322155Y0355623D02*
X0324901Y0355623D01*
X0324901Y0352877D01*
X0322155Y0352877D01*
X0322155Y0354767D02*
X0324901Y0354767D01*
X0329061Y0355623D02*
X0329061Y0352877D01*
X0329061Y0355623D02*
X0331807Y0355623D01*
X0331807Y0352877D01*
X0329061Y0352877D01*
X0329061Y0354767D02*
X0331807Y0354767D01*
X0346155Y0355623D02*
X0346155Y0352877D01*
X0346155Y0355623D02*
X0348901Y0355623D01*
X0348901Y0352877D01*
X0346155Y0352877D01*
X0346155Y0354767D02*
X0348901Y0354767D01*
X0353061Y0355623D02*
X0353061Y0352877D01*
X0353061Y0355623D02*
X0355807Y0355623D01*
X0355807Y0352877D01*
X0353061Y0352877D01*
X0353061Y0354767D02*
X0355807Y0354767D01*
X0424155Y0355623D02*
X0424155Y0352877D01*
X0424155Y0355623D02*
X0426901Y0355623D01*
X0426901Y0352877D01*
X0424155Y0352877D01*
X0424155Y0354767D02*
X0426901Y0354767D01*
X0431061Y0355623D02*
X0431061Y0352877D01*
X0431061Y0355623D02*
X0433807Y0355623D01*
X0433807Y0352877D01*
X0431061Y0352877D01*
X0431061Y0354767D02*
X0433807Y0354767D01*
X0448155Y0355623D02*
X0448155Y0352877D01*
X0448155Y0355623D02*
X0450901Y0355623D01*
X0450901Y0352877D01*
X0448155Y0352877D01*
X0448155Y0354767D02*
X0450901Y0354767D01*
X0455061Y0355623D02*
X0455061Y0352877D01*
X0455061Y0355623D02*
X0457807Y0355623D01*
X0457807Y0352877D01*
X0455061Y0352877D01*
X0455061Y0354767D02*
X0457807Y0354767D01*
X0526155Y0355623D02*
X0526155Y0352877D01*
X0526155Y0355623D02*
X0528901Y0355623D01*
X0528901Y0352877D01*
X0526155Y0352877D01*
X0526155Y0354767D02*
X0528901Y0354767D01*
X0533061Y0355623D02*
X0533061Y0352877D01*
X0533061Y0355623D02*
X0535807Y0355623D01*
X0535807Y0352877D01*
X0533061Y0352877D01*
X0533061Y0354767D02*
X0535807Y0354767D01*
X0550155Y0355623D02*
X0550155Y0352877D01*
X0550155Y0355623D02*
X0552901Y0355623D01*
X0552901Y0352877D01*
X0550155Y0352877D01*
X0550155Y0354767D02*
X0552901Y0354767D01*
X0557061Y0355623D02*
X0557061Y0352877D01*
X0557061Y0355623D02*
X0559807Y0355623D01*
X0559807Y0352877D01*
X0557061Y0352877D01*
X0557061Y0354767D02*
X0559807Y0354767D01*
X0628155Y0355623D02*
X0628155Y0352877D01*
X0628155Y0355623D02*
X0630901Y0355623D01*
X0630901Y0352877D01*
X0628155Y0352877D01*
X0628155Y0354767D02*
X0630901Y0354767D01*
X0635061Y0355623D02*
X0635061Y0352877D01*
X0635061Y0355623D02*
X0637807Y0355623D01*
X0637807Y0352877D01*
X0635061Y0352877D01*
X0635061Y0354767D02*
X0637807Y0354767D01*
X0635061Y0233623D02*
X0635061Y0230877D01*
X0635061Y0233623D02*
X0637807Y0233623D01*
X0637807Y0230877D01*
X0635061Y0230877D01*
X0635061Y0232767D02*
X0637807Y0232767D01*
X0628155Y0233623D02*
X0628155Y0230877D01*
X0628155Y0233623D02*
X0630901Y0233623D01*
X0630901Y0230877D01*
X0628155Y0230877D01*
X0628155Y0232767D02*
X0630901Y0232767D01*
X0557061Y0233623D02*
X0557061Y0230877D01*
X0557061Y0233623D02*
X0559807Y0233623D01*
X0559807Y0230877D01*
X0557061Y0230877D01*
X0557061Y0232767D02*
X0559807Y0232767D01*
X0550155Y0233623D02*
X0550155Y0230877D01*
X0550155Y0233623D02*
X0552901Y0233623D01*
X0552901Y0230877D01*
X0550155Y0230877D01*
X0550155Y0232767D02*
X0552901Y0232767D01*
X0533061Y0233623D02*
X0533061Y0230877D01*
X0533061Y0233623D02*
X0535807Y0233623D01*
X0535807Y0230877D01*
X0533061Y0230877D01*
X0533061Y0232767D02*
X0535807Y0232767D01*
X0526155Y0233623D02*
X0526155Y0230877D01*
X0526155Y0233623D02*
X0528901Y0233623D01*
X0528901Y0230877D01*
X0526155Y0230877D01*
X0526155Y0232767D02*
X0528901Y0232767D01*
X0455061Y0233623D02*
X0455061Y0230877D01*
X0455061Y0233623D02*
X0457807Y0233623D01*
X0457807Y0230877D01*
X0455061Y0230877D01*
X0455061Y0232767D02*
X0457807Y0232767D01*
X0448155Y0233623D02*
X0448155Y0230877D01*
X0448155Y0233623D02*
X0450901Y0233623D01*
X0450901Y0230877D01*
X0448155Y0230877D01*
X0448155Y0232767D02*
X0450901Y0232767D01*
X0431061Y0233623D02*
X0431061Y0230877D01*
X0431061Y0233623D02*
X0433807Y0233623D01*
X0433807Y0230877D01*
X0431061Y0230877D01*
X0431061Y0232767D02*
X0433807Y0232767D01*
X0424155Y0233623D02*
X0424155Y0230877D01*
X0424155Y0233623D02*
X0426901Y0233623D01*
X0426901Y0230877D01*
X0424155Y0230877D01*
X0424155Y0232767D02*
X0426901Y0232767D01*
X0353061Y0233623D02*
X0353061Y0230877D01*
X0353061Y0233623D02*
X0355807Y0233623D01*
X0355807Y0230877D01*
X0353061Y0230877D01*
X0353061Y0232767D02*
X0355807Y0232767D01*
X0346155Y0233623D02*
X0346155Y0230877D01*
X0346155Y0233623D02*
X0348901Y0233623D01*
X0348901Y0230877D01*
X0346155Y0230877D01*
X0346155Y0232767D02*
X0348901Y0232767D01*
X0329061Y0233623D02*
X0329061Y0230877D01*
X0329061Y0233623D02*
X0331807Y0233623D01*
X0331807Y0230877D01*
X0329061Y0230877D01*
X0329061Y0232767D02*
X0331807Y0232767D01*
X0322155Y0233623D02*
X0322155Y0230877D01*
X0322155Y0233623D02*
X0324901Y0233623D01*
X0324901Y0230877D01*
X0322155Y0230877D01*
X0322155Y0232767D02*
X0324901Y0232767D01*
X0251061Y0233623D02*
X0251061Y0230877D01*
X0251061Y0233623D02*
X0253807Y0233623D01*
X0253807Y0230877D01*
X0251061Y0230877D01*
X0251061Y0232767D02*
X0253807Y0232767D01*
X0244155Y0233623D02*
X0244155Y0230877D01*
X0244155Y0233623D02*
X0246901Y0233623D01*
X0246901Y0230877D01*
X0244155Y0230877D01*
X0244155Y0232767D02*
X0246901Y0232767D01*
X0227061Y0233623D02*
X0227061Y0230877D01*
X0227061Y0233623D02*
X0229807Y0233623D01*
X0229807Y0230877D01*
X0227061Y0230877D01*
X0227061Y0232767D02*
X0229807Y0232767D01*
X0220155Y0233623D02*
X0220155Y0230877D01*
X0220155Y0233623D02*
X0222901Y0233623D01*
X0222901Y0230877D01*
X0220155Y0230877D01*
X0220155Y0232767D02*
X0222901Y0232767D01*
X0149061Y0233623D02*
X0149061Y0230877D01*
X0149061Y0233623D02*
X0151807Y0233623D01*
X0151807Y0230877D01*
X0149061Y0230877D01*
X0149061Y0232767D02*
X0151807Y0232767D01*
X0142155Y0233623D02*
X0142155Y0230877D01*
X0142155Y0233623D02*
X0144901Y0233623D01*
X0144901Y0230877D01*
X0142155Y0230877D01*
X0142155Y0232767D02*
X0144901Y0232767D01*
X0125061Y0233623D02*
X0125061Y0230877D01*
X0125061Y0233623D02*
X0127807Y0233623D01*
X0127807Y0230877D01*
X0125061Y0230877D01*
X0125061Y0232767D02*
X0127807Y0232767D01*
X0118155Y0233623D02*
X0118155Y0230877D01*
X0118155Y0233623D02*
X0120901Y0233623D01*
X0120901Y0230877D01*
X0118155Y0230877D01*
X0118155Y0232767D02*
X0120901Y0232767D01*
X0047061Y0233623D02*
X0047061Y0230877D01*
X0047061Y0233623D02*
X0049807Y0233623D01*
X0049807Y0230877D01*
X0047061Y0230877D01*
X0047061Y0232767D02*
X0049807Y0232767D01*
X0040155Y0233623D02*
X0040155Y0230877D01*
X0040155Y0233623D02*
X0042901Y0233623D01*
X0042901Y0230877D01*
X0040155Y0230877D01*
X0040155Y0232767D02*
X0042901Y0232767D01*
X0040155Y0111623D02*
X0040155Y0108877D01*
X0040155Y0111623D02*
X0042901Y0111623D01*
X0042901Y0108877D01*
X0040155Y0108877D01*
X0040155Y0110767D02*
X0042901Y0110767D01*
X0047061Y0111623D02*
X0047061Y0108877D01*
X0047061Y0111623D02*
X0049807Y0111623D01*
X0049807Y0108877D01*
X0047061Y0108877D01*
X0047061Y0110767D02*
X0049807Y0110767D01*
X0118155Y0111623D02*
X0118155Y0108877D01*
X0118155Y0111623D02*
X0120901Y0111623D01*
X0120901Y0108877D01*
X0118155Y0108877D01*
X0118155Y0110767D02*
X0120901Y0110767D01*
X0125061Y0111623D02*
X0125061Y0108877D01*
X0125061Y0111623D02*
X0127807Y0111623D01*
X0127807Y0108877D01*
X0125061Y0108877D01*
X0125061Y0110767D02*
X0127807Y0110767D01*
X0142155Y0111623D02*
X0142155Y0108877D01*
X0142155Y0111623D02*
X0144901Y0111623D01*
X0144901Y0108877D01*
X0142155Y0108877D01*
X0142155Y0110767D02*
X0144901Y0110767D01*
X0149061Y0111623D02*
X0149061Y0108877D01*
X0149061Y0111623D02*
X0151807Y0111623D01*
X0151807Y0108877D01*
X0149061Y0108877D01*
X0149061Y0110767D02*
X0151807Y0110767D01*
X0220155Y0111623D02*
X0220155Y0108877D01*
X0220155Y0111623D02*
X0222901Y0111623D01*
X0222901Y0108877D01*
X0220155Y0108877D01*
X0220155Y0110767D02*
X0222901Y0110767D01*
X0227061Y0111623D02*
X0227061Y0108877D01*
X0227061Y0111623D02*
X0229807Y0111623D01*
X0229807Y0108877D01*
X0227061Y0108877D01*
X0227061Y0110767D02*
X0229807Y0110767D01*
X0244155Y0111623D02*
X0244155Y0108877D01*
X0244155Y0111623D02*
X0246901Y0111623D01*
X0246901Y0108877D01*
X0244155Y0108877D01*
X0244155Y0110767D02*
X0246901Y0110767D01*
X0251061Y0111623D02*
X0251061Y0108877D01*
X0251061Y0111623D02*
X0253807Y0111623D01*
X0253807Y0108877D01*
X0251061Y0108877D01*
X0251061Y0110767D02*
X0253807Y0110767D01*
X0322155Y0111623D02*
X0322155Y0108877D01*
X0322155Y0111623D02*
X0324901Y0111623D01*
X0324901Y0108877D01*
X0322155Y0108877D01*
X0322155Y0110767D02*
X0324901Y0110767D01*
X0329061Y0111623D02*
X0329061Y0108877D01*
X0329061Y0111623D02*
X0331807Y0111623D01*
X0331807Y0108877D01*
X0329061Y0108877D01*
X0329061Y0110767D02*
X0331807Y0110767D01*
X0346155Y0111623D02*
X0346155Y0108877D01*
X0346155Y0111623D02*
X0348901Y0111623D01*
X0348901Y0108877D01*
X0346155Y0108877D01*
X0346155Y0110767D02*
X0348901Y0110767D01*
X0353061Y0111623D02*
X0353061Y0108877D01*
X0353061Y0111623D02*
X0355807Y0111623D01*
X0355807Y0108877D01*
X0353061Y0108877D01*
X0353061Y0110767D02*
X0355807Y0110767D01*
X0424155Y0111623D02*
X0424155Y0108877D01*
X0424155Y0111623D02*
X0426901Y0111623D01*
X0426901Y0108877D01*
X0424155Y0108877D01*
X0424155Y0110767D02*
X0426901Y0110767D01*
X0431061Y0111623D02*
X0431061Y0108877D01*
X0431061Y0111623D02*
X0433807Y0111623D01*
X0433807Y0108877D01*
X0431061Y0108877D01*
X0431061Y0110767D02*
X0433807Y0110767D01*
X0448155Y0111623D02*
X0448155Y0108877D01*
X0448155Y0111623D02*
X0450901Y0111623D01*
X0450901Y0108877D01*
X0448155Y0108877D01*
X0448155Y0110767D02*
X0450901Y0110767D01*
X0455061Y0111623D02*
X0455061Y0108877D01*
X0455061Y0111623D02*
X0457807Y0111623D01*
X0457807Y0108877D01*
X0455061Y0108877D01*
X0455061Y0110767D02*
X0457807Y0110767D01*
X0526155Y0111623D02*
X0526155Y0108877D01*
X0526155Y0111623D02*
X0528901Y0111623D01*
X0528901Y0108877D01*
X0526155Y0108877D01*
X0526155Y0110767D02*
X0528901Y0110767D01*
X0533061Y0111623D02*
X0533061Y0108877D01*
X0533061Y0111623D02*
X0535807Y0111623D01*
X0535807Y0108877D01*
X0533061Y0108877D01*
X0533061Y0110767D02*
X0535807Y0110767D01*
X0550155Y0111623D02*
X0550155Y0108877D01*
X0550155Y0111623D02*
X0552901Y0111623D01*
X0552901Y0108877D01*
X0550155Y0108877D01*
X0550155Y0110767D02*
X0552901Y0110767D01*
X0557061Y0111623D02*
X0557061Y0108877D01*
X0557061Y0111623D02*
X0559807Y0111623D01*
X0559807Y0108877D01*
X0557061Y0108877D01*
X0557061Y0110767D02*
X0559807Y0110767D01*
X0628155Y0111623D02*
X0628155Y0108877D01*
X0628155Y0111623D02*
X0630901Y0111623D01*
X0630901Y0108877D01*
X0628155Y0108877D01*
X0628155Y0110767D02*
X0630901Y0110767D01*
X0635061Y0111623D02*
X0635061Y0108877D01*
X0635061Y0111623D02*
X0637807Y0111623D01*
X0637807Y0108877D01*
X0635061Y0108877D01*
X0635061Y0110767D02*
X0637807Y0110767D01*
D18*
X0605505Y0106750D03*
X0605505Y0101750D03*
X0605505Y0096750D03*
X0605505Y0091750D03*
X0605505Y0086750D03*
X0605505Y0081750D03*
X0605505Y0076750D03*
X0583458Y0076750D03*
X0583458Y0081750D03*
X0583458Y0086750D03*
X0583458Y0091750D03*
X0583458Y0096750D03*
X0583458Y0101750D03*
X0583458Y0106750D03*
X0503505Y0106750D03*
X0503505Y0101750D03*
X0503505Y0096750D03*
X0503505Y0091750D03*
X0503505Y0086750D03*
X0503505Y0081750D03*
X0503505Y0076750D03*
X0481458Y0076750D03*
X0481458Y0081750D03*
X0481458Y0086750D03*
X0481458Y0091750D03*
X0481458Y0096750D03*
X0481458Y0101750D03*
X0481458Y0106750D03*
X0401505Y0106750D03*
X0401505Y0101750D03*
X0401505Y0096750D03*
X0401505Y0091750D03*
X0401505Y0086750D03*
X0401505Y0081750D03*
X0401505Y0076750D03*
X0379458Y0076750D03*
X0379458Y0081750D03*
X0379458Y0086750D03*
X0379458Y0091750D03*
X0379458Y0096750D03*
X0379458Y0101750D03*
X0379458Y0106750D03*
X0299505Y0106750D03*
X0299505Y0101750D03*
X0299505Y0096750D03*
X0299505Y0091750D03*
X0299505Y0086750D03*
X0299505Y0081750D03*
X0299505Y0076750D03*
X0277458Y0076750D03*
X0277458Y0081750D03*
X0277458Y0086750D03*
X0277458Y0091750D03*
X0277458Y0096750D03*
X0277458Y0101750D03*
X0277458Y0106750D03*
X0197505Y0106750D03*
X0197505Y0101750D03*
X0197505Y0096750D03*
X0197505Y0091750D03*
X0197505Y0086750D03*
X0197505Y0081750D03*
X0197505Y0076750D03*
X0175458Y0076750D03*
X0175458Y0081750D03*
X0175458Y0086750D03*
X0175458Y0091750D03*
X0175458Y0096750D03*
X0175458Y0101750D03*
X0175458Y0106750D03*
X0095505Y0106750D03*
X0095505Y0101750D03*
X0095505Y0096750D03*
X0095505Y0091750D03*
X0095505Y0086750D03*
X0095505Y0081750D03*
X0095505Y0076750D03*
X0073458Y0076750D03*
X0073458Y0081750D03*
X0073458Y0086750D03*
X0073458Y0091750D03*
X0073458Y0096750D03*
X0073458Y0101750D03*
X0073458Y0106750D03*
X0073458Y0198750D03*
X0073458Y0203750D03*
X0073458Y0208750D03*
X0073458Y0213750D03*
X0073458Y0218750D03*
X0073458Y0223750D03*
X0073458Y0228750D03*
X0095505Y0228750D03*
X0095505Y0223750D03*
X0095505Y0218750D03*
X0095505Y0213750D03*
X0095505Y0208750D03*
X0095505Y0203750D03*
X0095505Y0198750D03*
X0175458Y0198750D03*
X0175458Y0203750D03*
X0175458Y0208750D03*
X0175458Y0213750D03*
X0175458Y0218750D03*
X0175458Y0223750D03*
X0175458Y0228750D03*
X0197505Y0228750D03*
X0197505Y0223750D03*
X0197505Y0218750D03*
X0197505Y0213750D03*
X0197505Y0208750D03*
X0197505Y0203750D03*
X0197505Y0198750D03*
X0277458Y0198750D03*
X0277458Y0203750D03*
X0277458Y0208750D03*
X0277458Y0213750D03*
X0277458Y0218750D03*
X0277458Y0223750D03*
X0277458Y0228750D03*
X0299505Y0228750D03*
X0299505Y0223750D03*
X0299505Y0218750D03*
X0299505Y0213750D03*
X0299505Y0208750D03*
X0299505Y0203750D03*
X0299505Y0198750D03*
X0379458Y0198750D03*
X0379458Y0203750D03*
X0379458Y0208750D03*
X0379458Y0213750D03*
X0379458Y0218750D03*
X0379458Y0223750D03*
X0379458Y0228750D03*
X0401505Y0228750D03*
X0401505Y0223750D03*
X0401505Y0218750D03*
X0401505Y0213750D03*
X0401505Y0208750D03*
X0401505Y0203750D03*
X0401505Y0198750D03*
X0481458Y0198750D03*
X0481458Y0203750D03*
X0481458Y0208750D03*
X0481458Y0213750D03*
X0481458Y0218750D03*
X0481458Y0223750D03*
X0481458Y0228750D03*
X0503505Y0228750D03*
X0503505Y0223750D03*
X0503505Y0218750D03*
X0503505Y0213750D03*
X0503505Y0208750D03*
X0503505Y0203750D03*
X0503505Y0198750D03*
X0583458Y0198750D03*
X0583458Y0203750D03*
X0583458Y0208750D03*
X0583458Y0213750D03*
X0583458Y0218750D03*
X0583458Y0223750D03*
X0583458Y0228750D03*
X0605505Y0228750D03*
X0605505Y0223750D03*
X0605505Y0218750D03*
X0605505Y0213750D03*
X0605505Y0208750D03*
X0605505Y0203750D03*
X0605505Y0198750D03*
X0605505Y0320750D03*
X0605505Y0325750D03*
X0605505Y0330750D03*
X0605505Y0335750D03*
X0605505Y0340750D03*
X0605505Y0345750D03*
X0605505Y0350750D03*
X0583458Y0350750D03*
X0583458Y0345750D03*
X0583458Y0340750D03*
X0583458Y0335750D03*
X0583458Y0330750D03*
X0583458Y0325750D03*
X0583458Y0320750D03*
X0503505Y0320750D03*
X0503505Y0325750D03*
X0503505Y0330750D03*
X0503505Y0335750D03*
X0503505Y0340750D03*
X0503505Y0345750D03*
X0503505Y0350750D03*
X0481458Y0350750D03*
X0481458Y0345750D03*
X0481458Y0340750D03*
X0481458Y0335750D03*
X0481458Y0330750D03*
X0481458Y0325750D03*
X0481458Y0320750D03*
X0401505Y0320750D03*
X0401505Y0325750D03*
X0401505Y0330750D03*
X0401505Y0335750D03*
X0401505Y0340750D03*
X0401505Y0345750D03*
X0401505Y0350750D03*
X0379458Y0350750D03*
X0379458Y0345750D03*
X0379458Y0340750D03*
X0379458Y0335750D03*
X0379458Y0330750D03*
X0379458Y0325750D03*
X0379458Y0320750D03*
X0299505Y0320750D03*
X0299505Y0325750D03*
X0299505Y0330750D03*
X0299505Y0335750D03*
X0299505Y0340750D03*
X0299505Y0345750D03*
X0299505Y0350750D03*
X0277458Y0350750D03*
X0277458Y0345750D03*
X0277458Y0340750D03*
X0277458Y0335750D03*
X0277458Y0330750D03*
X0277458Y0325750D03*
X0277458Y0320750D03*
X0197505Y0320750D03*
X0197505Y0325750D03*
X0197505Y0330750D03*
X0197505Y0335750D03*
X0197505Y0340750D03*
X0197505Y0345750D03*
X0197505Y0350750D03*
X0175458Y0350750D03*
X0175458Y0345750D03*
X0175458Y0340750D03*
X0175458Y0335750D03*
X0175458Y0330750D03*
X0175458Y0325750D03*
X0175458Y0320750D03*
X0095505Y0320750D03*
X0095505Y0325750D03*
X0095505Y0330750D03*
X0095505Y0335750D03*
X0095505Y0340750D03*
X0095505Y0345750D03*
X0095505Y0350750D03*
X0073458Y0350750D03*
X0073458Y0345750D03*
X0073458Y0340750D03*
X0073458Y0335750D03*
X0073458Y0330750D03*
X0073458Y0325750D03*
X0073458Y0320750D03*
D19*
X0070127Y0360392D03*
X0094340Y0384604D03*
X0172127Y0360392D03*
X0196340Y0384604D03*
X0274127Y0360392D03*
X0298340Y0384604D03*
X0376127Y0360392D03*
X0400340Y0384604D03*
X0478127Y0360392D03*
X0502340Y0384604D03*
X0580127Y0360392D03*
X0604340Y0384604D03*
X0604340Y0262604D03*
X0580127Y0238392D03*
X0502340Y0262604D03*
X0478127Y0238392D03*
X0400340Y0262604D03*
X0376127Y0238392D03*
X0298340Y0262604D03*
X0274127Y0238392D03*
X0196340Y0262604D03*
X0172127Y0238392D03*
X0094340Y0262604D03*
X0070127Y0238392D03*
X0094340Y0140604D03*
X0070127Y0116392D03*
X0172127Y0116392D03*
X0196340Y0140604D03*
X0274127Y0116392D03*
X0298340Y0140604D03*
X0376127Y0116392D03*
X0400340Y0140604D03*
X0478127Y0116392D03*
X0502340Y0140604D03*
X0580127Y0116392D03*
X0604340Y0140604D03*
D20*
X0599312Y0120250D03*
X0591044Y0116510D03*
X0591044Y0123990D03*
X0497312Y0120250D03*
X0489044Y0116510D03*
X0489044Y0123990D03*
X0395312Y0120250D03*
X0387044Y0116510D03*
X0387044Y0123990D03*
X0293312Y0120250D03*
X0285044Y0116510D03*
X0285044Y0123990D03*
X0191312Y0120250D03*
X0183044Y0116510D03*
X0183044Y0123990D03*
X0089312Y0120250D03*
X0081044Y0116510D03*
X0081044Y0123990D03*
X0081044Y0238510D03*
X0089312Y0242250D03*
X0081044Y0245990D03*
X0183044Y0245990D03*
X0191312Y0242250D03*
X0183044Y0238510D03*
X0285044Y0238510D03*
X0293312Y0242250D03*
X0285044Y0245990D03*
X0387044Y0245990D03*
X0395312Y0242250D03*
X0387044Y0238510D03*
X0489044Y0238510D03*
X0497312Y0242250D03*
X0489044Y0245990D03*
X0591044Y0245990D03*
X0599312Y0242250D03*
X0591044Y0238510D03*
X0591044Y0360510D03*
X0591044Y0367990D03*
X0599312Y0364250D03*
X0497312Y0364250D03*
X0489044Y0367990D03*
X0489044Y0360510D03*
X0395312Y0364250D03*
X0387044Y0367990D03*
X0387044Y0360510D03*
X0293312Y0364250D03*
X0285044Y0367990D03*
X0285044Y0360510D03*
X0191312Y0364250D03*
X0183044Y0367990D03*
X0183044Y0360510D03*
X0089312Y0364250D03*
X0081044Y0367990D03*
X0081044Y0360510D03*
D21*
X0061481Y0401000D03*
X0617481Y0401000D03*
D22*
X0057916Y0020500D02*
X0057918Y0020619D01*
X0057924Y0020738D01*
X0057934Y0020857D01*
X0057948Y0020975D01*
X0057966Y0021093D01*
X0057987Y0021210D01*
X0058013Y0021326D01*
X0058043Y0021442D01*
X0058076Y0021556D01*
X0058113Y0021669D01*
X0058154Y0021781D01*
X0058199Y0021892D01*
X0058247Y0022001D01*
X0058299Y0022108D01*
X0058355Y0022213D01*
X0058414Y0022317D01*
X0058476Y0022418D01*
X0058542Y0022518D01*
X0058611Y0022615D01*
X0058683Y0022709D01*
X0058759Y0022802D01*
X0058837Y0022891D01*
X0058918Y0022978D01*
X0059003Y0023063D01*
X0059090Y0023144D01*
X0059179Y0023222D01*
X0059272Y0023298D01*
X0059366Y0023370D01*
X0059463Y0023439D01*
X0059563Y0023505D01*
X0059664Y0023567D01*
X0059768Y0023626D01*
X0059873Y0023682D01*
X0059980Y0023734D01*
X0060089Y0023782D01*
X0060200Y0023827D01*
X0060312Y0023868D01*
X0060425Y0023905D01*
X0060539Y0023938D01*
X0060655Y0023968D01*
X0060771Y0023994D01*
X0060888Y0024015D01*
X0061006Y0024033D01*
X0061124Y0024047D01*
X0061243Y0024057D01*
X0061362Y0024063D01*
X0061481Y0024065D01*
X0061600Y0024063D01*
X0061719Y0024057D01*
X0061838Y0024047D01*
X0061956Y0024033D01*
X0062074Y0024015D01*
X0062191Y0023994D01*
X0062307Y0023968D01*
X0062423Y0023938D01*
X0062537Y0023905D01*
X0062650Y0023868D01*
X0062762Y0023827D01*
X0062873Y0023782D01*
X0062982Y0023734D01*
X0063089Y0023682D01*
X0063194Y0023626D01*
X0063298Y0023567D01*
X0063399Y0023505D01*
X0063499Y0023439D01*
X0063596Y0023370D01*
X0063690Y0023298D01*
X0063783Y0023222D01*
X0063872Y0023144D01*
X0063959Y0023063D01*
X0064044Y0022978D01*
X0064125Y0022891D01*
X0064203Y0022802D01*
X0064279Y0022709D01*
X0064351Y0022615D01*
X0064420Y0022518D01*
X0064486Y0022418D01*
X0064548Y0022317D01*
X0064607Y0022213D01*
X0064663Y0022108D01*
X0064715Y0022001D01*
X0064763Y0021892D01*
X0064808Y0021781D01*
X0064849Y0021669D01*
X0064886Y0021556D01*
X0064919Y0021442D01*
X0064949Y0021326D01*
X0064975Y0021210D01*
X0064996Y0021093D01*
X0065014Y0020975D01*
X0065028Y0020857D01*
X0065038Y0020738D01*
X0065044Y0020619D01*
X0065046Y0020500D01*
X0065044Y0020381D01*
X0065038Y0020262D01*
X0065028Y0020143D01*
X0065014Y0020025D01*
X0064996Y0019907D01*
X0064975Y0019790D01*
X0064949Y0019674D01*
X0064919Y0019558D01*
X0064886Y0019444D01*
X0064849Y0019331D01*
X0064808Y0019219D01*
X0064763Y0019108D01*
X0064715Y0018999D01*
X0064663Y0018892D01*
X0064607Y0018787D01*
X0064548Y0018683D01*
X0064486Y0018582D01*
X0064420Y0018482D01*
X0064351Y0018385D01*
X0064279Y0018291D01*
X0064203Y0018198D01*
X0064125Y0018109D01*
X0064044Y0018022D01*
X0063959Y0017937D01*
X0063872Y0017856D01*
X0063783Y0017778D01*
X0063690Y0017702D01*
X0063596Y0017630D01*
X0063499Y0017561D01*
X0063399Y0017495D01*
X0063298Y0017433D01*
X0063194Y0017374D01*
X0063089Y0017318D01*
X0062982Y0017266D01*
X0062873Y0017218D01*
X0062762Y0017173D01*
X0062650Y0017132D01*
X0062537Y0017095D01*
X0062423Y0017062D01*
X0062307Y0017032D01*
X0062191Y0017006D01*
X0062074Y0016985D01*
X0061956Y0016967D01*
X0061838Y0016953D01*
X0061719Y0016943D01*
X0061600Y0016937D01*
X0061481Y0016935D01*
X0061362Y0016937D01*
X0061243Y0016943D01*
X0061124Y0016953D01*
X0061006Y0016967D01*
X0060888Y0016985D01*
X0060771Y0017006D01*
X0060655Y0017032D01*
X0060539Y0017062D01*
X0060425Y0017095D01*
X0060312Y0017132D01*
X0060200Y0017173D01*
X0060089Y0017218D01*
X0059980Y0017266D01*
X0059873Y0017318D01*
X0059768Y0017374D01*
X0059664Y0017433D01*
X0059563Y0017495D01*
X0059463Y0017561D01*
X0059366Y0017630D01*
X0059272Y0017702D01*
X0059179Y0017778D01*
X0059090Y0017856D01*
X0059003Y0017937D01*
X0058918Y0018022D01*
X0058837Y0018109D01*
X0058759Y0018198D01*
X0058683Y0018291D01*
X0058611Y0018385D01*
X0058542Y0018482D01*
X0058476Y0018582D01*
X0058414Y0018683D01*
X0058355Y0018787D01*
X0058299Y0018892D01*
X0058247Y0018999D01*
X0058199Y0019108D01*
X0058154Y0019219D01*
X0058113Y0019331D01*
X0058076Y0019444D01*
X0058043Y0019558D01*
X0058013Y0019674D01*
X0057987Y0019790D01*
X0057966Y0019907D01*
X0057948Y0020025D01*
X0057934Y0020143D01*
X0057924Y0020262D01*
X0057918Y0020381D01*
X0057916Y0020500D01*
D23*
X0061481Y0020500D03*
M02*
